<svg xmlns="http://www.w3.org/2000/svg" fill="currentColor" fill-rule="evenodd" viewBox="12.5 12.5 75 75"><path fill="white" d="M22.2,65.7c-0.3,0-0.6-0.1-0.8-0.3c-0.7-0.5-0.9-1.4-0.4-2.1L37,39.2c0.2-0.4,0.6-0.6,1-0.7c0.4-0.1,0.9,0.1,1.2,0.3   l22.2,18.9L76.6,35c0.5-0.7,1.4-0.9,2.1-0.4c0.7,0.5,0.9,1.4,0.4,2.1L63,60.8c-0.2,0.4-0.6,0.6-1,0.7s-0.9-0.1-1.2-0.3L38.6,42.2   L23.4,65C23.1,65.4,22.7,65.7,22.2,65.7z"/>
    <circle fill="white" cx="22.2" cy="64.2" r="6.5"/>
    <circle fill="white" cx="61.6" cy="59.7" r="6.5"/>
    <circle fill="white" cx="38.5" cy="40.1" r="6.5"/>
    <circle fill="white" cx="77.8" cy="35.8" r="6.5"/>
    </svg>