<svg xmlns="http://www.w3.org/2000/svg" xmlns:xlink="http://www.w3.org/1999/xlink" width="1200" height="1200" viewBox="0 0 1200 1200">
    <circle stroke="none" fill="#FF8400" r="48%" cx="50%" cy="50%"/>
    <g transform="translate(600 600) scale(0.69 0.69) rotate(0) translate(-600 -600)" style="fill:#fff">
        <svg fill="#FFFFFF" xmlns="http://www.w3.org/2000/svg" data-name="Livello 1" viewBox="0 0 32 32" x="0px" y="0px">
            <title>
                Logo Repo
            </title>
            <path d="M28,13.608V12a1,1,0,0,0-1-1H26V8a2,2,0,0,0-2-2H22V4.908a1.5,1.5,0,1,0-1,0V6H11V4.908a1.5,1.5,0,1,0-1,0V6H8A2,2,0,0,0,6,8v3H5a1,1,0,0,0-1,1v1.608a1.989,1.989,0,0,0-1,1.723V26.284a2,2,0,0,0,1.7,1.977l11.152,1.716a1.056,1.056,0,0,0,.3,0L27.3,28.261A2,2,0,0,0,29,26.284V15.331A1.989,1.989,0,0,0,28,13.608ZM28,23v1H26V23h2Zm-2-1a1,1,0,0,0-1,1v1a1,1,0,0,0,1,1h1v1.284L16,27.976,5,26.284V25H6a1,1,0,0,0,1-1V23a1,1,0,0,0-1-1H5V15.331l1,.154.5.077.5.077,1,.154,7.544,1.16a2.988,2.988,0,0,0,.912,0L24,15.793l1-.154.5-.077.5-.077,1-.154V22ZM8,8H24v5.769l-3.024.465A1.8,1.8,0,0,0,21,14a2,2,0,1,0-3.821.819l-1.027.158a1.056,1.056,0,0,1-.3,0l-1.027-.158A2,2,0,1,0,11,14a1.8,1.8,0,0,0,.024.234L8,13.769Zm4,6a1,1,0,0,1,2,0,.986.986,0,0,1-.257.653L12.085,14.4A.983.983,0,0,1,12,14Zm6,0a1,1,0,0,1,2,0,.983.983,0,0,1-.085.4l-1.658.255A.986.986,0,0,1,18,14Zm9-.669a2.1,2.1,0,0,0-.3.023l-.7.108V12h1ZM6,13.462l-.7-.108a2.1,2.1,0,0,0-.3-.023V12H6ZM4,24V23H6v1H4Z"/>
            <path d="M14.5,19a.5.5,0,0,0-.5.5v6a.5.5,0,0,0,1,0v-6A.5.5,0,0,0,14.5,19Z"/>
            <path d="M17.5,19a.5.5,0,0,0-.5.5v6a.5.5,0,0,0,1,0v-6A.5.5,0,0,0,17.5,19Z"/>
        </svg>
    </g>
</svg>
