<svg viewBox="0 0 1503 400" xmlns="http://www.w3.org/2000/svg"><g><g><g><g><g><line x1="51.52000045776367" y1="377.95999908447266" x2="46.52000045776367" y2="377.95999908447266" style="visibility: inherit;" fill="rgb(0, 0, 0)" stroke="rgb(204, 204, 204)" stroke-width="1px"></line><line x1="51.52000045776367" y1="346.4633324940999" x2="46.52000045776367" y2="346.4633324940999" style="visibility: inherit;" fill="rgb(0, 0, 0)" stroke="rgb(204, 204, 204)" stroke-width="1px"></line><line x1="51.52000045776367" y1="314.96666590372723" x2="46.52000045776367" y2="314.96666590372723" style="visibility: inherit;" fill="rgb(0, 0, 0)" stroke="rgb(204, 204, 204)" stroke-width="1px"></line><line x1="51.52000045776367" y1="283.4699993133545" x2="46.52000045776367" y2="283.4699993133545" style="visibility: inherit;" fill="rgb(0, 0, 0)" stroke="rgb(204, 204, 204)" stroke-width="1px"></line><line x1="51.52000045776367" y1="251.97333272298178" x2="46.52000045776367" y2="251.97333272298178" style="visibility: inherit;" fill="rgb(0, 0, 0)" stroke="rgb(204, 204, 204)" stroke-width="1px"></line><line x1="51.52000045776367" y1="220.47666613260907" x2="46.52000045776367" y2="220.47666613260907" style="visibility: inherit;" fill="rgb(0, 0, 0)" stroke="rgb(204, 204, 204)" stroke-width="1px"></line><line x1="51.52000045776367" y1="188.97999954223636" x2="46.52000045776367" y2="188.97999954223636" style="visibility: inherit;" fill="rgb(0, 0, 0)" stroke="rgb(204, 204, 204)" stroke-width="1px"></line><line x1="51.52000045776367" y1="157.48333295186364" x2="46.52000045776367" y2="157.48333295186364" style="visibility: inherit;" fill="rgb(0, 0, 0)" stroke="rgb(204, 204, 204)" stroke-width="1px"></line><line x1="51.52000045776367" y1="125.98666636149093" x2="46.52000045776367" y2="125.98666636149093" style="visibility: inherit;" fill="rgb(0, 0, 0)" stroke="rgb(204, 204, 204)" stroke-width="1px"></line><line x1="51.52000045776367" y1="94.48999977111822" x2="46.52000045776367" y2="94.48999977111822" style="visibility: inherit;" fill="rgb(0, 0, 0)" stroke="rgb(204, 204, 204)" stroke-width="1px"></line><line x1="51.52000045776367" y1="62.99333318074548" x2="46.52000045776367" y2="62.99333318074548" style="visibility: inherit;" fill="rgb(0, 0, 0)" stroke="rgb(204, 204, 204)" stroke-width="1px"></line><line x1="51.52000045776367" y1="31.49666659037274" x2="46.52000045776367" y2="31.49666659037274" style="visibility: inherit;" fill="rgb(0, 0, 0)" stroke="rgb(204, 204, 204)" stroke-width="1px"></line><line x1="51.52000045776367" y1="0" x2="46.52000045776367" y2="0" style="visibility: inherit;" fill="rgb(0, 0, 0)" stroke="rgb(204, 204, 204)" stroke-width="1px"></line></g><g transform="translate(41.52000045776367, 0)"><text style="text-anchor: end; visibility: hidden; font-family: &quot;Helvetica Neue&quot;, sans-serif; font-size: 12px; font-weight: 200;" x="0" y="377.95999908447266" dx="0em" dy="0.3em" fill="rgb(50, 49, 63)" stroke="none" stroke-width="1px">-0.1</text><text style="text-anchor: end; visibility: inherit; font-family: &quot;Helvetica Neue&quot;, sans-serif; font-size: 12px; font-weight: 200;" x="0" y="346.4633324940999" dx="0em" dy="0.3em" fill="rgb(50, 49, 63)" stroke="none" stroke-width="1px">0</text><text style="text-anchor: end; visibility: inherit; font-family: &quot;Helvetica Neue&quot;, sans-serif; font-size: 12px; font-weight: 200;" x="0" y="314.96666590372723" dx="0em" dy="0.3em" fill="rgb(50, 49, 63)" stroke="none" stroke-width="1px">0.1</text><text style="text-anchor: end; visibility: inherit; font-family: &quot;Helvetica Neue&quot;, sans-serif; font-size: 12px; font-weight: 200;" x="0" y="283.4699993133545" dx="0em" dy="0.3em" fill="rgb(50, 49, 63)" stroke="none" stroke-width="1px">0.2</text><text style="text-anchor: end; visibility: inherit; font-family: &quot;Helvetica Neue&quot;, sans-serif; font-size: 12px; font-weight: 200;" x="0" y="251.97333272298178" dx="0em" dy="0.3em" fill="rgb(50, 49, 63)" stroke="none" stroke-width="1px">0.3</text><text style="text-anchor: end; visibility: inherit; font-family: &quot;Helvetica Neue&quot;, sans-serif; font-size: 12px; font-weight: 200;" x="0" y="220.47666613260907" dx="0em" dy="0.3em" fill="rgb(50, 49, 63)" stroke="none" stroke-width="1px">0.4</text><text style="text-anchor: end; visibility: inherit; font-family: &quot;Helvetica Neue&quot;, sans-serif; font-size: 12px; font-weight: 200;" x="0" y="188.97999954223636" dx="0em" dy="0.3em" fill="rgb(50, 49, 63)" stroke="none" stroke-width="1px">0.5</text><text style="text-anchor: end; visibility: inherit; font-family: &quot;Helvetica Neue&quot;, sans-serif; font-size: 12px; font-weight: 200;" x="0" y="157.48333295186364" dx="0em" dy="0.3em" fill="rgb(50, 49, 63)" stroke="none" stroke-width="1px">0.6</text><text style="text-anchor: end; visibility: inherit; font-family: &quot;Helvetica Neue&quot;, sans-serif; font-size: 12px; font-weight: 200;" x="0" y="125.98666636149093" dx="0em" dy="0.3em" fill="rgb(50, 49, 63)" stroke="none" stroke-width="1px">0.7</text><text style="text-anchor: end; visibility: inherit; font-family: &quot;Helvetica Neue&quot;, sans-serif; font-size: 12px; font-weight: 200;" x="0" y="94.48999977111822" dx="0em" dy="0.3em" fill="rgb(50, 49, 63)" stroke="none" stroke-width="1px">0.8</text><text style="text-anchor: end; visibility: inherit; font-family: &quot;Helvetica Neue&quot;, sans-serif; font-size: 12px; font-weight: 200;" x="0" y="62.99333318074548" dx="0em" dy="0.3em" fill="rgb(50, 49, 63)" stroke="none" stroke-width="1px">0.9</text><text style="text-anchor: end; visibility: inherit; font-family: &quot;Helvetica Neue&quot;, sans-serif; font-size: 12px; font-weight: 200;" x="0" y="31.49666659037274" dx="0em" dy="0.3em" fill="rgb(50, 49, 63)" stroke="none" stroke-width="1px">1</text><text style="text-anchor: end; visibility: hidden; font-family: &quot;Helvetica Neue&quot;, sans-serif; font-size: 12px; font-weight: 200;" x="0" y="0" dx="0em" dy="0.3em" fill="rgb(50, 49, 63)" stroke="none" stroke-width="1px">1.1</text></g><line x1="51.52000045776367" y1="0" x2="51.52000045776367" y2="377.95999908447266" fill="rgb(0, 0, 0)" stroke="rgb(204, 204, 204)" stroke-width="1px"></line></g></g><g transform="translate(51, 0)" clip-path="url(#clip_0)"><clipPath id="clip_0"><rect width="1451" height="377"></rect></clipPath><g><g><g><line x1="0" y1="0" x2="0" y2="377.95999908447266" fill="rgb(0, 0, 0)" stroke="rgb(60, 60, 60)" stroke-width="1px" opacity="0.25"></line><line x1="120.95666662851968" y1="0" x2="120.95666662851968" y2="377.95999908447266" fill="rgb(0, 0, 0)" stroke="rgb(60, 60, 60)" stroke-width="1px" opacity="0.25"></line><line x1="241.91333325703937" y1="0" x2="241.91333325703937" y2="377.95999908447266" fill="rgb(0, 0, 0)" stroke="rgb(60, 60, 60)" stroke-width="1px" opacity="0.25"></line><line x1="362.8699998855591" y1="0" x2="362.8699998855591" y2="377.95999908447266" fill="rgb(0, 0, 0)" stroke="rgb(60, 60, 60)" stroke-width="1px" opacity="0.25"></line><line x1="483.82666651407874" y1="0" x2="483.82666651407874" y2="377.95999908447266" fill="rgb(0, 0, 0)" stroke="rgb(60, 60, 60)" stroke-width="1px" opacity="0.25"></line><line x1="604.7833331425985" y1="0" x2="604.7833331425985" y2="377.95999908447266" fill="rgb(0, 0, 0)" stroke="rgb(60, 60, 60)" stroke-width="1px" opacity="0.25"></line><line x1="725.7399997711182" y1="0" x2="725.7399997711182" y2="377.95999908447266" fill="rgb(0, 0, 0)" stroke="rgb(60, 60, 60)" stroke-width="1px" opacity="0.25"></line><line x1="846.6966663996379" y1="0" x2="846.6966663996379" y2="377.95999908447266" fill="rgb(0, 0, 0)" stroke="rgb(60, 60, 60)" stroke-width="1px" opacity="0.25"></line><line x1="967.6533330281575" y1="0" x2="967.6533330281575" y2="377.95999908447266" fill="rgb(0, 0, 0)" stroke="rgb(60, 60, 60)" stroke-width="1px" opacity="0.25"></line><line x1="1088.6099996566772" y1="0" x2="1088.6099996566772" y2="377.95999908447266" fill="rgb(0, 0, 0)" stroke="rgb(60, 60, 60)" stroke-width="1px" opacity="0.25"></line><line x1="1209.566666285197" y1="0" x2="1209.566666285197" y2="377.95999908447266" fill="rgb(0, 0, 0)" stroke="rgb(60, 60, 60)" stroke-width="1px" opacity="0.25"></line><line x1="1330.5233329137166" y1="0" x2="1330.5233329137166" y2="377.95999908447266" fill="rgb(0, 0, 0)" stroke="rgb(60, 60, 60)" stroke-width="1px" opacity="0.25"></line><line x1="1451.4799995422363" y1="0" x2="1451.4799995422363" y2="377.95999908447266" fill="rgb(0, 0, 0)" stroke="rgb(60, 60, 60)" stroke-width="1px" opacity="0.25"></line></g><g><line x1="0" y1="377.95999908447266" x2="1451.4799995422363" y2="377.95999908447266" fill="rgb(0, 0, 0)" stroke="rgb(60, 60, 60)" stroke-width="1px" opacity="0.25"></line><line x1="0" y1="346.4633324940999" x2="1451.4799995422363" y2="346.4633324940999" fill="rgb(0, 0, 0)" stroke="rgb(60, 60, 60)" stroke-width="1px" opacity="0.25"></line><line x1="0" y1="314.96666590372723" x2="1451.4799995422363" y2="314.96666590372723" fill="rgb(0, 0, 0)" stroke="rgb(60, 60, 60)" stroke-width="1px" opacity="0.25"></line><line x1="0" y1="283.4699993133545" x2="1451.4799995422363" y2="283.4699993133545" fill="rgb(0, 0, 0)" stroke="rgb(60, 60, 60)" stroke-width="1px" opacity="0.25"></line><line x1="0" y1="251.97333272298178" x2="1451.4799995422363" y2="251.97333272298178" fill="rgb(0, 0, 0)" stroke="rgb(60, 60, 60)" stroke-width="1px" opacity="0.25"></line><line x1="0" y1="220.47666613260907" x2="1451.4799995422363" y2="220.47666613260907" fill="rgb(0, 0, 0)" stroke="rgb(60, 60, 60)" stroke-width="1px" opacity="0.25"></line><line x1="0" y1="188.97999954223636" x2="1451.4799995422363" y2="188.97999954223636" fill="rgb(0, 0, 0)" stroke="rgb(60, 60, 60)" stroke-width="1px" opacity="0.25"></line><line x1="0" y1="157.48333295186364" x2="1451.4799995422363" y2="157.48333295186364" fill="rgb(0, 0, 0)" stroke="rgb(60, 60, 60)" stroke-width="1px" opacity="0.25"></line><line x1="0" y1="125.98666636149093" x2="1451.4799995422363" y2="125.98666636149093" fill="rgb(0, 0, 0)" stroke="rgb(60, 60, 60)" stroke-width="1px" opacity="0.25"></line><line x1="0" y1="94.48999977111822" x2="1451.4799995422363" y2="94.48999977111822" fill="rgb(0, 0, 0)" stroke="rgb(60, 60, 60)" stroke-width="1px" opacity="0.25"></line><line x1="0" y1="62.99333318074548" x2="1451.4799995422363" y2="62.99333318074548" fill="rgb(0, 0, 0)" stroke="rgb(60, 60, 60)" stroke-width="1px" opacity="0.25"></line><line x1="0" y1="31.49666659037274" x2="1451.4799995422363" y2="31.49666659037274" fill="rgb(0, 0, 0)" stroke="rgb(60, 60, 60)" stroke-width="1px" opacity="0.25"></line><line x1="0" y1="0" x2="1451.4799995422363" y2="0" fill="rgb(0, 0, 0)" stroke="rgb(60, 60, 60)" stroke-width="1px" opacity="0.25"></line></g></g></g><g><g><line x1="0" y1="346.4633324940999" x2="1451.4799995422363" y2="346.4633324940999" fill="rgb(0, 0, 0)" stroke="rgb(153, 153, 153)" stroke-width="1.5px"></line></g></g><g><g><line x1="120.95666662851968" y1="0" x2="120.95666662851968" y2="377.95999908447266" fill="rgb(0, 0, 0)" stroke="rgb(153, 153, 153)" stroke-width="1.5px"></line></g></g><g><g><g><g><g><path style="fill: none;" stroke="rgb(0, 119, 187)" stroke-width="2px" d="M122.1662332948049,62.993340690135994L123.3757999610901,63.21381639506666L124.58536662737528,63.434292099997265L125.79493329366049,63.65476780492787L127.00449995994568,63.875243509858535L128.21406662623087,64.09571921478914L129.4236332925161,64.31619491971975L130.63319995880127,64.53667062465041L131.84276662508648,64.75714632958102L133.05233329137167,64.97762203451163L134.26189995765685,65.19809773944229L135.47146662394206,65.4185734443729L136.68103329022725,65.6390491493035L137.89059995651246,65.85952485423417L139.10016662279764,66.08000055916477L140.30973328908283,66.30047626409538L141.51929995536804,66.52095196902604L142.72886662165322,66.74142767395665L143.93843328793844,66.96192215236351L145.14799995422365,67.18239785729412L146.35756662050883,67.40287356222478L147.56713328679402,67.62334926715539L148.7766999530792,67.843824972086L149.98626661936441,68.06430067701666L151.19583328564963,68.28477638194727L152.4053999519348,68.50525208687787L153.61496661822002,68.72572779180854L154.8245332845052,68.94620349673914L156.0340999507904,69.16667920166975L157.2436666170756,69.38715490660041L158.4532332833608,69.60763061153102L159.662799949646,69.82810631646163L160.8723666159312,70.04858202139229L162.0819332822164,70.2690577263229L163.29149994850158,70.4895334312535L164.50106661478677,70.71000913618417L165.71063328107198,70.93048484111478L166.9201999473572,71.15096054604538L168.12976661364237,71.37145502445225L169.3393332799276,71.59193072938291L170.54889994621277,71.81240643431352L171.75846661249795,72.03288213924412L172.96803327878317,72.25335784417479L174.17759994506835,72.4738335491054L175.38716661135356,72.694309254036L176.59673327763878,72.91478495896666L177.80629994392396,73.13526066389727L179.01586661020914,73.35573636882788L180.22543327649433,73.57621207375854L181.43499994277954,73.79668777868915L182.64456660906473,74.01716348361975L183.85413327534994,74.23763918855042L185.06369994163512,74.45811489348102L186.2732666079203,74.67859059841163L187.48283327420555,74.8990663033423L188.69239994049073,75.1195420082729L189.90196660677591,75.34001771320351L191.1115332730611,75.56051219161037L192.3210999393463,75.78098789654103L193.5306666056315,76.00146360147164L194.74023327191668,76.22193930640225L195.94979993820192,76.44241501133291L197.1593666044871,76.66289071626352L198.3689332707723,76.88336642119413L199.5784999370575,77.10384212612479L200.78806660334268,77.3243178310554L201.99763326962787,77.544793535986L203.2071999359131,77.76526924091667L204.4167666021983,77.98574494584727L205.62633326848348,78.20622065077788L206.83589993476866,78.42669635570854L208.04546660105387,78.64717206063915L209.25503326733906,78.86764776556976L210.46459993362424,79.08812347050042L211.67416659990948,79.30859917543103L212.88373326619467,79.52907488036163L214.09329993247985,79.7495505852923L215.30286659876506,79.97004506369916L216.51243326505025,80.19052076862977L217.72199993133543,80.41099647356037L218.93156659762067,80.63147217849104L220.14113326390586,80.85194788342164L221.35069993019104,81.07242358835225L222.56026659647623,81.29289929328291L223.76983326276144,81.51337499821352L224.97939992904662,81.73385070314413L226.1889665953318,81.95432640807479L227.39853326161705,82.1748021130054L228.60809992790223,82.395277817936L229.81766659418741,82.61575352286667L231.02723326047263,82.83622922779728L232.2367999267578,83.05670493272788L233.446366593043,83.27718063765855L234.65593325932818,83.49765634258915L235.86549992561342,83.71813204751976L237.0750665918986,83.93860775245042L238.2846332581838,84.15910223085729L239.494199924469,84.37957793578789L240.70376659075419,84.6000536407185L241.91333325703937,84.82052934564916L243.1228999233246,85.04100505057977L244.3324665896098,85.26148075551038L245.54203325589498,85.48195646044104L246.7515999221802,85.70243216537165L247.96116658846537,85.92290787030225L249.17073325475056,86.14338357523292L250.38029992103574,86.36385928016352L251.58986658732098,86.58433498509413L252.79943325360617,86.8048106900248L254.00899991989135,87.0252863949554L255.21856658617656,87.24576209988601L256.42813325246175,87.46623780481667L257.63769991874693,87.68671350974728L258.8472665850322,87.90718921467789L260.05683325131736,88.12766491960855L261.26639991760254,88.34814062453916L262.4759665838878,88.56863510294602L263.68553325017297,88.78911080787663L264.89509991645815,89.00958651280729L266.10466658274333,89.2300622177379L267.3142332490285,89.4505379226685L268.5237999153137,89.67101362759917L269.7333665815989,89.89148933252977L270.9429332478841,90.11196503746038L272.1524999141693,90.33244074239104L273.3620665804545,90.55291644732165L274.57163324673974,90.77339215225226L275.7811999130249,90.99386785718292L276.9907665793101,91.21434356211353L278.2003332455953,91.43481926704413L279.4098999118805,91.6552949719748L280.61946657816566,91.8757706769054L281.82903324445084,92.09624638183601L283.0385999107361,92.31672208676667L284.24816657702127,92.53719779169728L285.45773324330645,92.75769227010414L286.6672999095917,92.97816797503475L287.8768665758769,93.19864367996541L289.08643324216206,93.41911938489602L290.2959999084473,93.63959508982663L291.5055665747325,93.86007079475729L292.71513324101767,94.0805464996879L293.92469990730285,94.3010222046185L295.13426657358804,94.52149790954911L296.3438332398732,94.74197361447978L297.5533999061584,94.96244931941038L298.76296657244364,95.18292502434099L299.97253323872883,95.40340072927165L301.182099905014,95.62387643420226L302.39166657129925,95.84435213913287L303.60123323758444,96.06482784406353L304.8107999038696,96.28530354899414L306.02036657015486,96.50577925392474L307.22993323644005,96.7262549588554L308.43949990272523,96.94673066378601L309.6490665690104,97.16722514219288L310.8586332352956,97.38770084712348L312.0681999015808,97.60817655205415L313.27776656786597,97.82865225698475L314.4873332341512,98.04912796191536L315.6968999004364,98.26960366684602L316.9064665667216,98.49007937177663L318.1160332330068,98.71055507670724L319.325599899292,98.9310307816379L320.5351665655772,99.15150648656851L321.7447332318624,99.37198219149911L322.9542998981476,99.59245789642978L324.1638665644328,99.81293360136038L325.373433230718,100.03340930629099L326.58299989700316,100.25388501122166L327.79256656328835,100.47436071615226L329.00213322957353,100.69483642108287L330.21169989585877,100.91531212601353L331.42126656214396,101.13578783094414L332.63083322842914,101.356282309351L333.8403998947144,101.57675801428161L335.04996656099956,101.79723371921227L336.25953322728475,102.01770942414288L337.46909989357,102.23818512907349L338.6786665598552,102.45866083400415L339.88823322614036,102.67913653893476L341.09779989242554,102.89961224386536L342.3073665587107,103.12008794879603L343.5169332249959,103.34056365372663L344.7264998912811,103.56103935865724L345.93606655756633,103.7815150635879L347.1456332238515,104.00199076851851L348.3551998901367,104.22246647344912L349.56476655642194,104.44294217837978L350.7743332227071,104.66341788331039L351.9838998889923,104.883893588241L353.19346655527755,105.10436929317166L354.40303322156274,105.32484499810226L355.6125998878479,105.54532070303287L356.8221665541331,105.76581518143973L358.0317332204183,105.9862908863704L359.2412998867035,106.206766591301L360.45086655298866,106.42724229623161L361.6604332192739,106.64771800116227L362.8699998855591,106.86819370609288L364.0795665518443,107.08866941102349L365.28913321812945,107.30914511595415L366.4986998844147,107.52962082088476L367.7082665506999,107.75009652581537L368.91783321698506,107.97057223074603L370.12739988327024,108.19104793567664L371.3369665495555,108.41152364060724L372.5465332158406,108.6319993455379L373.75609988212585,108.85247505046851L374.9656665484111,109.07295075539912L376.1752332146962,109.29342646032978L377.38479988098146,109.51390216526039L378.5943665472666,109.734377870191L379.80393321355183,109.95487234859786L381.01349987983707,110.17534805352852L382.2230665461222,110.39582375845913L383.43263321240744,110.61629946338974L384.6421998786926,110.8367751683204L385.8517665449778,111.05725087325101L387.061333211263,111.27772657818161L388.27089987754823,111.49820228311228L389.48046654383336,111.71867798804288L390.6900332101186,111.93915369297349L391.89959987640384,112.15962939790415L393.10916654268897,112.38010510283476L394.3187332089742,112.60058080776537L395.52829987525945,112.82105651269603L396.7378665415446,113.04153221762664L397.9474332078298,113.26200792255725L399.156999874115,113.48248362748791L400.3665665404002,113.70295933241852L401.57613320668537,113.92343503734912L402.7856998729706,114.14391074227979L403.99526653925574,114.36440522068665L405.204833205541,114.58488092561726L406.4143998718262,114.80535663054786L407.62396653811135,115.02583233547853L408.8335332043966,115.24630804040913L410.0430998706817,115.46678374533974L411.25266653696696,115.6872594502704L412.4622332032522,115.90773515520101L413.6717998695373,116.12821086013162L414.88136653582256,116.34868656506228L416.09093320210775,116.56916226999289L417.30049986839293,116.7896379749235L418.5100665346781,117.01011367985416L419.71963320096336,117.23058938478476L420.9291998672485,117.45106508971537L422.1387665335337,117.67154079464603L423.34833319981897,117.89201649957664L424.5578998661041,118.11249220450725L425.76746653238934,118.33296790943791L426.9770331986746,118.55346238784477L428.1865998649597,118.77393809277538L429.39616653124494,118.99441379770599L430.6057331975301,119.21488950263665L431.8152998638153,119.43536520756726L433.0248665301005,119.65584091249787L434.23443319638574,119.87631661742853L435.44399986267086,120.09679232235914L436.6535665289561,120.31726802728974L437.86313319524135,120.5377437322204L439.0726998615265,120.75821943715101L440.2822665278117,120.97869514208162L441.49183319409684,121.19917084701228L442.7013998603821,121.41964655194289L443.9109665266673,121.6401222568735L445.12053319295245,121.86059796180416L446.3300998592377,122.08107366673474L447.5396665255229,122.30154937166537L448.74923319180806,122.52202507659601L449.95879985809324,122.74250078152662L451.1683665243785,122.96299525993348L452.3779331906636,123.18347096486411L453.58749985694885,123.40394666979475L454.7970665232341,123.62442237472536L456.0066331895192,123.84489807965599L457.21619985580446,124.06537378458663L458.42576652208965,124.28584948951723L459.63533318837483,124.50632519444787L460.84489985466,124.7268008993785L462.05446652094525,124.94727660430911L463.2640331872304,125.16775230923975L464.4735998535156,125.38822801417038L465.68316651980086,125.60870371910099L466.892733186086,125.82917942403162L468.10229985237123,126.04965512896226L469.31186651865636,126.27013083389286L470.5214331849416,126.4906065388235L471.73099985122684,126.71108224375413L472.94056651751197,126.93155794868474L474.1501331837972,127.15203365361538L475.3596998500824,127.37252813202224L476.5692665163676,127.59300383695287L477.77883318265276,127.81347954188348L478.988399848938,128.03395524681412L480.19796651522313,128.25443095174475L481.40753318150837,128.47490665667536L482.6170998477936,128.695382361606L483.82666651407874,128.91585806653663L485.036233180364,129.13633377146724L486.2457998466492,129.35680947639787L487.45536651293435,129.5772851813285L488.6649331792196,129.7977608862591L489.8744998455048,130.01823659118975L491.08406651178996,130.23871229612038L492.29363317807514,130.459188001051L493.5031998443604,130.67966370598162L494.7127665106455,130.90013941091226L495.92233317693075,131.12061511584287L497.131899843216,131.3410908207735L498.3414665095011,131.56158529918036L499.55103317578636,131.782061004111L500.7605998420715,132.0025367090416L501.9701665083567,132.22301241397224L503.17973317464197,132.44348811890288L504.3892998409271,132.66396382383348L505.59886650721234,132.88443952876412L506.8084331734975,133.10491523369475L508.0179998397827,133.32539093862536L509.2275665060679,133.545866643556L510.43713317235313,133.76634234848663L511.64669983863826,133.98681805341724L512.8562665049235,134.20729375834787L514.0658331712087,134.4277694632785L515.2753998374939,134.64824516820912L516.4849665037791,134.86872087313975L517.6945331700643,135.08919657807039L518.9040998363495,135.309672283001L520.1136665026347,135.53014798793163L521.32323316892,135.75062369286226L522.5327998352051,135.97111817126913L523.7423665014903,136.19159387619973L524.9519331677756,136.41206958113037L526.1614998340607,136.632545286061L527.3710665003459,136.8530209909916L528.5806331666311,137.07349669592224L529.7901998329163,137.29397240085288L530.9997664992014,137.5144481057835L532.2093331654867,137.73492381071412L533.4188998317718,137.95539951564476L534.628466498057,138.17587522057536L535.8380331643422,138.396350925506L537.0475998306274,138.61682663043663L538.2571664969126,138.83730233536724L539.4667331631978,139.05777804029788L540.676299829483,139.2782537452285L541.8858664957683,139.49872945015912L543.0954331620534,139.71920515508975L544.3049998283386,139.9396808600204L545.5145664946239,140.16017533842725L546.724133160909,140.38065104335786L547.9336998271942,140.6011267482885L549.1432664934795,140.82160245321913L550.3528331597646,141.04207815814974L551.5623998260498,141.26255386308037L552.7719664923351,141.483029568011L553.9815331586202,141.7035052729416L555.1910998249055,141.92398097787225L556.4006664911906,142.14445668280288L557.6102331574758,142.3649323877335L558.819799823761,142.58540809266412L560.0293664900462,142.80588379759476L561.2389331563313,143.02635950252537L562.4484998226166,143.246835207456L563.6580664889017,143.46731091238664L564.8676331551869,143.68778661731724L566.0771998214722,143.90826232224788L567.2867664877573,144.1287380271785L568.4963331540425,144.34921373210912L569.7058998203278,144.56970821051598L570.9154664866129,144.79018391544662L572.1250331528981,145.01065962037725L573.3345998191834,145.23113532530786L574.5441664854685,145.4516110302385L575.7537331517537,145.67208673516913L576.963299818039,145.89256244009974L578.1728664843241,146.11303814503037L579.3824331506094,146.333513849961L580.5919998168946,146.55398955489161L581.8015664831797,146.77446525982225L583.011133149465,146.99494096475289L584.2206998157502,147.2154166696835L585.4302664820353,147.43589237461413L586.6398331483206,147.65636807954476L587.8493998146057,147.87684378447537L589.058966480891,148.097319489406L590.2685331471761,148.31779519433664L591.4780998134613,148.53827089926725L592.6876664797464,148.7587653776741L593.8972331460317,148.97924108260474L595.1067998123168,149.19971678753538L596.316366478602,149.420192492466L597.5259331448873,149.64066819739662L598.7354998111724,149.86114390232726L599.9450664774577,150.08161960725786L601.1546331437429,150.3020953121885L602.364199810028,150.52257101711913L603.5737664763133,150.74304672204974L604.7833331425985,150.96352242698038L605.9928998088836,151.183998131911L607.2024664751689,151.40447383684162L608.4120331414541,151.62494954177225L609.6215998077392,151.8454252467029L610.8311664740245,152.0659009516335L612.0407331403097,152.28637665656413L613.2502998065949,152.50685236149477L614.4598664728801,152.72732806642537L615.6694331391653,152.947803771356L616.8789998054505,153.16829824976287L618.0885664717357,153.3887739546935L619.2981331380208,153.6092496596241L620.5076998043061,153.82972536455475L621.7172664705912,154.05020106948538L622.9268331368764,154.270676774416L624.1363998031616,154.49115247934662L625.3459664694468,154.71162818427726L626.5555331357319,154.93210388920787L627.7650998020172,155.1525795941385L628.9746664683024,155.37305529906914L630.1842331345875,155.59353100399974L631.3937998008728,155.81400670893038L632.603366467158,156.034482413861L633.8129331334432,156.25495811879162L635.0224997997284,156.47543382372226L636.2320664660136,156.6959095286529L637.4416331322988,156.9163852335835L638.651199798584,157.13686093851413L639.8607664648692,157.357355416921L641.0703331311544,157.57783112185163L642.2798997974396,157.79830682678224L643.4894664637249,158.01878253171287L644.69903313001,158.2392582366435L645.9085997962952,158.45973394157411L647.1181664625803,158.68020964650475L648.3277331288656,158.90068535143538L649.5372997951507,159.121161056366L650.746866461436,159.34163676129663L651.9564331277211,159.56211246622726L653.1659997940063,159.78258817115787L654.3755664602915,160.0030638760885L655.5851331265767,160.22353958101914L656.7946997928619,160.44401528594975L658.0042664591471,160.66449099088038L659.2138331254323,160.88496669581102L660.4233997917175,161.10544240074162L661.6329664580027,161.32591810567226L662.8425331242879,161.5463938106029L664.0520997905732,161.76688828900976L665.2616664568583,161.98736399394036L666.4712331231435,162.207839698871L667.6807997894288,162.42831540380163L668.8903664557139,162.64879110873224L670.0999331219991,162.86926681366288L671.3094997882844,163.0897425185935L672.5190664545695,163.31021822352412L673.7286331208547,163.53069392845475L674.93819978714,163.7511696333854L676.1477664534251,163.971645338316L677.3573331197103,164.19212104324663L678.5668997859955,164.41259674817726L679.7764664522807,164.63307245310787L680.9860331185658,164.8535481580385L682.1955997848511,165.07402386296914L683.4051664511362,165.29449956789975L684.6147331174215,165.51497527283038L685.8242997837066,165.73545097776102L687.0338664499918,165.95594545616788L688.2434331162771,166.1764211610985L689.4529997825622,166.39689686602912L690.6625664488474,166.61737257095976L691.8721331151327,166.83784827589037L693.0816997814178,167.058323980821L694.291266447703,167.27879968575164L695.5008331139883,167.49927539068224L696.7103997802734,167.71975109561288L697.9199664465586,167.9402268005435L699.1295331128439,168.16070250547412L700.339099779129,168.38117821040476L701.5486664454143,168.6016539153354L702.7582331116995,168.822129620266L703.9677997779846,169.04260532519663L705.1773664442699,169.26308103012727L706.3869331105551,169.48355673505787L707.5964997768402,169.7040324399885L708.8060664431255,169.92450814491914L710.0156331094106,170.14498384984975L711.2251997756958,170.36547832825661L712.434766441981,170.58595403318725L713.6443331082662,170.80642973811788L714.8538997745513,171.0269054430485L716.0634664408366,171.24738114797913L717.2730331071217,171.46785685290976L718.482599773407,171.68833255784037L719.6921664396922,171.908808262771L720.9017331059773,172.12928396770164L722.1112997722626,172.34975967263225L723.3208664385478,172.57023537756288L724.5304331048329,172.79071108249352L725.7399997711182,173.01118678742412L726.9495664374034,173.23166249235476L728.1591331036886,173.4521381972854L729.3686997699737,173.672613902216L730.5782664362589,173.89308960714663L731.7878331025441,174.11356531207727L732.9973997688294,174.33404101700788L734.2069664351146,174.55453549541474L735.4165331013998,174.77501120034538L736.6260997676849,174.995486905276L737.8356664339701,175.21596261020662L739.0452331002554,175.43643831513725L740.2547997665405,175.6569140200679L741.4643664328257,175.8773897249985L742.673933099111,176.09786542992913L743.8834997653961,176.31834113485976L745.0930664316812,176.53881683979037L746.3026330979665,176.759292544721L747.5121997642517,176.97976824965164L748.721766430537,177.20024395458225L749.9313330968222,177.42071965951288L751.1408997631072,177.64119536444352L752.3504664293924,177.86167106937413L753.5600330956777,178.08214677430476L754.7695997619629,178.3026224792354L755.9791664282482,178.523098184166L757.1887330945332,178.74357388909664L758.3982997608184,178.9640683675035L759.6078664271037,179.18454407243414L760.8174330933889,179.40501977736474L762.0269997596741,179.62549548229538L763.2365664259594,179.845971187226L764.4461330922444,180.06644689215662L765.6556997585296,180.28692259708725L766.8652664248149,180.5073983020179L768.0748330911001,180.7278740069485L769.2843997573852,180.94834971187913L770.4939664236705,181.16882541680977L771.7035330899556,181.38930112174037L772.9130997562409,181.609776826671L774.122666422526,181.83025253160164L775.3322330888112,182.05072823653225L776.5417997550965,182.2712039414629L777.7513664213817,182.49167964639352L778.9609330876667,182.71215535132413L780.170499753952,182.93263105625476L781.3800664202372,183.15312553466163L782.5896330865224,183.37360123959226L783.7991997528077,183.59407694452287L785.0087664190929,183.8145526494535L786.2183330853779,184.03502835438414L787.4278997516632,184.25550405931475L788.6374664179484,184.47597976424538L789.8470330842337,184.69645546917602L791.0565997505189,184.91693117410662L792.2661664168039,185.13740687903726L793.4757330830892,185.3578825839679L794.6852997493744,185.5783582888985L795.8948664156596,185.79883399382913L797.1044330819449,186.01930969875977L798.31399974823,186.23978540369038L799.5235664145151,186.460261108621L800.7331330808004,186.68073681355165L801.9426997470856,186.90121251848225L803.1522664133707,187.1216882234129L804.361833079656,187.34216392834352L805.5713997459412,187.5626584067504L806.7809664122263,187.783134111681L807.9905330785115,188.00360981661163L809.2000997447967,188.22408552154226L810.409666411082,188.44456122647287L811.6192330773672,188.6650369314035L812.8287997436524,188.88551263633414L814.0383664099375,189.10598834126475L815.2479330762227,189.32646404619538L816.4574997425079,189.54693975112602L817.6670664087932,189.76741545605663L818.8766330750784,189.98789116098726L820.0861997413634,190.2083668659179L821.2957664076487,190.4288425708485L822.5053330739339,190.64931827577914L823.7148997402192,190.86980336744787L824.9244664065044,191.0902790723785L826.1340330727895,191.31075477730914L827.3435997390746,191.53123048223975L828.5531664053599,191.75170618717038L829.7627330716451,191.97218189210102L830.9722997379303,192.19265759703163L832.1818664042155,192.41313330196226L833.3914330705007,192.6336090068929L834.6009997367859,192.85409409856163L835.810566403071,193.07456980349227L837.0201330693562,193.29504550842287L838.2296997356415,193.5155212133535L839.4392664019267,193.73599691828414L840.648833068212,193.95647262321475L841.858399734497,194.1769483281454L843.0679664007822,194.39742403307602L844.2775330670675,194.61789973800663L845.4870997333527,194.83837544293726L846.6966663996379,195.058860534606L847.906233065923,195.27933623953663L849.1157997322082,195.49981194446727L850.3253663984934,195.72028764939787L851.5349330647787,195.9407633543285L852.7444997310639,196.16123905925915L853.9540663973492,196.38171476418975L855.1636330636342,196.6021904691204L856.3731997299194,196.82266617405102L857.5827663962046,197.04314187898163L858.7923330624899,197.2636269706504L860.001899728775,197.484102675581L861.2114663950603,197.70457838051163L862.4210330613454,197.92505408544227L863.6305997276306,198.14552979037288L864.8401663939158,198.3660054953035L866.049733060201,198.58648120023415L867.2592997264862,198.80695690516475L868.4688663927715,199.0274326100954L869.6784330590565,199.24790831502602L870.8879997253417,199.46839340669476L872.097566391627,199.6888691116254L873.3071330579122,199.909344816556L874.5166997241975,200.12982052148664L875.7262663904827,200.35029622641727L876.9358330567677,200.57077193134788L878.145399723053,200.7912476362785L879.3549663893382,201.01172334120915L880.5645330556234,201.23219904613975L881.7740997219087,201.45268413780852L882.9836663881937,201.67315984273912L884.1932330544789,201.89363554766976L885.4027997207642,202.1141112526004L886.6123663870494,202.334586957531L887.8219330533346,202.55506266246164L889.0314997196198,202.77553836739227L890.2410663859049,202.99601407232288L891.4506330521901,203.2164897772535L892.6601997184754,203.43696548218415L893.8697663847605,203.65745057385288L895.0793330510458,203.87792627878352L896.288899717331,204.09840198371413L897.4984663836161,204.31887768864476L898.7080330499012,204.5393533935754L899.9175997161865,204.759829098506L901.1271663824717,204.98030480343664L902.336733048757,205.20078050836727L903.5462997150422,205.42125621329788L904.7558663813272,205.64173191822852L905.9654330476125,205.86221700989725L907.1749997138977,206.08269271482789L908.384566380183,206.30316841975852L909.5941330464682,206.52364412468913L910.8036997127532,206.74411982961976L912.0132663790384,206.9645955345504L913.2228330453237,207.185071239481L914.4323997116089,207.40554694441164L915.6419663778942,207.62602264934227L916.8515330441793,207.84649835427288L918.0610997104644,208.06698344594164L919.2706663767497,208.28745915087225L920.4802330430349,208.5079348558029L921.68979970932,208.72841056073352L922.8993663756053,208.94888626566413L924.1089330418905,209.16936197059476L925.3184997081756,209.3898376755254L926.5280663744608,209.610313380456L927.737633040746,209.83078908538664L928.9471997070312,210.05127417705538L930.1567663733165,210.271749881986L931.3663330396017,210.49222558691665L932.5758997058867,210.71270129184725L933.785466372172,210.9331769967779L934.9950330384572,211.15365270170852L936.2045997047425,211.37412840663913L937.4141663710277,211.59460411156977L938.6237330373127,211.8150798165004L939.833299703598,212.035555521431L941.0428663698832,212.25604061309977L942.2524330361684,212.47651631803038L943.4619997024537,212.696992022961L944.6715663687389,212.91746772789165L945.8811330350239,213.13794343282225L947.0906997013092,213.3584191377529L948.3002663675944,213.57889484268352L949.5098330338797,213.79937054761413L950.7193997001648,214.01984625254477L951.92896636645,214.2403219574754L953.1385330327352,214.46080704914414L954.3480996990204,214.68128275407477L955.5576663653055,214.90175845900538L956.7672330315908,215.122234163936L957.976799697876,215.34270986886665L959.1863663641612,215.56318557379726L960.3959330304463,215.7836612787279L961.6054996967315,216.00413698365853L962.8150663630167,216.22461268858913L964.024633029302,216.44508839351977L965.2341996955872,216.6655734851885L966.4437663618725,216.88604919011914L967.6533330281575,217.10652489504977L968.8628996944427,217.32700059998038L970.072466360728,217.54747630491102L971.2820330270132,217.76795200984165L972.4915996932984,217.98842771477226L973.7011663595835,218.2089034197029L974.9107330258687,218.42937912463353L976.1202996921539,218.64985482956413L977.3298663584392,218.8703399212329L978.5394330247244,219.0908156261635L979.7489996910095,219.31129133109414L980.9585663572947,219.53176703602477L982.1681330235799,219.75224274095538L983.3776996898652,219.97271844588602L984.5872663561503,220.19319415081665L985.7968330224355,220.41366985574726L987.0063996887208,220.6341455606779L988.2159663550059,220.85463065234663L989.425533021291,221.07510635727726L990.6350996875763,221.2955820622079L991.8446663538615,221.5160577671385L993.0542330201467,221.73653347206914L994.263799686432,221.95700917699978L995.473366352717,222.17748488193038L996.6829330190022,222.39796058686102L997.8924996852875,222.61843629179165L999.1020663515727,222.83891199672226L1000.311633017858,223.05939708839102L1001.521199684143,223.27987279332163L1002.7307663504282,223.50034849825227L1003.9403330167135,223.7208242031829L1005.1498996829987,223.9412999081135L1006.3594663492839,224.16177561304414L1007.5690330155691,224.38225131797478L1008.7785996818542,224.60272702290538L1009.9881663481394,224.82320272783602L1011.1977330144247,225.04367843276665L1012.4072996807098,225.2641635244354L1013.616866346995,225.48463922936602L1014.8264330132803,225.70511493429663L1016.0359996795654,225.92559063922727L1017.2455663458505,226.1460663441579L1018.4551330121358,226.3665420490885L1019.664699678421,226.58701775401914L1020.8742663447063,226.80749345894978L1022.0838330109915,227.02796916388039L1023.2933996772765,227.24844486881102L1024.5029663435619,227.46892996047976L1025.712533009847,227.6894056654104L1026.9220996761321,227.90988137034103L1028.1316663424175,228.13035707527163L1029.3412330087026,228.35083278020227L1030.5507996749877,228.5713084851329L1031.7603663412729,228.7917841900635L1032.9699330075582,229.01225989499414L1034.1794996738433,229.23273559992478L1035.3890663401287,229.45322069159351L1036.5986330064136,229.67369639652415L1037.808199672699,229.89417210145476L1039.017766338984,230.1146478063854L1040.2273330052694,230.33512351131603L1041.4368996715546,230.55559921624663L1042.64646633784,230.77607492117727L1043.8560330041248,230.9965506261079L1045.0655996704102,231.2170263310385L1046.2751663366953,231.43750203596915L1047.4847330029806,231.65798712763788L1048.6942996692658,231.87846283256852L1049.9038663355511,232.09893853749915L1051.113433001836,232.31941424242976L1052.3229996681214,232.5398899473604L1053.5325663344065,232.76036565229103L1054.7421330006919,232.98084135722164L1055.951699666977,233.20131706215227L1057.1612663332621,233.4217927670829L1058.3708329995472,233.6422684720135L1059.5803996658326,233.86275356368228L1060.7899663321177,234.08322926861288L1061.9995329984029,234.30370497354352L1063.2090996646882,234.52418067847415L1064.4186663309733,234.74465638340476L1065.6282329972585,234.9651320883354L1066.8377996635436,235.18560779326603L1068.047366329829,235.40608349819664L1069.256932996114,235.62655920312727L1070.4664996623994,235.8470349080579L1071.6760663286843,236.06751999972664L1072.8856329949697,236.28799570465728L1074.0951996612548,236.50847140958788L1075.3047663275402,236.72894711451852L1076.5143329938253,236.94942281944915L1077.7238996601106,237.16989852437976L1078.9334663263955,237.3903742293104L1080.143032992681,237.61084993424103L1081.352599658966,237.83132563917164L1082.5621663252514,238.0518107308404L1083.7717329915365,238.272286435771L1084.9812996578216,238.49276214070164L1086.1908663241068,238.71323784563228L1087.4004329903921,238.93371355056289L1088.6099996566772,239.15418925549352L1089.8195663229624,239.37466496042416L1091.0291329892477,239.59514066535476L1092.2386996555329,239.8156163702854L1093.448266321818,240.03609207521603L1094.657832988103,240.25657716688477L1095.8673996543885,240.4770528718154L1097.0769663206736,240.697528576746L1098.286532986959,240.91800428167664L1099.4960996532438,241.13847998660728L1100.7056663195292,241.3589556915379L1101.9152329858143,241.57943139646852L1103.1247996520997,241.79990710139916L1104.3343663183848,242.02038280632976L1105.5439329846702,242.2408585112604L1106.753499650955,242.46134360292913L1107.9630663172404,242.68181930785977L1109.1726329835255,242.9022950127904L1110.382199649811,243.122770717721L1111.591766316096,243.34324642265165L1112.8013329823812,243.56372212758228L1114.0108996486663,243.7841978325129L1115.2204663149516,244.00467353744352L1116.4300329812368,244.22514924237416L1117.639599647522,244.44562494730476L1118.8491663138072,244.66611003897353L1120.0587329800924,244.88658574390413L1121.2682996463775,245.10706144883477L1122.4778663126626,245.3275371537654L1123.687432978948,245.548012858696L1124.896999645233,245.76848856362665L1126.1065663115185,245.98896426855728L1127.3161329778034,246.2094399734879L1128.5256996440887,246.42991567841852L1129.7352663103738,246.65039138334916L1130.9448329766592,246.8708764750179L1132.1543996429443,247.09135217994853L1133.3639663092297,247.31182788487914L1134.5735329755146,247.53230358980977L1135.7830996418,247.7527792947404L1136.992666308085,247.973254999671L1138.2022329743704,248.19373070460165L1139.4117996406555,248.41420640953228L1140.621366306941,248.6346821144629L1141.8309329732258,248.85516720613165L1143.0404996395112,249.07564291106226L1144.2500663057963,249.2961186159929L1145.4596329720816,249.51659432092353L1146.6691996383668,249.73707002585414L1147.878766304652,249.95754573078477L1149.088332970937,250.17802143571538L1150.2978996372224,250.398497140646L1151.5074663035075,250.61897284557665L1152.7170329697926,250.83944855050726L1153.926599636078,251.05993364217602L1155.136166302363,251.28040934710663L1156.3457329686482,251.50088505203723L1157.5552996349334,251.7213607569679L1158.7648663012187,251.9418364618985L1159.9744329675038,252.1623121668291L1161.1839996337892,252.38278787175977L1162.393566300074,252.60326357669038L1163.6031329663595,252.823739281621L1164.8126996326446,253.04421498655165L1166.02226629893,253.26470007822036L1167.231832965215,253.48517578315102L1168.4413996315004,253.70565148808163L1169.6509662977853,253.92612719301223L1170.8605329640707,254.1466028979429L1172.0700996303558,254.3670786028735L1173.2796662966412,254.5875543078041L1174.4892329629263,254.80803001273478L1175.6987996292114,255.02850571766538L1176.9083662954965,255.248981422596L1178.117932961782,255.46946651426475L1179.327499628067,255.68994221919536L1180.5370662943521,255.91041792412602L1181.7466329606375,256.13089362905663L1182.9561996269226,256.35136933398724L1184.1657662932078,256.5718450389179L1185.3753329594929,256.7923207438485L1186.5848996257782,257.0127964487791L1187.7944662920634,257.2332721537098L1189.0040329583487,257.4537572453785L1190.2135996246336,257.67423295030915L1191.423166290919,257.89470865523975L1192.632732957204,258.11518436017036L1193.8422996234895,258.335660065101L1195.0518662897746,258.55613577003163L1196.26143295606,258.77661147496224L1197.4709996223448,258.9970871798929L1198.6805662886302,259.2175628848235L1199.8901329549153,259.4380385897541L1201.0996996212007,259.6585236814229L1202.3092662874858,259.8789993863535L1203.518832953771,260.09947509128415L1204.728399620056,260.31995079621475L1205.9379662863414,260.54042650114536L1207.1475329526265,260.760902206076L1208.3570996189117,260.98137791100663L1209.566666285197,261.20185361593724L1210.7762329514821,261.4223293208679L1211.9857996177673,261.6428050257985L1213.1953662840524,261.8632901174673L1214.4049329503378,262.0837658223979L1215.6144996166229,262.3042415273285L1216.8240662829082,262.52471723225915L1218.0336329491931,262.74519293718976L1219.2431996154785,262.96566864212036L1220.4527662817636,263.186144347051L1221.662332948049,263.40662005198163L1222.871899614334,263.62709575691224L1224.0814662806195,263.8475714618429L1225.2910329469044,264.0680565535116L1226.5005996131897,264.2885322584423L1227.7101662794748,264.5090079633729L1228.9197329457602,264.7294836683035L1230.1292996120453,264.94995937323415L1231.3388662783307,265.17043507816476L1232.5484329446156,265.39091078309536L1233.757999610901,265.611386488026L1234.967566277186,265.83186219295663L1236.1771329434714,266.0523472846254L1237.3866996097565,266.272822989556L1238.5962662760417,266.4932986944866L1239.8058329423268,266.7137743994173L1241.0153996086121,266.9342501043479L1242.2249662748973,267.1547258092785L1243.4345329411824,267.37520151420915L1244.6440996074678,267.59567721913976L1245.8536662737529,267.81615761743944L1247.063232940038,268.03663332237005L1248.2727996063231,268.2571090273007L1249.4823662726085,268.4775847322313L1250.6919329388936,268.6980604371619L1251.901499605179,268.9185408354616L1253.1110662714639,269.1390165403923L1254.3206329377492,269.3594922453229L1255.5301996040344,269.5799679502535L1256.7397662703197,269.8004483485532L1257.9493329366048,270.02092405348384L1259.1588996028902,270.24139975841445L1260.368466269175,270.46187546334505L1261.5780329354604,270.6823511682757L1262.7875996017456,270.9028315665754L1263.997166268031,271.123307271506L1265.206732934316,271.3437829764366L1266.4162996006012,271.5642586813673L1267.6258662668863,271.7847343862979L1268.8354329331717,272.00521478459757L1270.0449995994568,272.2256904895282L1271.254566265742,272.44616619445884L1272.4641329320273,272.66664189938945L1273.6736995983124,272.88711760432005L1274.8832662645975,273.10759800261974L1276.0928329308827,273.3280737075504L1277.302399597168,273.548549412481L1278.5119662634531,273.7690251174116L1279.7215329297385,273.9895008223423L1280.9310995960234,274.20998122064196L1282.1406662623087,274.43045692557257L1283.3502329285939,274.6509326305032L1284.5597995948792,274.87140833543384L1285.7693662611644,275.09188404036445L1286.9789329274497,275.31236443866413L1288.1884995937346,275.53284014359474L1289.39806626002,275.7533158485254L1290.607632926305,275.973791553456L1291.8171995925904,276.1942672583866L1293.0267662588756,276.4147476566863L1294.2363329251607,276.63522336161697L1295.4458995914458,276.8556990665476L1296.6554662577312,277.0761747714782L1297.8650329240163,277.29665047640884L1299.0745995903014,277.5171308747085L1300.2841662565868,277.73760657963913L1301.493732922872,277.95808228456974L1302.703299589157,278.1785579895004L1303.9128662554422,278.399033694431L1305.1224329217275,278.6195140927307L1306.3319995880126,278.8399897976613L1307.541566254298,279.06046550259197L1308.751132920583,279.2809412075226L1309.9606995868683,279.50142160582226L1311.1702662531534,279.72189731075287L1312.3798329194387,279.94237301568353L1313.5893995857239,280.16284872061414L1314.7989662520092,280.38332442554474L1316.0085329182941,280.6038048238444L1317.2180995845795,280.8242805287751L1318.4276662508646,281.0447562337057L1319.63723291715,281.2652319386363L1320.846799583435,281.48570764356697L1322.0563662497204,281.70618804186665L1323.2659329160053,281.92666374679726L1324.4754995822907,282.14713945172787L1325.6850662485758,282.36761515665853L1326.8946329148612,282.58809086158914L1328.1041995811463,282.8085712598888L1329.3137662474314,283.02904696481943L1330.5233329137166,283.2495226697501" fill="none"></path></g></g></g></g></g></g><g transform="translate(51, 377)" clip-path="url(#clip_1)"><clipPath id="clip_1"><rect width="1451" height="22"></rect></clipPath><g><g><line x1="0" y1="0" x2="0" y2="5" style="visibility: inherit;" fill="rgb(0, 0, 0)" stroke="rgb(204, 204, 204)" stroke-width="1px"></line><line x1="120.95666662851968" y1="0" x2="120.95666662851968" y2="5" style="visibility: inherit;" fill="rgb(0, 0, 0)" stroke="rgb(204, 204, 204)" stroke-width="1px"></line><line x1="241.91333325703937" y1="0" x2="241.91333325703937" y2="5" style="visibility: inherit;" fill="rgb(0, 0, 0)" stroke="rgb(204, 204, 204)" stroke-width="1px"></line><line x1="362.8699998855591" y1="0" x2="362.8699998855591" y2="5" style="visibility: inherit;" fill="rgb(0, 0, 0)" stroke="rgb(204, 204, 204)" stroke-width="1px"></line><line x1="483.82666651407874" y1="0" x2="483.82666651407874" y2="5" style="visibility: inherit;" fill="rgb(0, 0, 0)" stroke="rgb(204, 204, 204)" stroke-width="1px"></line><line x1="604.7833331425985" y1="0" x2="604.7833331425985" y2="5" style="visibility: inherit;" fill="rgb(0, 0, 0)" stroke="rgb(204, 204, 204)" stroke-width="1px"></line><line x1="725.7399997711182" y1="0" x2="725.7399997711182" y2="5" style="visibility: inherit;" fill="rgb(0, 0, 0)" stroke="rgb(204, 204, 204)" stroke-width="1px"></line><line x1="846.6966663996379" y1="0" x2="846.6966663996379" y2="5" style="visibility: inherit;" fill="rgb(0, 0, 0)" stroke="rgb(204, 204, 204)" stroke-width="1px"></line><line x1="967.6533330281575" y1="0" x2="967.6533330281575" y2="5" style="visibility: inherit;" fill="rgb(0, 0, 0)" stroke="rgb(204, 204, 204)" stroke-width="1px"></line><line x1="1088.6099996566772" y1="0" x2="1088.6099996566772" y2="5" style="visibility: inherit;" fill="rgb(0, 0, 0)" stroke="rgb(204, 204, 204)" stroke-width="1px"></line><line x1="1209.566666285197" y1="0" x2="1209.566666285197" y2="5" style="visibility: inherit;" fill="rgb(0, 0, 0)" stroke="rgb(204, 204, 204)" stroke-width="1px"></line><line x1="1330.5233329137166" y1="0" x2="1330.5233329137166" y2="5" style="visibility: inherit;" fill="rgb(0, 0, 0)" stroke="rgb(204, 204, 204)" stroke-width="1px"></line><line x1="1451.4799995422363" y1="0" x2="1451.4799995422363" y2="5" style="visibility: inherit;" fill="rgb(0, 0, 0)" stroke="rgb(204, 204, 204)" stroke-width="1px"></line></g><g transform="translate(0, 8)"><text style="text-anchor: middle; visibility: hidden; font-family: &quot;Helvetica Neue&quot;, sans-serif; font-size: 12px; font-weight: 200;" x="0" y="0" dx="0em" dy="0.95em" fill="rgb(50, 49, 63)" stroke="none" stroke-width="1px">-100</text><text style="text-anchor: middle; visibility: inherit; font-family: &quot;Helvetica Neue&quot;, sans-serif; font-size: 12px; font-weight: 200;" x="120.95666662851968" y="0" dx="0em" dy="0.95em" fill="rgb(50, 49, 63)" stroke="none" stroke-width="1px">0</text><text style="text-anchor: middle; visibility: inherit; font-family: &quot;Helvetica Neue&quot;, sans-serif; font-size: 12px; font-weight: 200;" x="241.91333325703937" y="0" dx="0em" dy="0.95em" fill="rgb(50, 49, 63)" stroke="none" stroke-width="1px">100</text><text style="text-anchor: middle; visibility: inherit; font-family: &quot;Helvetica Neue&quot;, sans-serif; font-size: 12px; font-weight: 200;" x="362.8699998855591" y="0" dx="0em" dy="0.95em" fill="rgb(50, 49, 63)" stroke="none" stroke-width="1px">200</text><text style="text-anchor: middle; visibility: inherit; font-family: &quot;Helvetica Neue&quot;, sans-serif; font-size: 12px; font-weight: 200;" x="483.82666651407874" y="0" dx="0em" dy="0.95em" fill="rgb(50, 49, 63)" stroke="none" stroke-width="1px">300</text><text style="text-anchor: middle; visibility: inherit; font-family: &quot;Helvetica Neue&quot;, sans-serif; font-size: 12px; font-weight: 200;" x="604.7833331425985" y="0" dx="0em" dy="0.95em" fill="rgb(50, 49, 63)" stroke="none" stroke-width="1px">400</text><text style="text-anchor: middle; visibility: inherit; font-family: &quot;Helvetica Neue&quot;, sans-serif; font-size: 12px; font-weight: 200;" x="725.7399997711182" y="0" dx="0em" dy="0.95em" fill="rgb(50, 49, 63)" stroke="none" stroke-width="1px">500</text><text style="text-anchor: middle; visibility: inherit; font-family: &quot;Helvetica Neue&quot;, sans-serif; font-size: 12px; font-weight: 200;" x="846.6966663996379" y="0" dx="0em" dy="0.95em" fill="rgb(50, 49, 63)" stroke="none" stroke-width="1px">600</text><text style="text-anchor: middle; visibility: inherit; font-family: &quot;Helvetica Neue&quot;, sans-serif; font-size: 12px; font-weight: 200;" x="967.6533330281575" y="0" dx="0em" dy="0.95em" fill="rgb(50, 49, 63)" stroke="none" stroke-width="1px">700</text><text style="text-anchor: middle; visibility: inherit; font-family: &quot;Helvetica Neue&quot;, sans-serif; font-size: 12px; font-weight: 200;" x="1088.6099996566772" y="0" dx="0em" dy="0.95em" fill="rgb(50, 49, 63)" stroke="none" stroke-width="1px">800</text><text style="text-anchor: middle; visibility: inherit; font-family: &quot;Helvetica Neue&quot;, sans-serif; font-size: 12px; font-weight: 200;" x="1209.566666285197" y="0" dx="0em" dy="0.95em" fill="rgb(50, 49, 63)" stroke="none" stroke-width="1px">900</text><text style="text-anchor: middle; visibility: inherit; font-family: &quot;Helvetica Neue&quot;, sans-serif; font-size: 12px; font-weight: 200;" x="1330.5233329137166" y="0" dx="0em" dy="0.95em" fill="rgb(50, 49, 63)" stroke="none" stroke-width="1px">1k</text><text style="text-anchor: middle; visibility: hidden; font-family: &quot;Helvetica Neue&quot;, sans-serif; font-size: 12px; font-weight: 200;" x="1451.4799995422363" y="0" dx="0em" dy="0.95em" fill="rgb(50, 49, 63)" stroke="none" stroke-width="1px">1.1k</text></g><line x1="0" y1="0" x2="1451.4799995422363" y2="0" fill="rgb(0, 0, 0)" stroke="rgb(204, 204, 204)" stroke-width="1px"></line></g></g></g></g></svg>