<svg viewBox="0 0 1503 400" xmlns="http://www.w3.org/2000/svg"><g><g><g><g><g><line x1="51.52000045776367" y1="377.95999908447266" x2="46.52000045776367" y2="377.95999908447266" style="visibility: inherit;" fill="rgb(0, 0, 0)" stroke="rgb(204, 204, 204)" stroke-width="1px"></line><line x1="51.52000045776367" y1="346.4633324940999" x2="46.52000045776367" y2="346.4633324940999" style="visibility: inherit;" fill="rgb(0, 0, 0)" stroke="rgb(204, 204, 204)" stroke-width="1px"></line><line x1="51.52000045776367" y1="314.96666590372723" x2="46.52000045776367" y2="314.96666590372723" style="visibility: inherit;" fill="rgb(0, 0, 0)" stroke="rgb(204, 204, 204)" stroke-width="1px"></line><line x1="51.52000045776367" y1="283.4699993133545" x2="46.52000045776367" y2="283.4699993133545" style="visibility: inherit;" fill="rgb(0, 0, 0)" stroke="rgb(204, 204, 204)" stroke-width="1px"></line><line x1="51.52000045776367" y1="251.97333272298178" x2="46.52000045776367" y2="251.97333272298178" style="visibility: inherit;" fill="rgb(0, 0, 0)" stroke="rgb(204, 204, 204)" stroke-width="1px"></line><line x1="51.52000045776367" y1="220.47666613260904" x2="46.52000045776367" y2="220.47666613260904" style="visibility: inherit;" fill="rgb(0, 0, 0)" stroke="rgb(204, 204, 204)" stroke-width="1px"></line><line x1="51.52000045776367" y1="188.97999954223633" x2="46.52000045776367" y2="188.97999954223633" style="visibility: inherit;" fill="rgb(0, 0, 0)" stroke="rgb(204, 204, 204)" stroke-width="1px"></line><line x1="51.52000045776367" y1="157.4833329518636" x2="46.52000045776367" y2="157.4833329518636" style="visibility: inherit;" fill="rgb(0, 0, 0)" stroke="rgb(204, 204, 204)" stroke-width="1px"></line><line x1="51.52000045776367" y1="125.9866663614909" x2="46.52000045776367" y2="125.9866663614909" style="visibility: inherit;" fill="rgb(0, 0, 0)" stroke="rgb(204, 204, 204)" stroke-width="1px"></line><line x1="51.52000045776367" y1="94.48999977111816" x2="46.52000045776367" y2="94.48999977111816" style="visibility: inherit;" fill="rgb(0, 0, 0)" stroke="rgb(204, 204, 204)" stroke-width="1px"></line><line x1="51.52000045776367" y1="62.993333180745424" x2="46.52000045776367" y2="62.993333180745424" style="visibility: inherit;" fill="rgb(0, 0, 0)" stroke="rgb(204, 204, 204)" stroke-width="1px"></line><line x1="51.52000045776367" y1="31.49666659037274" x2="46.52000045776367" y2="31.49666659037274" style="visibility: inherit;" fill="rgb(0, 0, 0)" stroke="rgb(204, 204, 204)" stroke-width="1px"></line><line x1="51.52000045776367" y1="0" x2="46.52000045776367" y2="0" style="visibility: inherit;" fill="rgb(0, 0, 0)" stroke="rgb(204, 204, 204)" stroke-width="1px"></line></g><g transform="translate(41.52000045776367, 0)"><text style="text-anchor: end; visibility: hidden; font-family: &quot;Helvetica Neue&quot;, sans-serif; font-size: 12px; font-weight: 200;" x="0" y="377.95999908447266" dx="0em" dy="0.3em" fill="rgb(50, 49, 63)" stroke="none" stroke-width="1px">-100</text><text style="text-anchor: end; visibility: inherit; font-family: &quot;Helvetica Neue&quot;, sans-serif; font-size: 12px; font-weight: 200;" x="0" y="346.4633324940999" dx="0em" dy="0.3em" fill="rgb(50, 49, 63)" stroke="none" stroke-width="1px">-90</text><text style="text-anchor: end; visibility: inherit; font-family: &quot;Helvetica Neue&quot;, sans-serif; font-size: 12px; font-weight: 200;" x="0" y="314.96666590372723" dx="0em" dy="0.3em" fill="rgb(50, 49, 63)" stroke="none" stroke-width="1px">-80</text><text style="text-anchor: end; visibility: inherit; font-family: &quot;Helvetica Neue&quot;, sans-serif; font-size: 12px; font-weight: 200;" x="0" y="283.4699993133545" dx="0em" dy="0.3em" fill="rgb(50, 49, 63)" stroke="none" stroke-width="1px">-70</text><text style="text-anchor: end; visibility: inherit; font-family: &quot;Helvetica Neue&quot;, sans-serif; font-size: 12px; font-weight: 200;" x="0" y="251.97333272298178" dx="0em" dy="0.3em" fill="rgb(50, 49, 63)" stroke="none" stroke-width="1px">-60</text><text style="text-anchor: end; visibility: inherit; font-family: &quot;Helvetica Neue&quot;, sans-serif; font-size: 12px; font-weight: 200;" x="0" y="220.47666613260904" dx="0em" dy="0.3em" fill="rgb(50, 49, 63)" stroke="none" stroke-width="1px">-50</text><text style="text-anchor: end; visibility: inherit; font-family: &quot;Helvetica Neue&quot;, sans-serif; font-size: 12px; font-weight: 200;" x="0" y="188.97999954223633" dx="0em" dy="0.3em" fill="rgb(50, 49, 63)" stroke="none" stroke-width="1px">-40</text><text style="text-anchor: end; visibility: inherit; font-family: &quot;Helvetica Neue&quot;, sans-serif; font-size: 12px; font-weight: 200;" x="0" y="157.4833329518636" dx="0em" dy="0.3em" fill="rgb(50, 49, 63)" stroke="none" stroke-width="1px">-30</text><text style="text-anchor: end; visibility: inherit; font-family: &quot;Helvetica Neue&quot;, sans-serif; font-size: 12px; font-weight: 200;" x="0" y="125.9866663614909" dx="0em" dy="0.3em" fill="rgb(50, 49, 63)" stroke="none" stroke-width="1px">-20</text><text style="text-anchor: end; visibility: inherit; font-family: &quot;Helvetica Neue&quot;, sans-serif; font-size: 12px; font-weight: 200;" x="0" y="94.48999977111816" dx="0em" dy="0.3em" fill="rgb(50, 49, 63)" stroke="none" stroke-width="1px">-10</text><text style="text-anchor: end; visibility: inherit; font-family: &quot;Helvetica Neue&quot;, sans-serif; font-size: 12px; font-weight: 200;" x="0" y="62.993333180745424" dx="0em" dy="0.3em" fill="rgb(50, 49, 63)" stroke="none" stroke-width="1px">0</text><text style="text-anchor: end; visibility: inherit; font-family: &quot;Helvetica Neue&quot;, sans-serif; font-size: 12px; font-weight: 200;" x="0" y="31.49666659037274" dx="0em" dy="0.3em" fill="rgb(50, 49, 63)" stroke="none" stroke-width="1px">10</text><text style="text-anchor: end; visibility: hidden; font-family: &quot;Helvetica Neue&quot;, sans-serif; font-size: 12px; font-weight: 200;" x="0" y="0" dx="0em" dy="0.3em" fill="rgb(50, 49, 63)" stroke="none" stroke-width="1px">20</text></g><line x1="51.52000045776367" y1="0" x2="51.52000045776367" y2="377.95999908447266" fill="rgb(0, 0, 0)" stroke="rgb(204, 204, 204)" stroke-width="1px"></line></g></g><g transform="translate(51, 0)" clip-path="url(#clip_0)"><clipPath id="clip_0"><rect width="1451" height="377"></rect></clipPath><g><g><g><line x1="0" y1="0" x2="0" y2="377.95999908447266" fill="rgb(0, 0, 0)" stroke="rgb(60, 60, 60)" stroke-width="1px" opacity="0.25"></line><line x1="120.95666662851968" y1="0" x2="120.95666662851968" y2="377.95999908447266" fill="rgb(0, 0, 0)" stroke="rgb(60, 60, 60)" stroke-width="1px" opacity="0.25"></line><line x1="241.91333325703937" y1="0" x2="241.91333325703937" y2="377.95999908447266" fill="rgb(0, 0, 0)" stroke="rgb(60, 60, 60)" stroke-width="1px" opacity="0.25"></line><line x1="362.8699998855591" y1="0" x2="362.8699998855591" y2="377.95999908447266" fill="rgb(0, 0, 0)" stroke="rgb(60, 60, 60)" stroke-width="1px" opacity="0.25"></line><line x1="483.82666651407874" y1="0" x2="483.82666651407874" y2="377.95999908447266" fill="rgb(0, 0, 0)" stroke="rgb(60, 60, 60)" stroke-width="1px" opacity="0.25"></line><line x1="604.7833331425985" y1="0" x2="604.7833331425985" y2="377.95999908447266" fill="rgb(0, 0, 0)" stroke="rgb(60, 60, 60)" stroke-width="1px" opacity="0.25"></line><line x1="725.7399997711182" y1="0" x2="725.7399997711182" y2="377.95999908447266" fill="rgb(0, 0, 0)" stroke="rgb(60, 60, 60)" stroke-width="1px" opacity="0.25"></line><line x1="846.6966663996379" y1="0" x2="846.6966663996379" y2="377.95999908447266" fill="rgb(0, 0, 0)" stroke="rgb(60, 60, 60)" stroke-width="1px" opacity="0.25"></line><line x1="967.6533330281575" y1="0" x2="967.6533330281575" y2="377.95999908447266" fill="rgb(0, 0, 0)" stroke="rgb(60, 60, 60)" stroke-width="1px" opacity="0.25"></line><line x1="1088.6099996566772" y1="0" x2="1088.6099996566772" y2="377.95999908447266" fill="rgb(0, 0, 0)" stroke="rgb(60, 60, 60)" stroke-width="1px" opacity="0.25"></line><line x1="1209.566666285197" y1="0" x2="1209.566666285197" y2="377.95999908447266" fill="rgb(0, 0, 0)" stroke="rgb(60, 60, 60)" stroke-width="1px" opacity="0.25"></line><line x1="1330.5233329137166" y1="0" x2="1330.5233329137166" y2="377.95999908447266" fill="rgb(0, 0, 0)" stroke="rgb(60, 60, 60)" stroke-width="1px" opacity="0.25"></line><line x1="1451.4799995422363" y1="0" x2="1451.4799995422363" y2="377.95999908447266" fill="rgb(0, 0, 0)" stroke="rgb(60, 60, 60)" stroke-width="1px" opacity="0.25"></line></g><g><line x1="0" y1="377.95999908447266" x2="1451.4799995422363" y2="377.95999908447266" fill="rgb(0, 0, 0)" stroke="rgb(60, 60, 60)" stroke-width="1px" opacity="0.25"></line><line x1="0" y1="346.4633324940999" x2="1451.4799995422363" y2="346.4633324940999" fill="rgb(0, 0, 0)" stroke="rgb(60, 60, 60)" stroke-width="1px" opacity="0.25"></line><line x1="0" y1="314.96666590372723" x2="1451.4799995422363" y2="314.96666590372723" fill="rgb(0, 0, 0)" stroke="rgb(60, 60, 60)" stroke-width="1px" opacity="0.25"></line><line x1="0" y1="283.4699993133545" x2="1451.4799995422363" y2="283.4699993133545" fill="rgb(0, 0, 0)" stroke="rgb(60, 60, 60)" stroke-width="1px" opacity="0.25"></line><line x1="0" y1="251.97333272298178" x2="1451.4799995422363" y2="251.97333272298178" fill="rgb(0, 0, 0)" stroke="rgb(60, 60, 60)" stroke-width="1px" opacity="0.25"></line><line x1="0" y1="220.47666613260904" x2="1451.4799995422363" y2="220.47666613260904" fill="rgb(0, 0, 0)" stroke="rgb(60, 60, 60)" stroke-width="1px" opacity="0.25"></line><line x1="0" y1="188.97999954223633" x2="1451.4799995422363" y2="188.97999954223633" fill="rgb(0, 0, 0)" stroke="rgb(60, 60, 60)" stroke-width="1px" opacity="0.25"></line><line x1="0" y1="157.4833329518636" x2="1451.4799995422363" y2="157.4833329518636" fill="rgb(0, 0, 0)" stroke="rgb(60, 60, 60)" stroke-width="1px" opacity="0.25"></line><line x1="0" y1="125.9866663614909" x2="1451.4799995422363" y2="125.9866663614909" fill="rgb(0, 0, 0)" stroke="rgb(60, 60, 60)" stroke-width="1px" opacity="0.25"></line><line x1="0" y1="94.48999977111816" x2="1451.4799995422363" y2="94.48999977111816" fill="rgb(0, 0, 0)" stroke="rgb(60, 60, 60)" stroke-width="1px" opacity="0.25"></line><line x1="0" y1="62.993333180745424" x2="1451.4799995422363" y2="62.993333180745424" fill="rgb(0, 0, 0)" stroke="rgb(60, 60, 60)" stroke-width="1px" opacity="0.25"></line><line x1="0" y1="31.49666659037274" x2="1451.4799995422363" y2="31.49666659037274" fill="rgb(0, 0, 0)" stroke="rgb(60, 60, 60)" stroke-width="1px" opacity="0.25"></line><line x1="0" y1="0" x2="1451.4799995422363" y2="0" fill="rgb(0, 0, 0)" stroke="rgb(60, 60, 60)" stroke-width="1px" opacity="0.25"></line></g></g></g><g><g><line x1="0" y1="62.993333180745424" x2="1451.4799995422363" y2="62.993333180745424" fill="rgb(0, 0, 0)" stroke="rgb(153, 153, 153)" stroke-width="1.5px"></line></g></g><g><g><line x1="120.95666662851968" y1="0" x2="120.95666662851968" y2="377.95999908447266" fill="rgb(0, 0, 0)" stroke="rgb(153, 153, 153)" stroke-width="1.5px"></line></g></g><g><g><g><g><g><path style="fill: none;" stroke="rgb(0, 119, 187)" stroke-width="2px" d="M122.1662332948049,63.00208462516156L123.3757999610901,63.36751376554628L124.58536662737528,64.61792091566195L125.79493329366049,64.21396386100224L127.00449995994568,66.24823493630032L128.21406662623087,69.37311009355767L129.4236332925161,64.14279117203478L130.63319995880127,65.2419294885567L131.84276662508648,69.0662058096649L133.05233329137167,63.80619879442247L134.26189995765685,70.42000849029534L135.47146662394206,62.150762107883395L136.68103329022725,62.18516027905605L137.89059995651246,62.314793995429625L139.10016662279764,70.9341186351752L140.30973328908283,62.20141313450631L141.51929995536804,78.67001637746364L142.72886662165322,76.36241371969527L143.93843328793844,63.12714981535942L145.14799995422365,65.85145244718683L146.35756662050883,66.97537372355697L147.56713328679402,67.75947198865657L148.7766999530792,62.59603024393692L149.98626661936441,70.71488873812768L151.19583328564963,81.5870466246028L152.4053999519348,62.41926904776176L153.61496661822002,69.82645349961365L154.8245332845052,77.65148620519864L156.0340999507904,62.677468832915224L157.2436666170756,64.18930762211858L158.4532332833608,72.64076579792913L159.662799949646,69.39194439585799L160.8723666159312,62.52544699518967L162.0819332822164,81.2306104010056L163.29149994850158,82.24865396476656L164.50106661478677,72.24195032907386L165.71063328107198,66.55246287342072L166.9201999473572,72.80786700803907L168.12976661364237,73.74961591531076L169.3393332799276,73.13184314028297L170.54889994621277,69.58254924727794L171.75846661249795,71.5468954127067L172.96803327878317,71.41039196510735L174.17759994506835,70.76809577354032L175.38716661135356,63.19523882005382L176.59673327763878,84.21427297188427L177.80629994392396,64.66724090281963L179.01586661020914,80.04116499919826L180.22543327649433,73.77161842946083L181.43499994277954,73.43875192981005L182.64456660906473,75.64455653909033L183.85413327534994,63.075834172477414L185.06369994163512,67.3138512397856L186.2732666079203,71.01071216540612L187.48283327420555,72.58631220369432L188.69239994049073,71.13848669749422L189.90196660677591,70.82043922904603L191.1115332730611,63.61876712982354L192.3210999393463,63.316463333216404L193.5306666056315,88.14709696939212L194.74023327191668,63.60088680171822L195.94979993820192,81.47234819418355L197.1593666044871,75.4634660854274L198.3689332707723,86.92592739650001L199.5784999370575,66.07434917961297L200.78806660334268,79.08431095294605L201.99763326962787,78.72528699338432L203.2071999359131,63.09766717387049L204.4167666021983,95.01259027068392L205.62633326848348,70.34937366142213L206.83589993476866,68.14872274683847L208.04546660105387,66.00926341484598L209.25503326733906,85.88019520810616L210.46459993362424,84.76908476418555L211.67416659990948,72.99199350827905L212.88373326619467,87.58403085505881L214.09329993247985,71.03118201295621L215.30286659876506,85.71972403886423L216.51243326505025,90.5506816527103L217.72199993133543,81.68235881252048L218.93156659762067,104.16116356414386L220.14113326390586,80.52587963498576L221.35069993019104,88.51991417741493L222.56026659647623,76.04254822780825L223.76983326276144,111.11549295499043L224.97939992904662,87.97179175016652L226.1889665953318,94.87479295510224L227.39853326161705,72.69782214690946L228.60809992790223,96.12425941325733L229.81766659418741,93.11789595491257L231.02723326047263,79.5986576436265L232.2367999267578,84.22267748172618L233.446366593043,75.35552685739259L234.65593325932818,79.97747485465476L235.86549992561342,88.41112113168089L237.0750665918986,95.76589928381532L238.2846332581838,101.47788412245222L239.494199924469,95.45541302065647L240.70376659075419,113.24086373174066L241.91333325703937,82.42353715624643L243.1228999233246,72.74830402451153L244.3324665896098,94.88364202086149L245.54203325589498,95.15147794976542L246.7515999221802,81.22866847262361L247.96116658846537,103.97057222962678L249.17073325475056,83.34873311405016L250.38029992103574,99.75966348706754L251.58986658732098,131.56715276129327L252.79943325360617,121.00020278739805L254.00899991989135,107.11790497009827L255.21856658617656,104.72925796635258L256.42813325246175,115.20198611582998L257.63769991874693,71.70421564169703L258.8472665850322,96.12257130227408L260.05683325131736,68.33543961132972L261.26639991760254,111.6243743112687L262.4759665838878,89.74189626635865L263.68553325017297,83.05845462071312L264.89509991645815,98.76331755620254L266.10466658274333,87.14946543087444L267.3142332490285,114.25465547860341L268.5237999153137,136.99585335290004L269.7333665815989,93.26004571322505L270.9429332478841,81.86139619882204L272.1524999141693,100.86767105083561L273.3620665804545,89.55027464346568L274.57163324673974,83.76270178198513L275.7811999130249,96.403107112383L276.9907665793101,122.1440571776327L278.2003332455953,90.60990671366557L279.4098999118805,100.96232541614592L280.61946657816566,130.55583610953764L281.82903324445084,96.32782397079342L283.0385999107361,94.00013219157307L284.24816657702127,79.02831943553787L285.45773324330645,81.2945783929975L286.6672999095917,96.83012710099808L287.8768665758769,121.11867693935818L289.08643324216206,109.76593833656295L290.2959999084473,116.92855118593263L291.5055665747325,105.84348931296284L292.71513324101767,153.077519480887L293.92469990730285,114.99902831704588L295.13426657358804,104.9054492936566L296.3438332398732,92.8337286035603L297.5533999061584,87.34142647821778L298.76296657244364,94.57384662162815L299.97253323872883,132.72493256526167L301.182099905014,119.24077061697727L302.39166657129925,136.3700027265169L303.60123323758444,95.02464734806256L304.8107999038696,123.47445083527333L306.02036657015486,140.67981614940655L307.22993323644005,100.72058311733366L308.43949990272523,131.8758547932705L309.6490665690104,114.25733482913199L310.8586332352956,147.6699112653023L312.0681999015808,129.63749772713382L313.27776656786597,100.4866445771238L314.4873332341512,99.28819091047876L315.6968999004364,108.94165957574222L316.9064665667216,145.0054353374099L318.1160332330068,127.00663383109665L319.325599899292,157.66777559744347L320.5351665655772,130.26384697704586L321.7447332318624,109.99393544701331L322.9542998981476,136.598588573182L324.1638665644328,119.45711315337951L325.373433230718,115.87612512685166L326.58299989700316,125.11763163332049L327.79256656328835,114.23305246402765L329.00213322957353,163.92154794150724L330.21169989585877,106.65693953268993L331.42126656214396,93.66665818223117L332.63083322842914,114.44050388208393L333.8403998947144,132.94611114914258L335.04996656099956,114.63833727279427L336.25953322728475,155.37599372356976L337.46909989357,118.63392775981481L338.6786665598552,122.85725703425268L339.88823322614036,146.85218069299313L341.09779989242554,133.63241537276602L342.3073665587107,126.26615386068673L343.5169332249959,115.29141995286824L344.7264998912811,101.89544528279993L345.93606655756633,114.06058879816533L347.1456332238515,163.268369141235L348.3551998901367,147.12475955293365L349.56476655642194,112.41464754817224L350.7743332227071,152.31997216776023L351.9838998889923,115.03233997328135L353.19346655527755,123.18291827372363L354.40303322156274,129.2152477033611L355.6125998878479,129.43378298178783L356.8221665541331,112.18950100235378L358.0317332204183,165.80157491576392L359.2412998867035,160.28762772325885L360.45086655298866,121.57101859272211L361.6604332192739,160.80266377598673L362.8699998855591,170.18067898662824L364.0795665518443,126.22348250013846L365.28913321812945,124.85155290179233L366.4986998844147,175.37718922413234L367.7082665506999,102.11641059999079L368.91783321698506,105.57484537364166L370.12739988327024,119.8549186092132L371.3369665495555,117.28569179035827L372.5465332158406,128.8543403886632L373.75609988212585,112.89272538464036L374.9656665484111,170.60778908792926L376.1752332146962,140.3173288589485L377.38479988098146,129.97880252888376L378.5943665472666,143.9474583368751L379.80393321355183,150.06258330235323L381.01349987983707,149.25648928155496L382.2230665461222,116.34165326992468L383.43263321240744,163.52228266016138L384.6421998786926,137.3384077172284L385.8517665449778,168.80855114037308L387.061333211263,128.8473055916476L388.27089987754823,137.43962829358742L389.48046654383336,153.96363957431143L390.6900332101186,165.9311930032185L391.89959987640384,155.3122720395861L393.10916654268897,97.89004753179302L394.3187332089742,144.38127282200998L395.52829987525945,152.9578438264477L396.7378665415446,174.6566481873645L397.9474332078298,148.26950305500284L399.156999874115,113.08708943694205L400.3665665404002,136.0234173213709L401.57613320668537,125.53151319232566L402.7856998729706,161.314155396401L403.99526653925574,145.88164904289346L405.204833205541,149.2166354443204L406.4143998718262,149.89591688595297L407.62396653811135,130.01695023259794L408.8335332043966,177.83296417139013L410.0430998706817,173.87450611848885L411.25266653696696,168.01330067944946L412.4622332032522,123.52208440106068L413.6717998695373,129.13805116907338L414.88136653582256,164.96684308337424L416.09093320210775,123.9295739668766L417.30049986839293,168.4231331750998L418.5100665346781,148.78091057024358L419.71963320096336,167.30287629355638L420.9291998672485,153.7303198078783L422.1387665335337,113.69371001614587L423.34833319981897,180.55804388433268L424.5578998661041,150.36614891123196L425.76746653238934,174.49362833098857L426.9770331986746,111.60406291185802L428.1865998649597,131.19744444093536L429.39616653124494,157.42884481443252L430.6057331975301,171.319330871128L431.8152998638153,206.47370742883697L433.0248665301005,154.4607852551242L434.23443319638574,145.02993998047288L435.44399986267086,173.97263282596396L436.6535665289561,155.54761033018426L437.86313319524135,175.6036964715085L439.0726998615265,167.69343668944057L440.2822665278117,143.11794102524507L441.49183319409684,143.7192569710033L442.7013998603821,128.6788549440657L443.9109665266673,166.50483834688106L445.12053319295245,161.48726787360212L446.3300998592377,145.4255106416953L447.5396665255229,158.4026024986888L448.74923319180806,167.52415700514806L449.95879985809324,164.0475014464003L451.1683665243785,143.05433348399697L452.3779331906636,157.65634930886637L453.58749985694885,133.53277477216713L454.7970665232341,152.06297078746235L456.0066331895192,157.8461566630158L457.21619985580446,164.66324743693355L458.42576652208965,170.83905428512298L459.63533318837483,158.28652534417463L460.84489985466,165.09134277026752L462.05446652094525,137.89241450286863L463.2640331872304,162.1739145254321L464.4735998535156,187.0749813164126L465.68316651980086,159.41052490594072L466.892733186086,152.7419939060619L468.10229985237123,186.86924804690156L469.31186651865636,151.0317692696762L470.5214331849416,143.6237615539576L471.73099985122684,151.00513195971263L472.94056651751197,139.33961222402334L474.1501331837972,166.624796354403L475.3596998500824,156.5548058284363L476.5692665163676,170.66520889140955L477.77883318265276,190.50457402305062L478.988399848938,172.8230352538788L480.19796651522313,174.4530415772417L481.40753318150837,177.14440713061825L482.6170998477936,162.77144573838086L483.82666651407874,187.12876056738097L485.036233180364,190.58979659389928L486.2457998466492,185.89802553287637L487.45536651293435,184.9593997811115L488.6649331792196,173.89839198777506L489.8744998455048,119.70749425501708L491.08406651178996,174.42956421879836L492.29363317807514,186.55122235568587L493.5031998443604,205.4862406012932L494.7127665106455,206.86727158091915L495.92233317693075,171.8284315016087L497.131899843216,162.31632260677762L498.3414665095011,169.16778836662488L499.55103317578636,160.39543253320383L500.7605998420715,163.38033114975792L501.9701665083567,133.7071608419962L503.17973317464197,169.31930984427504L504.3892998409271,184.99586538135483L505.59886650721234,159.70505521617596L506.8084331734975,181.7522652584948L508.0179998397827,203.6180484264565L509.2275665060679,193.4980453597937L510.43713317235313,139.55987165850772L511.64669983863826,161.95848513091406L512.8562665049235,165.63122589426493L514.0658331712087,204.86776720013222L515.2753998374939,164.9042087591343L516.4849665037791,197.05315903043228L517.6945331700643,187.44748313003464L518.9040998363495,185.5679607868192L520.1136665026347,200.3719251483902L521.32323316892,194.4546335736224L522.5327998352051,175.21115359653365L523.7423665014903,139.69149625510252L524.9519331677756,162.66768398427834L526.1614998340607,177.0228751548486L527.3710665003459,187.1338309078431L528.5806331666311,173.0472596465445L529.7901998329163,214.55510922404017L530.9997664992014,184.8261651711946L532.2093331654867,227.32229859791988L533.4188998317718,181.16468248607367L534.628466498057,207.13819837495078L535.8380331643422,188.91177823146813L537.0475998306274,179.54263010912305L538.2571664969126,180.6386046255621L539.4667331631978,175.35648733641597L540.676299829483,171.95913094129452L541.8858664957683,197.18530027309316L543.0954331620534,171.53379906366268L544.3049998283386,204.28774187830518L545.5145664946239,154.5381620147838L546.724133160909,172.88568159314357L547.9336998271942,157.32711960703224L549.1432664934795,189.93223831709037L550.3528331597646,180.9877972910879L551.5623998260498,161.22243870465235L552.7719664923351,184.1799250477396L553.9815331586202,184.95750140719443L555.1910998249055,182.98810667853587L556.4006664911906,184.64351276430875L557.6102331574758,156.76730355690512L558.819799823761,237.6097670801316L560.0293664900462,181.10910098138652L561.2389331563313,179.4117624590901L562.4484998226166,192.19321366739774L563.6580664889017,187.55694000588846L564.8676331551869,218.70356086397516L566.0771998214722,212.55194026069174L567.2867664877573,201.96062381651865L568.4963331540425,201.43879927478338L569.7058998203278,198.981210058782L570.9154664866129,144.38046180783653L572.1250331528981,178.00999354667343L573.3345998191834,199.83563451680553L574.5441664854685,195.3155942051327L575.7537331517537,192.17272805012763L576.963299818039,206.2802895597376L578.1728664843241,184.46638726882716L579.3824331506094,216.4276748679011L580.5919998168946,176.5143872906323L581.8015664831797,213.31275566056186L583.011133149465,185.00170468340366L584.2206998157502,238.9452731308212L585.4302664820353,191.93576773118258L586.6398331483206,220.076169311222L587.8493998146057,194.90356295994545L589.058966480891,181.2540862855499L590.2685331471761,224.66197986860547L591.4780998134613,183.97909390834369L592.6876664797464,167.34985504049254L593.8972331460317,192.732472010106L595.1067998123168,198.5524418840597L596.316366478602,221.35727132965403L597.5259331448873,202.9433927693688L598.7354998111724,201.63251751950253L599.9450664774577,215.27019543955248L601.1546331437429,178.01667390045768L602.364199810028,192.43275721667305L603.5737664763133,192.96189890850656L604.7833331425985,208.1171705799667L605.9928998088836,212.47136750443752L607.2024664751689,212.66182967743808L608.4120331414541,200.934877119988L609.6215998077392,232.42924884062546L610.8311664740245,209.64954281187093L612.0407331403097,208.66334957695508L613.2502998065949,201.76679743657635L614.4598664728801,203.35246831845726L615.6694331391653,234.49966589773393L616.8789998054505,183.8652515484408L618.0885664717357,190.67631678742546L619.2981331380208,209.84041349571442L620.5076998043061,222.94532118644372L621.7172664705912,218.17665396675292L622.9268331368764,209.32506505234196L624.1363998031616,243.77433988014067L625.3459664694468,226.05435303163492L626.5555331357319,201.4418871361549L627.7650998020172,178.5475697859108L628.9746664683024,224.53772048220804L630.1842331345875,219.61246144440494L631.3937998008728,209.1552687219834L632.603366467158,211.90409012391464L633.8129331334432,243.963660625786L635.0224997997284,224.31641574056678L636.2320664660136,229.38869062172307L637.4416331322988,250.29185403341057L638.651199798584,224.85347533373812L639.8607664648692,231.68581918162914L641.0703331311544,229.7682812999723L642.2798997974396,195.8209581629031L643.4894664637249,213.79604801778962L644.69903313001,216.50644537043652L645.9085997962952,245.6495608444806L647.1181664625803,215.39195570079318L648.3277331288656,195.0707520299242L649.5372997951507,220.02100833240257L650.746866461436,204.78238843396127L651.9564331277211,198.50767390168525L653.1659997940063,223.38895194683354L654.3755664602915,238.86655068838493L655.5851331265767,207.53542710959445L656.7946997928619,196.5337374936554L658.0042664591471,205.70061267362956L659.2138331254323,217.00484061382764L660.4233997917175,231.54793475711776L661.6329664580027,220.05659683583605L662.8425331242879,221.68460866508346L664.0520997905732,223.07614077637749L665.2616664568583,245.4065930131396L666.4712331231435,209.99122608690183L667.6807997894288,233.37238022668728L668.8903664557139,215.90369963672808L670.0999331219991,225.63417559963878L671.3094997882844,226.62981264404104L672.5190664545695,238.16148500354902L673.7286331208547,201.7135708767484L674.93819978714,239.7603003225522L676.1477664534251,180.58651949308938L677.3573331197103,243.71624723527202L678.5668997859955,212.04661234799568L679.7764664522807,227.87981977831174L680.9860331185658,229.23017639964408L682.1955997848511,201.26911107964796L683.4051664511362,218.80739470822638L684.6147331174215,222.9596430959956L685.8242997837066,225.08990699159233L687.0338664499918,226.40459100431764L688.2434331162771,214.78478843796134L689.4529997825622,239.5795222595339L690.6625664488474,225.7168509852316L691.8721331151327,229.60731601283575L693.0816997814178,246.15826497914313L694.291266447703,224.92563757263804L695.5008331139883,243.6570612231473L696.7103997802734,254.31662300813818L697.9199664465586,252.31781549878917L699.1295331128439,263.52611548104903L700.339099779129,229.44480078750107L701.5486664454143,222.93526461069294L702.7582331116995,254.56335154223902L703.9677997779846,232.94083658123807L705.1773664442699,247.72987828201755L706.3869331105551,226.22819842534832L707.5964997768402,222.54900559368423L708.8060664431255,254.1333818650375L710.0156331094106,255.81112388189842L711.2251997756958,234.6129675815212L712.434766441981,242.53530246350493L713.6443331082662,242.62631627630327L714.8538997745513,255.038317487286L716.0634664408366,238.50053698815051L717.2730331071217,248.7883899511556L718.482599773407,270.61192829194914L719.6921664396922,252.11503792537695L720.9017331059773,220.7629120832503L722.1112997722626,253.228157882194L723.3208664385478,252.8718523219914L724.5304331048329,227.266933363679L725.7399997711182,241.93882857273783L726.9495664374034,260.76609607601176L728.1591331036886,238.6921405885063L729.3686997699737,244.3012107322885L730.5782664362589,251.26038518188238L731.7878331025441,232.13913405200122L732.9973997688294,242.97727515047347L734.2069664351146,243.5776659393227L735.4165331013998,238.80184977988077L736.6260997676849,251.60790775896214L737.8356664339701,242.99940682614007L739.0452331002554,224.71556687917715L740.2547997665405,250.10124768011252L741.4643664328257,247.15984946081736L742.673933099111,236.51501809622133L743.8834997653961,240.16834257950856L745.0930664316812,243.1598074071114L746.3026330979665,248.0086148421639L747.5121997642517,260.2499185959287L748.721766430537,261.6063548198057L749.9313330968222,233.0548591665128L751.1408997631072,251.87521803053144L752.3504664293924,255.552884954047L753.5600330956777,262.37172391407194L754.7695997619629,256.7804720520561L755.9791664282482,233.63621815609173L757.1887330945332,288.7463974506997L758.3982997608184,252.33808484561303L759.6078664271037,247.45688490372171L760.8174330933889,261.54846643035853L762.0269997596741,241.3586590706133L763.2365664259594,250.55188319995602L764.4461330922444,238.93616574202898L765.6556997585296,279.29136593114237L766.8652664248149,257.22683022307365L768.0748330911001,253.73944524718684L769.2843997573852,261.96560406108233L770.4939664236705,272.24957617107964L771.7035330899556,262.41615547575225L772.9130997562409,253.795831758535L774.122666422526,259.0387920818845L775.3322330888112,266.66943820699623L776.5417997550965,273.4964473838796L777.7513664213817,237.28971084972605L778.9609330876667,263.43162932608584L780.170499753952,237.61428472945335L781.3800664202372,263.6972214491099L782.5896330865224,264.9686874176589L783.7991997528077,255.68710479599685L785.0087664190929,251.05096329976027L786.2183330853779,244.726446489722L787.4278997516632,263.9498613754084L788.6374664179484,252.82202601417958L789.8470330842337,275.2336036983363L791.0565997505189,275.8171974825265L792.2661664168039,240.001778290819L793.4757330830892,255.1908121819443L794.6852997493744,250.6829430903856L795.8948664156596,258.15670903679006L797.1044330819449,281.5851302841067L798.31399974823,255.6635673624296L799.5235664145151,240.16920766129357L800.7331330808004,245.15162217203155L801.9426997470856,257.09831751789994L803.1522664133707,254.8569146429785L804.361833079656,236.19112907290716L805.5713997459412,277.55634829109863L806.7809664122263,253.54925941975648L807.9905330785115,264.30339146488404L809.2000997447967,273.9525377249787L810.409666411082,266.136643947626L811.6192330773672,254.09539035664568L812.8287997436524,279.7099213347916L814.0383664099375,256.99959005918527L815.2479330762227,254.49754525145397L816.4574997425079,255.91976373606644L817.6670664087932,263.5364003422709L818.8766330750784,249.58642789783093L820.0861997413634,257.7658602803109L821.2957664076487,266.8722037653837L822.5053330739339,271.13676860490716L823.7148997402192,261.2574625298997L824.9244664065044,255.27650333875985L826.1340330727895,265.2595951979194L827.3435997390746,266.1850404674876L828.5531664053599,270.3729975089382L829.7627330716451,277.0464546689817L830.9722997379303,281.2166054436908L832.1818664042155,266.8944555912982L833.3914330705007,275.01233500176943L834.6009997367859,258.49418705314383L835.810566403071,272.2340046989494L837.0201330693562,275.06164466351527L838.2296997356415,251.31756468486685L839.4392664019267,264.2847681764566L840.648833068212,275.7595734236248L841.858399734497,260.3409444237518L843.0679664007822,259.57926394209665L844.2775330670675,265.70907727538287L845.4870997333527,250.99776076998194L846.6966663996379,275.53143213287694L847.906233065923,262.609897750521L849.1157997322082,254.3018445276442L850.3253663984934,277.5848959900041L851.5349330647787,268.6288244200031L852.7444997310639,291.2973794544082L853.9540663973492,285.4410881605087L855.1636330636342,253.31655241958774L856.3731997299194,257.23125175219707L857.5827663962046,287.8553151520362L858.7923330624899,281.17133283027505L860.001899728775,271.63548825396765L861.2114663950603,270.07122814626587L862.4210330613454,253.88471891194519L863.6305997276306,270.60558435885906L864.8401663939158,271.0291860729209L866.049733060201,259.3398765881437L867.2592997264862,247.36720475867526L868.4688663927715,266.77127755713207L869.6784330590565,277.8475204019046L870.8879997253417,260.95583734752483L872.097566391627,274.3825074021802L873.3071330579122,268.1627375782773L874.5166997241975,272.6816364625949L875.7262663904827,286.0761543109072L876.9358330567677,272.67606149109145L878.145399723053,271.48527641401984L879.3549663893382,252.76604801367432L880.5645330556234,277.25155114217876L881.7740997219087,267.3782525795672L882.9836663881937,275.63168549974023L884.1932330544789,266.6940690078195L885.4027997207642,292.65882594362336L886.6123663870494,271.9756576358748L887.8219330533346,272.6205280465035L889.0314997196198,296.2623000890492L890.2410663859049,266.5782922289252L891.4506330521901,279.3370710854506L892.6601997184754,271.6942657552495L893.8697663847605,276.77863976637116L895.0793330510458,282.539892214167L896.288899717331,287.296256048471L897.4984663836161,280.61537360310615L898.7080330499012,278.6433475840182L899.9175997161865,294.8115098754817L901.1271663824717,280.8702122789415L902.336733048757,282.10936984582514L903.5462997150422,288.6314617235407L904.7558663813272,267.67514384217407L905.9654330476125,289.585190361469L907.1749997138977,283.06237758226587L908.384566380183,287.71327352894684L909.5941330464682,273.5588053625494L910.8036997127532,285.3778891301035L912.0132663790384,281.1178419399017L913.2228330453237,275.2450900620373L914.4323997116089,280.8983034069048L915.6419663778942,277.5835503072274L916.8515330441793,273.07484016393335L918.0610997104644,273.23065100543414L919.2706663767497,278.51509920938986L920.4802330430349,286.93126362534383L921.68979970932,274.6781731322582L922.8993663756053,275.13851679213354L924.1089330418905,276.44471819735577L925.3184997081756,286.7352985709886L926.5280663744608,294.6946036842569L927.737633040746,280.1921083097385L928.9471997070312,268.398736695239L930.1567663733165,277.76680346535284L931.3663330396017,264.7824545333851L932.5758997058867,270.68175961603947L933.785466372172,289.83575168847847L934.9950330384572,258.78371310555326L936.2045997047425,285.35400326081725L937.4141663710277,262.43261605971713L938.6237330373127,271.46196726592365L939.833299703598,292.2755226227135L941.0428663698832,279.7616820615949L942.2524330361684,281.9314753887569L943.4619997024537,260.6524099114312L944.6715663687389,289.97017578584973L945.8811330350239,292.9699429955838L947.0906997013092,269.5921170176657L948.3002663675944,263.6125275393521L949.5098330338797,260.4913845491707L950.7193997001648,282.4386536152708L951.92896636645,279.65080741281565L953.1385330327352,273.1062474387392L954.3480996990204,273.90308388293533L955.5576663653055,262.9605682640962L956.7672330315908,286.80140523739345L957.976799697876,282.16932481953654L959.1863663641612,283.75831184825995L960.3959330304463,266.7301861723439L961.6054996967315,259.61332653738157L962.8150663630167,278.28143100723776L964.024633029302,292.4549309729055L965.2341996955872,270.6204349295018L966.4437663618725,286.31534942446353L967.6533330281575,284.2401624025127L968.8628996944427,283.18247977008525L970.072466360728,272.52676279302784L971.2820330270132,285.7192840445394L972.4915996932984,278.7716680487953L973.7011663595835,270.78117193116725L974.9107330258687,293.9866063333718L976.1202996921539,290.9104716260607L977.3298663584392,278.3537133963856L978.5394330247244,285.20804473964574L979.7489996910095,280.7564780542617L980.9585663572947,278.6198702255749L982.1681330235799,289.05117056957L983.3776996898652,283.9104220621249L984.5872663561503,275.36992616962476L985.7968330224355,285.0967135199244L987.0063996887208,282.2474465107332L988.2159663550059,287.5177650455337L989.425533021291,276.5444909632274L990.6350996875763,273.3644983816155L991.8446663538615,260.15071053622233L993.0542330201467,263.0857407923778L994.263799686432,283.0166003378089L995.473366352717,269.52865365671505L996.6829330190022,278.4144613617333L997.8924996852875,268.3789839944812L999.1020663515727,278.90621229641454L1000.311633017858,271.8538733445845L1001.521199684143,292.0960181523231L1002.7307663504282,282.73996640700113L1003.9403330167135,288.89473494678L1005.1498996829987,294.44067815030576L1006.3594663492839,277.85573867886217L1007.5690330155691,280.77519746288743L1008.7785996818542,272.07389247857304L1009.9881663481394,278.85051064147945L1011.1977330144247,292.9548280943956L1012.4072996807098,285.9400000499659L1013.616866346995,269.3200487962788L1014.8264330132803,266.28197768750834L1016.0359996795654,273.0814724576184L1017.2455663458505,299.9865252336332L1018.4551330121358,278.74148630651814L1019.664699678421,281.1547520960623L1020.8742663447063,284.8344014986685L1022.0838330109915,288.0116306245783L1023.2933996772765,283.4728108291558L1024.5029663435619,279.9886699099627L1025.712533009847,293.9384981741052L1026.9220996761321,276.96208516489327L1028.1316663424175,272.8478042554663L1029.3412330087026,277.0474639310642L1030.5507996749877,277.96115850638597L1031.7603663412729,276.91991242787384L1032.9699330075582,269.40636473438354L1034.1794996738433,286.47252997879065L1035.3890663401287,272.7625456395433L1036.5986330064136,280.5677460448312L1037.808199672699,272.91758751945747L1039.017766338984,281.1724382125559L1040.2273330052694,280.3968443321918L1041.4368996715546,282.7275428713663L1042.64646633784,279.5433690611268L1043.8560330041248,275.96849067470566L1045.0655996704102,283.7711198646881L1046.2751663366953,278.39679927528925L1047.4847330029806,278.23212134549203L1048.6942996692658,264.2624923204926L1049.9038663355511,271.63476735248014L1051.113433001836,265.91710541462913L1052.3229996681214,269.2784287503998L1053.5325663344065,285.5608058675348L1054.7421330006919,272.0453928397668L1055.951699666977,285.97138329472216L1057.1612663332621,269.97755901298854L1058.3708329995472,267.93063132934816L1059.5803996658326,274.37327986314L1060.7899663321177,278.9947870591801L1061.9995329984029,277.5976319162835L1063.2090996646882,277.02509195490177L1064.4186663309733,271.80468383308664L1065.6282329972585,279.14213932322747L1066.8377996635436,276.64645046361113L1068.047366329829,273.0198353804362L1069.256932996114,280.14005922234014L1070.4664996623994,266.753038749498L1071.6760663286843,281.05752651544657L1072.8856329949697,275.16771330237776L1074.0951996612548,283.1125763558463L1075.3047663275402,274.75735214563656L1076.5143329938253,268.4046961475358L1077.7238996601106,270.5085269885904L1078.9334663263955,284.7738938338167L1080.143032992681,276.566334278299L1081.352599658966,265.6899253258647L1082.5621663252514,269.6842482277697L1083.7717329915365,283.36832817356577L1084.9812996578216,273.1122309210856L1086.1908663241068,282.8577136499613L1087.4004329903921,266.63810302233907L1088.6099996566772,290.14203870047254L1089.8195663229624,281.3515101420538L1091.0291329892477,276.4439732658187L1092.2386996555329,273.46504010907375L1093.448266321818,284.3178275227673L1094.657832988103,281.7898903366096L1095.8673996543885,291.5959287904363L1097.0769663206736,263.60829825062535L1098.286532986959,286.065196608297L1099.4960996532438,273.85521602416463L1100.7056663195292,274.4521224558242L1101.9152329858143,269.98952597768124L1103.1247996520997,282.5651477962796L1104.3343663183848,273.2604963270171L1105.5439329846702,275.2128177054464L1106.753499650955,281.9402944169541L1107.9630663172404,277.53373601444036L1109.1726329835255,290.677764625892L1110.382199649811,271.34099999631917L1111.591766316096,275.7559689161872L1112.8013329823812,263.53277180478375L1114.0108996486663,275.93763609104013L1115.2204663149516,278.4706916777592L1116.4300329812368,284.5395527902763L1117.639599647522,277.25109457123665L1118.8491663138072,263.80038245197284L1120.0587329800924,267.33704104453113L1121.2682996463775,275.3993629803648L1122.4778663126626,263.38926434866977L1123.687432978948,273.13159914105006L1124.896999645233,278.8348430491509L1126.1065663115185,280.96390544226836L1127.3161329778034,266.08966520068986L1128.5256996440887,265.8476585713322L1129.7352663103738,268.08007420770934L1130.9448329766592,265.64008700302804L1132.1543996429443,265.5331052222813L1133.3639663092297,282.9731059480623L1134.5735329755146,275.8177261436174L1135.7830996418,279.41459202540767L1136.992666308085,267.7936119866218L1138.2022329743704,291.4101044170054L1139.4117996406555,280.1646659931139L1140.621366306941,274.81456769369544L1141.8309329732258,273.4125584807829L1143.0404996395112,277.1664607366028L1144.2500663057963,259.05796806145224L1145.4596329720816,282.053499980543L1146.6691996383668,264.77428431652663L1147.878766304652,284.3526470646141L1149.088332970937,272.30429259398176L1150.2978996372224,276.84568360470973L1151.5074663035075,266.41080278332663L1152.7170329697926,270.7694933270696L1153.926599636078,274.37854244399887L1155.136166302363,259.42207137274477L1156.3457329686482,282.82395143029623L1157.5552996349334,283.0356321370792L1158.7648663012187,277.24828305543537L1159.9744329675038,268.2597468884468L1161.1839996337892,275.337413512538L1162.393566300074,272.70196588454274L1163.6031329663595,276.6460179227186L1164.8126996326446,283.7743398913323L1166.02226629893,270.59491501684386L1167.231832965215,275.6263988888318L1168.4413996315004,263.82471287717635L1169.6509662977853,282.12239413269947L1170.8605329640707,271.7200259684032L1172.0700996303558,286.6263703562256L1173.2796662966412,263.3592748467893L1174.4892329629263,265.3620593293444L1175.6987996292114,280.8597111472734L1176.9083662954965,274.1617673667041L1178.117932961782,261.6677155514177L1179.327499628067,271.29752963662224L1180.5370662943521,265.8656570784704L1181.7466329606375,272.54992776082656L1182.9561996269226,277.827118889808L1184.1657662932078,282.3829279302862L1185.3753329594929,288.0648812144558L1186.5848996257782,276.7532400039612L1187.7944662920634,269.1890609959979L1189.0040329583487,282.09711452053745L1190.2135996246336,272.31686030991403L1191.423166290919,272.62446897463525L1192.632732957204,278.8828791182687L1193.8422996234895,282.4922165957929L1195.0518662897746,258.9428280788719L1196.26143295606,281.95886964528233L1197.4709996223448,272.81050961851236L1198.6805662886302,274.763912349173L1199.8901329549153,281.77013763585177L1201.0996996212007,275.2283170874279L1202.3092662874858,268.936336964526L1203.518832953771,274.81485605429043L1204.728399620056,269.6483473336916L1205.9379662863414,273.4394721363167L1207.1475329526265,272.05140035216266L1208.3570996189117,274.0481532922723L1209.566666285197,276.26929883539464L1210.7762329514821,281.47689894078167L1211.9857996177673,274.1157257917017L1213.1953662840524,283.6502246852324L1214.4049329503378,277.31407733119556L1215.6144996166229,271.6795593649042L1216.8240662829082,274.2027626312939L1218.0336329491931,273.2232016900632L1219.2431996154785,262.8420039994502L1220.4527662817636,281.70494411133114L1221.662332948049,280.54669572139585L1222.871899614334,277.65972556440784L1224.0814662806195,260.68660467198885L1225.2910329469044,277.62899113099024L1226.5005996131897,267.35145907428137L1227.7101662794748,265.1548241817344L1228.9197329457602,270.5317880765874L1230.1292996120453,278.14618988818063L1231.3388662783307,269.65935309640093L1232.5484329446156,273.4076803807174L1233.757999610901,279.24047028612404L1234.967566277186,276.37846735065347L1236.1771329434714,281.4616638893456L1237.3866996097565,270.71083597603575L1238.5962662760417,267.724501564019L1239.8058329423268,273.12657686068707L1241.0153996086121,266.6967844034225L1242.2249662748973,274.0092967020954L1243.4345329411824,262.8817497014616L1244.6440996074678,279.02054727233383L1245.8536662737529,279.1057578281577L1247.063232940038,271.43301105617525L1248.2727996063231,267.57174253881533L1249.4823662726085,276.4820849244585L1250.6919329388936,270.1561022813956L1251.901499605179,275.32818597349785L1253.1110662714639,261.04953051085175L1254.3206329377492,278.4946736672437L1255.5301996040344,269.7098882906755L1256.7397662703197,274.672357860259L1257.9493329366048,270.22492434340336L1259.1588996028902,287.02884965670336L1260.368466269175,263.0855485519811L1261.5780329354604,279.9491885384967L1262.7875996017456,272.12334632061635L1263.997166268031,264.49481483986796L1265.206732934316,270.6760644942881L1266.4162996006012,279.5757135078665L1267.6258662668863,285.4088398339673L1268.8354329331717,279.3287807183442L1270.0449995994568,277.50934551411285L1271.254566265742,260.2379996913352L1272.4641329320273,259.40415697078015L1273.6736995983124,264.1914354638735L1274.8832662645975,261.3456047517728L1276.0928329308827,280.62719638750133L1277.302399597168,270.78117193116725L1278.5119662634531,269.4662476179461L1279.7215329297385,269.996638872358L1280.9310995960234,281.2911706875491L1282.1406662623087,259.12140739235326L1283.3502329285939,276.00727517473376L1284.5597995948792,263.76920346263796L1285.7693662611644,275.52994226980275L1286.9789329274497,275.93160454859463L1288.1884995937346,264.64894357789797L1289.39806626002,259.86674744029153L1290.607632926305,271.31382201024L1291.8171995925904,255.92990441699078L1293.0267662588756,273.41481730544376L1294.2363329251607,263.29499446415286L1295.4458995914458,258.07439410194104L1296.6554662577312,267.71621119691264L1297.8650329240163,274.78851911994667L1299.0745995903014,281.64496510757016L1300.2841662565868,275.1649017865765L1301.493732922872,270.90420578503597L1302.703299589157,278.02241110277487L1303.9128662554422,266.6347388153973L1305.1224329217275,265.5712649410202L1306.3319995880126,274.3315396670131L1307.541566254298,270.9356851499906L1308.751132920583,265.0452711856822L1309.9606995868683,269.55256355605087L1311.1702662531534,271.6868644999777L1312.3798329194387,261.6987503604551L1313.5893995857239,276.71241294971844L1314.7989662520092,297.58460162749253L1316.0085329182941,257.6830887745198L1317.2180995845795,274.48569243509263L1318.4276662508646,267.7115253372438L1319.63723291715,264.9525872844378L1320.846799583435,270.6237510763443L1322.0563662497204,269.6584639845663L1323.2659329160053,253.63823067834016L1324.4754995822907,266.4349049230591L1325.6850662485758,271.8031699399629L1326.8946329148612,277.493870162181L1328.1041995811463,254.58306819792244L1329.3137662474314,260.40375897336367L1330.5233329137166,261.1356542085598" fill="none"></path></g></g></g></g></g></g><g transform="translate(51, 377)" clip-path="url(#clip_1)"><clipPath id="clip_1"><rect width="1451" height="22"></rect></clipPath><g><g><line x1="0" y1="0" x2="0" y2="5" style="visibility: inherit;" fill="rgb(0, 0, 0)" stroke="rgb(204, 204, 204)" stroke-width="1px"></line><line x1="120.95666662851968" y1="0" x2="120.95666662851968" y2="5" style="visibility: inherit;" fill="rgb(0, 0, 0)" stroke="rgb(204, 204, 204)" stroke-width="1px"></line><line x1="241.91333325703937" y1="0" x2="241.91333325703937" y2="5" style="visibility: inherit;" fill="rgb(0, 0, 0)" stroke="rgb(204, 204, 204)" stroke-width="1px"></line><line x1="362.8699998855591" y1="0" x2="362.8699998855591" y2="5" style="visibility: inherit;" fill="rgb(0, 0, 0)" stroke="rgb(204, 204, 204)" stroke-width="1px"></line><line x1="483.82666651407874" y1="0" x2="483.82666651407874" y2="5" style="visibility: inherit;" fill="rgb(0, 0, 0)" stroke="rgb(204, 204, 204)" stroke-width="1px"></line><line x1="604.7833331425985" y1="0" x2="604.7833331425985" y2="5" style="visibility: inherit;" fill="rgb(0, 0, 0)" stroke="rgb(204, 204, 204)" stroke-width="1px"></line><line x1="725.7399997711182" y1="0" x2="725.7399997711182" y2="5" style="visibility: inherit;" fill="rgb(0, 0, 0)" stroke="rgb(204, 204, 204)" stroke-width="1px"></line><line x1="846.6966663996379" y1="0" x2="846.6966663996379" y2="5" style="visibility: inherit;" fill="rgb(0, 0, 0)" stroke="rgb(204, 204, 204)" stroke-width="1px"></line><line x1="967.6533330281575" y1="0" x2="967.6533330281575" y2="5" style="visibility: inherit;" fill="rgb(0, 0, 0)" stroke="rgb(204, 204, 204)" stroke-width="1px"></line><line x1="1088.6099996566772" y1="0" x2="1088.6099996566772" y2="5" style="visibility: inherit;" fill="rgb(0, 0, 0)" stroke="rgb(204, 204, 204)" stroke-width="1px"></line><line x1="1209.566666285197" y1="0" x2="1209.566666285197" y2="5" style="visibility: inherit;" fill="rgb(0, 0, 0)" stroke="rgb(204, 204, 204)" stroke-width="1px"></line><line x1="1330.5233329137166" y1="0" x2="1330.5233329137166" y2="5" style="visibility: inherit;" fill="rgb(0, 0, 0)" stroke="rgb(204, 204, 204)" stroke-width="1px"></line><line x1="1451.4799995422363" y1="0" x2="1451.4799995422363" y2="5" style="visibility: inherit;" fill="rgb(0, 0, 0)" stroke="rgb(204, 204, 204)" stroke-width="1px"></line></g><g transform="translate(0, 8)"><text style="text-anchor: middle; visibility: hidden; font-family: &quot;Helvetica Neue&quot;, sans-serif; font-size: 12px; font-weight: 200;" x="0" y="0" dx="0em" dy="0.95em" fill="rgb(50, 49, 63)" stroke="none" stroke-width="1px">-100</text><text style="text-anchor: middle; visibility: inherit; font-family: &quot;Helvetica Neue&quot;, sans-serif; font-size: 12px; font-weight: 200;" x="120.95666662851968" y="0" dx="0em" dy="0.95em" fill="rgb(50, 49, 63)" stroke="none" stroke-width="1px">0</text><text style="text-anchor: middle; visibility: inherit; font-family: &quot;Helvetica Neue&quot;, sans-serif; font-size: 12px; font-weight: 200;" x="241.91333325703937" y="0" dx="0em" dy="0.95em" fill="rgb(50, 49, 63)" stroke="none" stroke-width="1px">100</text><text style="text-anchor: middle; visibility: inherit; font-family: &quot;Helvetica Neue&quot;, sans-serif; font-size: 12px; font-weight: 200;" x="362.8699998855591" y="0" dx="0em" dy="0.95em" fill="rgb(50, 49, 63)" stroke="none" stroke-width="1px">200</text><text style="text-anchor: middle; visibility: inherit; font-family: &quot;Helvetica Neue&quot;, sans-serif; font-size: 12px; font-weight: 200;" x="483.82666651407874" y="0" dx="0em" dy="0.95em" fill="rgb(50, 49, 63)" stroke="none" stroke-width="1px">300</text><text style="text-anchor: middle; visibility: inherit; font-family: &quot;Helvetica Neue&quot;, sans-serif; font-size: 12px; font-weight: 200;" x="604.7833331425985" y="0" dx="0em" dy="0.95em" fill="rgb(50, 49, 63)" stroke="none" stroke-width="1px">400</text><text style="text-anchor: middle; visibility: inherit; font-family: &quot;Helvetica Neue&quot;, sans-serif; font-size: 12px; font-weight: 200;" x="725.7399997711182" y="0" dx="0em" dy="0.95em" fill="rgb(50, 49, 63)" stroke="none" stroke-width="1px">500</text><text style="text-anchor: middle; visibility: inherit; font-family: &quot;Helvetica Neue&quot;, sans-serif; font-size: 12px; font-weight: 200;" x="846.6966663996379" y="0" dx="0em" dy="0.95em" fill="rgb(50, 49, 63)" stroke="none" stroke-width="1px">600</text><text style="text-anchor: middle; visibility: inherit; font-family: &quot;Helvetica Neue&quot;, sans-serif; font-size: 12px; font-weight: 200;" x="967.6533330281575" y="0" dx="0em" dy="0.95em" fill="rgb(50, 49, 63)" stroke="none" stroke-width="1px">700</text><text style="text-anchor: middle; visibility: inherit; font-family: &quot;Helvetica Neue&quot;, sans-serif; font-size: 12px; font-weight: 200;" x="1088.6099996566772" y="0" dx="0em" dy="0.95em" fill="rgb(50, 49, 63)" stroke="none" stroke-width="1px">800</text><text style="text-anchor: middle; visibility: inherit; font-family: &quot;Helvetica Neue&quot;, sans-serif; font-size: 12px; font-weight: 200;" x="1209.566666285197" y="0" dx="0em" dy="0.95em" fill="rgb(50, 49, 63)" stroke="none" stroke-width="1px">900</text><text style="text-anchor: middle; visibility: inherit; font-family: &quot;Helvetica Neue&quot;, sans-serif; font-size: 12px; font-weight: 200;" x="1330.5233329137166" y="0" dx="0em" dy="0.95em" fill="rgb(50, 49, 63)" stroke="none" stroke-width="1px">1k</text><text style="text-anchor: middle; visibility: hidden; font-family: &quot;Helvetica Neue&quot;, sans-serif; font-size: 12px; font-weight: 200;" x="1451.4799995422363" y="0" dx="0em" dy="0.95em" fill="rgb(50, 49, 63)" stroke="none" stroke-width="1px">1.1k</text></g><line x1="0" y1="0" x2="1451.4799995422363" y2="0" fill="rgb(0, 0, 0)" stroke="rgb(204, 204, 204)" stroke-width="1px"></line></g></g></g></g></svg>