<svg viewBox="0 0 1503 400" xmlns="http://www.w3.org/2000/svg"><g><g><g><g><g><line x1="41.140000343322754" y1="377.95999908447266" x2="36.140000343322754" y2="377.95999908447266" style="visibility: inherit;" fill="rgb(0, 0, 0)" stroke="rgb(204, 204, 204)" stroke-width="1px"></line><line x1="41.140000343322754" y1="343.59999916770244" x2="36.140000343322754" y2="343.59999916770244" style="visibility: inherit;" fill="rgb(0, 0, 0)" stroke="rgb(204, 204, 204)" stroke-width="1px"></line><line x1="41.140000343322754" y1="309.23999925093216" x2="36.140000343322754" y2="309.23999925093216" style="visibility: inherit;" fill="rgb(0, 0, 0)" stroke="rgb(204, 204, 204)" stroke-width="1px"></line><line x1="41.140000343322754" y1="274.87999933416194" x2="36.140000343322754" y2="274.87999933416194" style="visibility: inherit;" fill="rgb(0, 0, 0)" stroke="rgb(204, 204, 204)" stroke-width="1px"></line><line x1="41.140000343322754" y1="240.5199994173917" x2="36.140000343322754" y2="240.5199994173917" style="visibility: inherit;" fill="rgb(0, 0, 0)" stroke="rgb(204, 204, 204)" stroke-width="1px"></line><line x1="41.140000343322754" y1="206.15999950062147" x2="36.140000343322754" y2="206.15999950062147" style="visibility: inherit;" fill="rgb(0, 0, 0)" stroke="rgb(204, 204, 204)" stroke-width="1px"></line><line x1="41.140000343322754" y1="171.79999958385122" x2="36.140000343322754" y2="171.79999958385122" style="visibility: inherit;" fill="rgb(0, 0, 0)" stroke="rgb(204, 204, 204)" stroke-width="1px"></line><line x1="41.140000343322754" y1="137.43999966708097" x2="36.140000343322754" y2="137.43999966708097" style="visibility: inherit;" fill="rgb(0, 0, 0)" stroke="rgb(204, 204, 204)" stroke-width="1px"></line><line x1="41.140000343322754" y1="103.07999975031072" x2="36.140000343322754" y2="103.07999975031072" style="visibility: inherit;" fill="rgb(0, 0, 0)" stroke="rgb(204, 204, 204)" stroke-width="1px"></line><line x1="41.140000343322754" y1="68.71999983354044" x2="36.140000343322754" y2="68.71999983354044" style="visibility: inherit;" fill="rgb(0, 0, 0)" stroke="rgb(204, 204, 204)" stroke-width="1px"></line><line x1="41.140000343322754" y1="34.35999991677028" x2="36.140000343322754" y2="34.35999991677028" style="visibility: inherit;" fill="rgb(0, 0, 0)" stroke="rgb(204, 204, 204)" stroke-width="1px"></line><line x1="41.140000343322754" y1="0" x2="36.140000343322754" y2="0" style="visibility: inherit;" fill="rgb(0, 0, 0)" stroke="rgb(204, 204, 204)" stroke-width="1px"></line></g><g transform="translate(31.140000343322754, 0)"><text style="text-anchor: end; visibility: hidden; font-family: &quot;Helvetica Neue&quot;, sans-serif; font-size: 12px; font-weight: 200;" x="0" y="377.95999908447266" dx="0em" dy="0.3em" fill="rgb(50, 49, 63)" stroke="none" stroke-width="1px">-50</text><text style="text-anchor: end; visibility: inherit; font-family: &quot;Helvetica Neue&quot;, sans-serif; font-size: 12px; font-weight: 200;" x="0" y="343.59999916770244" dx="0em" dy="0.3em" fill="rgb(50, 49, 63)" stroke="none" stroke-width="1px">0</text><text style="text-anchor: end; visibility: inherit; font-family: &quot;Helvetica Neue&quot;, sans-serif; font-size: 12px; font-weight: 200;" x="0" y="309.23999925093216" dx="0em" dy="0.3em" fill="rgb(50, 49, 63)" stroke="none" stroke-width="1px">50</text><text style="text-anchor: end; visibility: inherit; font-family: &quot;Helvetica Neue&quot;, sans-serif; font-size: 12px; font-weight: 200;" x="0" y="274.87999933416194" dx="0em" dy="0.3em" fill="rgb(50, 49, 63)" stroke="none" stroke-width="1px">100</text><text style="text-anchor: end; visibility: inherit; font-family: &quot;Helvetica Neue&quot;, sans-serif; font-size: 12px; font-weight: 200;" x="0" y="240.5199994173917" dx="0em" dy="0.3em" fill="rgb(50, 49, 63)" stroke="none" stroke-width="1px">150</text><text style="text-anchor: end; visibility: inherit; font-family: &quot;Helvetica Neue&quot;, sans-serif; font-size: 12px; font-weight: 200;" x="0" y="206.15999950062147" dx="0em" dy="0.3em" fill="rgb(50, 49, 63)" stroke="none" stroke-width="1px">200</text><text style="text-anchor: end; visibility: inherit; font-family: &quot;Helvetica Neue&quot;, sans-serif; font-size: 12px; font-weight: 200;" x="0" y="171.79999958385122" dx="0em" dy="0.3em" fill="rgb(50, 49, 63)" stroke="none" stroke-width="1px">250</text><text style="text-anchor: end; visibility: inherit; font-family: &quot;Helvetica Neue&quot;, sans-serif; font-size: 12px; font-weight: 200;" x="0" y="137.43999966708097" dx="0em" dy="0.3em" fill="rgb(50, 49, 63)" stroke="none" stroke-width="1px">300</text><text style="text-anchor: end; visibility: inherit; font-family: &quot;Helvetica Neue&quot;, sans-serif; font-size: 12px; font-weight: 200;" x="0" y="103.07999975031072" dx="0em" dy="0.3em" fill="rgb(50, 49, 63)" stroke="none" stroke-width="1px">350</text><text style="text-anchor: end; visibility: inherit; font-family: &quot;Helvetica Neue&quot;, sans-serif; font-size: 12px; font-weight: 200;" x="0" y="68.71999983354044" dx="0em" dy="0.3em" fill="rgb(50, 49, 63)" stroke="none" stroke-width="1px">400</text><text style="text-anchor: end; visibility: inherit; font-family: &quot;Helvetica Neue&quot;, sans-serif; font-size: 12px; font-weight: 200;" x="0" y="34.35999991677028" dx="0em" dy="0.3em" fill="rgb(50, 49, 63)" stroke="none" stroke-width="1px">450</text><text style="text-anchor: end; visibility: hidden; font-family: &quot;Helvetica Neue&quot;, sans-serif; font-size: 12px; font-weight: 200;" x="0" y="0" dx="0em" dy="0.3em" fill="rgb(50, 49, 63)" stroke="none" stroke-width="1px">500</text></g><line x1="41.140000343322754" y1="0" x2="41.140000343322754" y2="377.95999908447266" fill="rgb(0, 0, 0)" stroke="rgb(204, 204, 204)" stroke-width="1px"></line></g></g><g transform="translate(41, 0)" clip-path="url(#clip_0)"><clipPath id="clip_0"><rect width="1461" height="377"></rect></clipPath><g><g><g><line x1="0" y1="0" x2="0" y2="377.95999908447266" fill="rgb(0, 0, 0)" stroke="rgb(60, 60, 60)" stroke-width="1px" opacity="0.25"></line><line x1="121.82166663805643" y1="0" x2="121.82166663805643" y2="377.95999908447266" fill="rgb(0, 0, 0)" stroke="rgb(60, 60, 60)" stroke-width="1px" opacity="0.25"></line><line x1="243.64333327611286" y1="0" x2="243.64333327611286" y2="377.95999908447266" fill="rgb(0, 0, 0)" stroke="rgb(60, 60, 60)" stroke-width="1px" opacity="0.25"></line><line x1="365.4649999141693" y1="0" x2="365.4649999141693" y2="377.95999908447266" fill="rgb(0, 0, 0)" stroke="rgb(60, 60, 60)" stroke-width="1px" opacity="0.25"></line><line x1="487.2866665522257" y1="0" x2="487.2866665522257" y2="377.95999908447266" fill="rgb(0, 0, 0)" stroke="rgb(60, 60, 60)" stroke-width="1px" opacity="0.25"></line><line x1="609.1083331902822" y1="0" x2="609.1083331902822" y2="377.95999908447266" fill="rgb(0, 0, 0)" stroke="rgb(60, 60, 60)" stroke-width="1px" opacity="0.25"></line><line x1="730.9299998283386" y1="0" x2="730.9299998283386" y2="377.95999908447266" fill="rgb(0, 0, 0)" stroke="rgb(60, 60, 60)" stroke-width="1px" opacity="0.25"></line><line x1="852.7516664663951" y1="0" x2="852.7516664663951" y2="377.95999908447266" fill="rgb(0, 0, 0)" stroke="rgb(60, 60, 60)" stroke-width="1px" opacity="0.25"></line><line x1="974.5733331044514" y1="0" x2="974.5733331044514" y2="377.95999908447266" fill="rgb(0, 0, 0)" stroke="rgb(60, 60, 60)" stroke-width="1px" opacity="0.25"></line><line x1="1096.394999742508" y1="0" x2="1096.394999742508" y2="377.95999908447266" fill="rgb(0, 0, 0)" stroke="rgb(60, 60, 60)" stroke-width="1px" opacity="0.25"></line><line x1="1218.2166663805644" y1="0" x2="1218.2166663805644" y2="377.95999908447266" fill="rgb(0, 0, 0)" stroke="rgb(60, 60, 60)" stroke-width="1px" opacity="0.25"></line><line x1="1340.0383330186207" y1="0" x2="1340.0383330186207" y2="377.95999908447266" fill="rgb(0, 0, 0)" stroke="rgb(60, 60, 60)" stroke-width="1px" opacity="0.25"></line><line x1="1461.8599996566772" y1="0" x2="1461.8599996566772" y2="377.95999908447266" fill="rgb(0, 0, 0)" stroke="rgb(60, 60, 60)" stroke-width="1px" opacity="0.25"></line></g><g><line x1="0" y1="377.95999908447266" x2="1461.8599996566772" y2="377.95999908447266" fill="rgb(0, 0, 0)" stroke="rgb(60, 60, 60)" stroke-width="1px" opacity="0.25"></line><line x1="0" y1="343.59999916770244" x2="1461.8599996566772" y2="343.59999916770244" fill="rgb(0, 0, 0)" stroke="rgb(60, 60, 60)" stroke-width="1px" opacity="0.25"></line><line x1="0" y1="309.23999925093216" x2="1461.8599996566772" y2="309.23999925093216" fill="rgb(0, 0, 0)" stroke="rgb(60, 60, 60)" stroke-width="1px" opacity="0.25"></line><line x1="0" y1="274.87999933416194" x2="1461.8599996566772" y2="274.87999933416194" fill="rgb(0, 0, 0)" stroke="rgb(60, 60, 60)" stroke-width="1px" opacity="0.25"></line><line x1="0" y1="240.5199994173917" x2="1461.8599996566772" y2="240.5199994173917" fill="rgb(0, 0, 0)" stroke="rgb(60, 60, 60)" stroke-width="1px" opacity="0.25"></line><line x1="0" y1="206.15999950062147" x2="1461.8599996566772" y2="206.15999950062147" fill="rgb(0, 0, 0)" stroke="rgb(60, 60, 60)" stroke-width="1px" opacity="0.25"></line><line x1="0" y1="171.79999958385122" x2="1461.8599996566772" y2="171.79999958385122" fill="rgb(0, 0, 0)" stroke="rgb(60, 60, 60)" stroke-width="1px" opacity="0.25"></line><line x1="0" y1="137.43999966708097" x2="1461.8599996566772" y2="137.43999966708097" fill="rgb(0, 0, 0)" stroke="rgb(60, 60, 60)" stroke-width="1px" opacity="0.25"></line><line x1="0" y1="103.07999975031072" x2="1461.8599996566772" y2="103.07999975031072" fill="rgb(0, 0, 0)" stroke="rgb(60, 60, 60)" stroke-width="1px" opacity="0.25"></line><line x1="0" y1="68.71999983354044" x2="1461.8599996566772" y2="68.71999983354044" fill="rgb(0, 0, 0)" stroke="rgb(60, 60, 60)" stroke-width="1px" opacity="0.25"></line><line x1="0" y1="34.35999991677028" x2="1461.8599996566772" y2="34.35999991677028" fill="rgb(0, 0, 0)" stroke="rgb(60, 60, 60)" stroke-width="1px" opacity="0.25"></line><line x1="0" y1="0" x2="1461.8599996566772" y2="0" fill="rgb(0, 0, 0)" stroke="rgb(60, 60, 60)" stroke-width="1px" opacity="0.25"></line></g></g></g><g><g><line x1="0" y1="343.59999916770244" x2="1461.8599996566772" y2="343.59999916770244" fill="rgb(0, 0, 0)" stroke="rgb(153, 153, 153)" stroke-width="1.5px"></line></g></g><g><g><line x1="121.82166663805643" y1="0" x2="121.82166663805643" y2="377.95999908447266" fill="rgb(0, 0, 0)" stroke="rgb(153, 153, 153)" stroke-width="1.5px"></line></g></g><g><g><g><g><g><path style="fill: none;" stroke="rgb(0, 119, 187)" stroke-width="2px" d="M123.039883304437,343.5999990643977L124.25809997081757,343.5432696632367L125.47631663719812,343.4642994877147L126.6945333035787,343.27988450058535L127.91274996995925,343.4209397310996L129.13096663633982,331.630330439067L130.3491833027204,343.17321770463633L131.56739996910096,343.3228307116525L132.78561663548152,343.0767080420035L134.00383330186207,343.4161531705043L135.22204996824266,343.3855433451819L136.4402666346232,343.57788260383086L137.65848330100377,343.5905926576999L138.87669996738433,343.5919966971875L140.0949166337649,343.5812462262348L141.31313330014547,343.594415439439L142.53134996652602,343.47687364806933L143.74956663290658,342.95581814642804L144.96778329928716,343.5481885717195L146.18599996566772,343.5940612409028L147.40421663204827,343.5599581870699L148.62243329842886,343.56623209850704L149.84064996480942,343.582989292303L151.05886663118997,343.58044771135644L152.27708329757056,343.1731641695088L153.4952999639511,343.5948641791748L154.71351663033167,343.5873928663031L155.93173329671225,343.48579811152246L157.1499499630928,343.599359600194L158.36816662947336,343.5167601238457L159.58638329585392,343.42493262421357L160.8045999622345,343.59610142251273L162.02281662861506,343.5965741582712L163.24103329499562,343.15240191994627L164.4592499613762,343.2170266832308L165.67746662775676,343.44877025590597L166.8956832941373,343.3404878009385L168.1138999605179,343.47051848161374L169.33211662689845,343.54225029419723L170.550333293279,343.58635331279L171.76854995965957,343.5687138556382L172.98676662604015,343.5329751131944L174.2049832924207,343.57611412188913L175.42319995880126,343.5594565256513L176.64141662518185,343.5886699845045L177.8596332915624,343.0567594280744L179.07784995794296,343.45549960504985L180.29606662432354,343.08799178869555L181.51428329070407,342.3751831167066L182.73249995708466,343.5708798010854L183.9507166234652,343.58236932982385L185.1689332898458,343.5982082409499L186.38714995622635,343.5564287368437L187.6053666226069,343.5627455542074L188.8235832889875,343.5746413477984L190.04179995536805,343.5979229053379L191.2600166217486,343.2234715015689L192.47823328812916,343.59616314138253L193.69644995450975,343.5983021642248L194.9146666208903,343.35867551058357L196.13288328727086,343.53743774428403L197.35109995365144,343.54964828459083L198.569316620032,343.5846878639526L199.78753328641255,343.01737817726377L201.00574995279314,343.568730779927L202.2239666191737,343.5074151618318L203.44218328555425,343.29981075018424L204.66039995193483,343.59629899681664L205.8786166183154,343.4592828018476L207.09683328469595,343.5703322333973L208.3150499510765,343.5120770597182L209.5332666174571,343.59486327804797L210.75148328383764,343.3713931753906L211.9696999502182,343.51225780733404L213.18791661659878,343.5370823930991L214.40613328297934,342.4200528444955L215.6243499493599,343.4171316918728L216.84256661574048,343.45763858325176L218.06078328212104,343.3581180817004L219.2789999485016,343.43223007240186L220.49721661488218,343.36518852784076L221.71543328126273,343.55141284970273L222.9336499476433,343.51866795788817L224.15186661402382,343.488737218695L225.37008328040443,343.541648320975L226.58829994678499,343.5361182846403L227.8065166131655,343.4408982471841L229.02473327954613,343.4915284796221L230.24294994592665,343.387884390842L231.4611666123072,343.51284270010626L232.67938327868782,343.5418488217012L233.89759994506835,343.4940418862742L235.1158166114489,343.5130799627123L236.33403327782946,343.5736928247382L237.55224994421005,343.56818355784156L238.7704666105906,343.42612968932565L239.98868327697116,343.42724798775816L241.20689994335174,343.4642951766418L242.4251166097323,342.8928850030601L243.64333327611286,343.3760078665177L244.86154994249344,343.0348730637151L246.079766608874,343.3784804766992L247.29798327525455,343.43348470723214L248.51619994163514,343.5563221683525L249.7344166080157,343.4950054264087L250.95263327439625,343.5584805463821L252.1708499407768,343.136836878585L253.3890666071574,343.3539369759538L254.60728327353794,343.4975111632424L255.8254999399185,343.2929884006524L257.0437166062991,343.2140618529825L258.26193327267964,343.4070528132322L259.4801499390602,343.522798646611L260.6983666054408,343.5470227081249L261.91658327182137,343.5353935431236L263.1347999382019,343.27905521811283L264.3530166045825,343.4519265141714L265.57123327096303,342.0256574711528L266.7894499373436,343.4368888777848L268.00766660372415,343.52055792811467L269.22588327010476,343.5446334521779L270.4440999364853,343.4360897318616L271.6623166028658,343.52030935534253L272.8805332692464,343.44504842789536L274.098749935627,343.2899611059286L275.31696660200754,343.3482225209353L276.53518326838815,343.40276840557925L277.75339993476865,343.42063027594406L278.9716166011492,342.55743037149506L280.1898332675298,343.4384642932968L281.4080499339104,343.4145827931105L282.62626660029093,342.957726569275L283.8444832666715,343.14545509202696L285.06269993305204,343.49750471199326L286.2809165994326,343.2185718290725L287.49913326581316,343.4682707845042L288.71734993219377,343.5597135260076L289.9355665985743,342.93296155516333L291.1537832649549,343.4366009984734L292.37199993133544,343.2843415149922L293.590216597716,343.26645703453534L294.80843326409655,343.50131905910814L296.02664993047716,343.3945152713963L297.2448665968577,340.1167722642135L298.4630832632383,343.11493912725905L299.68129992961883,343.51083353537246L300.8995165959994,343.4350395709078L302.11773326237994,340.776950908702L303.3359499287605,342.9119958557322L304.5541665951411,343.25303583541296L305.77238326152167,343.56556692608376L306.9905999279022,343.29682423145084L308.2088165942828,343.3291189591987L309.42703326066334,343.3125527249363L310.6452499270439,343.3094027131184L311.8634665934245,343.41187472257667L313.08168325980506,343.24909721471215L314.2998999261856,343.49462741393125L315.5181165925662,343.3558290556363L316.73633325894673,343.4534604676079L317.9545499253273,343.5401981569763L319.17276659170784,343.305998173923L320.39098325808845,343.1859384209866L321.609199924469,341.5618255218979L322.82741659084957,343.53990043695006L324.0456332572301,343.2660150522909L325.2638499236107,343.31867872868753L326.48206658999123,296.4714340474863L327.7002832563718,343.42036698305986L328.9184999227524,343.0836807158796L330.13671658913296,343.13216007114505L331.3549332555135,343.3801419498264L332.57314992189407,343.1593412111683L333.7913665882746,343.52131247337826L335.0095832546552,343.4192193160838L336.2277999210358,343.3443160950395L337.44601658741635,343.1797004522231L338.6642332537969,342.3371966873934L339.88244992017746,343.0920326463346L341.100666586558,343.48445442897435L342.3188832529386,343.44067343651284L343.53709991931913,343.39235567991744L344.75531658569975,342.96047885646544L345.9735332520803,343.28778783370564L347.19174991846086,343.3646181964594L348.4099665848414,343.3968416737449L349.62818325122197,341.0656727736567L350.8463999176025,343.0405482787549L352.06461658398314,342.5842103871849L353.2828332503637,343.3431133569243L354.50104991674425,343.33876687391876L355.7192665831248,342.04187251170185L356.93748324950536,342.95949228639563L358.1556999158859,342.7323527756467L359.3739165822665,343.27529373028034L360.5921332486471,343.3344548385355L361.81034991502764,343.44758100397337L363.02856658140814,340.0519196387145L364.24678324778876,343.08656636984523L365.4649999141693,342.6119714023421L366.6832165805499,343.49665116053603L367.9014332469304,343.4566005977506L369.119649913311,343.45207413513515L370.3378665796916,343.35198587246197L371.5560832460721,343.4545200289533L372.7742999124527,343.2240176663663L373.9925165788333,343.3769531485932L375.2107332452138,343.2908434729652L376.4289499115944,343.37049565303863L377.647166577975,343.37624113549333L378.8653832443555,343.3159248030846L380.0835999107361,343.3238564602605L381.3018165771166,314.33074865266343L382.5200332434972,343.22116605041975L383.73824990987777,343.40843131204537L384.9564665762583,343.45206323969217L386.1746832426389,343.4047353402316L387.3928999090195,343.17905786685174L388.6111165754,342.99338161956166L389.8293332417806,343.38733548170364L391.04754990816116,343.4359797943848L392.2657665745417,343.1675709160529L393.48398324092227,343.33725326751716L394.7021999073029,343.44205366589915L395.9204165736834,343.5077425166436L397.138633240064,343.40545439850507L398.35684990644455,343.24962969876543L399.5750665728251,343.0999660033634L400.79328323920566,343.39019434762537L402.0114999055863,343.2904144751397L403.2297165719668,343.39121190417103L404.4479332383474,343.43020200448416L405.66614990472794,343.4364244595296L406.8843665711085,342.62697270693224L408.10258323748906,343.4088755471069L409.32079990386967,343.03946823725363L410.53901657025017,343.27931949404456L411.7572332366308,341.67950154852934L412.9754499030113,343.35687778297927L414.1936665693919,343.1133969715201L415.41188323577245,343.41679602211764L416.630099902153,343.48720093052077L417.84831656853356,343.282182005434L419.0665332349142,343.3486608577119L420.2847499012947,343.46163982202927L421.5029665676753,343.05912398495343L422.72118323405584,343.1784680793222L423.9393999004364,343.382222692705L425.15761656681696,343.4935134572918L426.37583323319757,343.28426911764114L427.59404989957807,343.2667836520615L428.8122665659587,342.85904629683944L430.03048323233924,343.47985613221203L431.2486998987198,343.2054203740835L432.46691656510035,343.34340296680875L433.68513323148096,343.33530249170786L434.90334989786146,343.2070824616153L436.1215665642421,342.76228919296307L437.33978323062263,343.4179022782185L438.5579998970032,343.3323073303486L439.77621656338374,343.2085444170637L440.99443322976435,343.42042678511507L442.21264989614485,343.1440509315785L443.43086656252547,343.38687308074384L444.64908322890597,343.458420792086L445.8672998952866,342.77398008515434L447.08551656166713,343.0874570518251L448.30373322804763,343.18394049985835L449.52194989442825,343.34175451906077L450.74016656080886,343.1568588114722L451.95838322718936,343.2769101880249L453.17659989356997,343.0905149848621L454.3948165599505,343.07704625129793L455.613033226331,343.23314767890406L456.83124989271164,343.1752366793648L458.04946655909225,343.0801825823718L459.26768322547275,343.21448177809896L460.4858998918533,343.4076112046827L461.7041165582339,343.3062722393692L462.9223332246144,342.80213685884405L464.14054989099503,342.943232640067L465.35876655737565,343.1484353233525L466.57698322375614,343.1381379009684L467.7951998901367,342.6791449210278L469.0134165565173,343.162011823497L470.2316332228978,343.3139406651013L471.4498498892784,342.77153164155675L472.6680665556589,343.2792659179567L473.88628322203954,342.32100360157136L475.1044998884201,343.00935401122376L476.32271655480065,343.1975330974054L477.5409332211812,343.24976474491336L478.7591498875618,343.26860499328563L479.9773665539423,343.1387393621867L481.19558322032293,343.3826923641202L482.4137998867035,343.2371877582972L483.63201655308404,343.10362920692774L484.8502332194646,342.11105644441085L486.0684498858452,343.26229991105123L487.2866665522257,342.21895491693544L488.5048832186063,342.9531946794182L489.7230998849869,343.3354661691138L490.94131655136744,343.15550413108036L492.159533217748,342.98787196610215L493.3777498841286,343.3021716206352L494.5959665505091,342.90092674107393L495.8141832168897,343.21136125770556L497.0323998832703,343.1336992777415L498.25061654965083,342.4909396612069L499.4688332160314,343.22461925046554L500.687049882412,343.21884224905097L501.9052665487925,334.74460127197744L503.1234832151731,343.09906110815535L504.3416998815536,342.78038799825146L505.5599165479342,343.045845184355L506.7781332143148,343.25087120581577L507.99634988069533,343.25589101490664L509.2145665470759,343.3901850905949L510.4327832134565,343.13528001809414L511.650999879837,341.402147808509L512.8692165462176,342.7249232304529L514.0874332125982,343.2178089023051L515.3056498789787,343.15739629268353L516.5238665453593,342.53840029255787L517.7420832117399,343.04109833478196L518.9602998781204,343.00154308456683L520.178516544501,343.3049360730383L521.3967332108816,343.1776446541743L522.6149498772621,342.77273751313584L523.8331665436427,342.67468639108944L525.0513832100232,343.1491384480647L526.2695998764038,343.26647843629826L527.4878165427843,343.19067564488637L528.706033209165,343.36433923625594L529.9242498755455,342.67414424040254L531.1424665419261,343.21434058790425L532.3606832083067,343.1157830735232L533.5788998746872,342.82370541214414L534.7971165410678,343.2432954732692L536.0153332074483,341.53511874324556L537.2335498738289,342.32971045312803L538.4517665402095,342.2072225729087L539.66998320659,343.2681738040834L540.8881998729706,343.30844026867226L542.1064165393511,343.0338545036418L543.3246332057316,342.87022338287954L544.5428498721122,342.9625343268317L545.7610665384929,343.19320412493323L546.9792832048734,343.0623499371894L548.197499871254,343.34962242151136L549.4157165376346,343.45276368150394L550.6339332040151,342.5993096688408L551.8521498703957,343.3036818682912L553.0703665367763,343.11126691242606L554.2885832031568,343.06075264887085L555.5067998695373,342.991039181251L556.7250165359179,342.60346558399567L557.9432332022984,343.14732366049054L559.161449868679,341.57258890878893L560.3796665350596,343.02383315375914L561.5978832014401,343.3453379524179L562.8160998678208,341.91054228321445L564.0343165342013,343.18561176250006L565.2525332005819,342.93944430275013L566.4707498669625,342.70845628398627L567.688966533343,343.2707021407691L568.9071831997236,342.8919417690002L570.1253998661041,343.1313639665251L571.3436165324847,343.0807334166447L572.5618331988652,342.8305323492309L573.7800498652458,342.96156115078384L574.9982665316263,342.82547776483534L576.2164831980069,342.3757552503416L577.4346998643875,343.0397683534581L578.652916530768,343.1011212479971L579.8711331971487,343.03961184410673L581.0893498635293,342.989552321933L582.3075665299098,342.7118273176466L583.5257831962904,343.25853057931903L584.7439998626709,342.4682875438187L585.9622165290515,342.75355121156946L587.180433195432,343.1882653762994L588.3986498618126,342.9698708511574L589.6168665281931,342.2183575517483L590.8350831945737,342.9730204533722L592.0532998609543,342.85551281458254L593.2715165273348,343.052875120747L594.4897331937154,343.06399641884246L595.7079498600959,343.0262146682073L596.9261665264765,343.16468944003907L598.1443831928572,341.83899788965755L599.3625998592377,343.15290265975796L600.5808165256183,343.2295243706834L601.7990331919988,342.684625492666L603.0172498583794,342.8909158770311L604.2354665247599,342.28467835866314L605.4536831911405,341.71332591864086L606.671899857521,342.32394348698983L607.8901165239016,343.3769625694649L609.1083331902822,342.58590663561677L610.3265498566627,343.08423404873156L611.5447665230433,343.0549691347667L612.762983189424,342.89979082970734L613.9811998558044,343.0903640051529L615.1994165221851,342.45258549021446L616.4176331885656,343.42674071477677L617.6358498549462,343.03838143730087L618.8540665213267,342.44238571721365L620.0722831877073,342.828650468666L621.2904998540878,343.02623998167996L622.5087165204684,343.26997609876247L623.726933186849,342.9678367620739L624.9451498532295,343.055234557587L626.1633665196101,342.55452677691284L627.3815831859906,343.24351489765945L628.5997998523712,342.0061110465251L629.8180165187518,343.3015958415324L631.0362331851323,343.0962866204759L632.254449851513,342.9606243474929L633.4726665178935,343.2230949124623L634.690883184274,342.6882496610532L635.9090998506546,342.8490909749794L637.1273165170352,342.7161633762528L638.3455331834157,342.70253071952084L639.5637498497963,342.43108026155636L640.7819665161769,342.51131979202074L642.0001831825574,342.3165166451766L643.218399848938,342.4974963421564L644.4366165153186,343.04821953074855L645.6548331816991,342.41548609741335L646.8730498480796,284.44911984931286L648.0912665144602,342.7827944165691L649.3094831808407,343.08660474965734L650.5276998472214,342.84680932177145L651.745916513602,342.4780039851404L652.9641331799825,342.97140542923864L654.1823498463631,342.93666686592826L655.4005665127436,342.6112752408829L656.6187831791242,343.27752102915457L657.8369998455048,342.4783650093285L659.0552165118853,342.4863887248051L660.2734331782659,342.8947420616761L661.4916498446464,343.03921850223264L662.709866511027,342.74770715812446L663.9280831774075,342.66395347867035L665.1462998437881,341.7111012821869L666.3645165101686,343.1360135353577L667.5827331765493,343.2351492045397L668.8009498429299,342.5663265416128L670.0191665093104,343.2696817170016L671.237383175691,343.12548386800574L672.4555998420716,342.6982700278884L673.6738165084521,342.92749556539616L674.8920331748327,342.70043748374707L676.1102498412132,341.97849232749104L677.3284665075938,342.7736399507252L678.5466831739743,343.1135605260451L679.7648998403549,341.7092855934859L680.9831165067354,342.35056154560687L682.201333173116,342.30253345009635L683.4195498394967,342.7023151863602L684.6377665058772,343.0702304144557L685.8559831722578,342.6737425016645L687.0741998386383,343.22111702092656L688.2924165050189,340.8156056464624L689.5106331713995,341.9660974094608L690.72884983778,342.8764013447863L691.9470665041606,342.84302270478764L693.1652831705411,343.3823386718279L694.3834998369217,342.94853630411853L695.6017165033022,342.8571563061328L696.8199331696828,342.6213054381929L698.0381498360633,342.55754546997116L699.2563665024439,342.95389432250386L700.4745831688246,342.72864832504837L701.692799835205,342.75515194055424L702.9110165015857,343.00318850125177L704.1292331679663,85.09990924210581L705.3474498343468,342.59156268123064L706.5656665007274,342.86531387990834L707.7838831671079,343.0171735395461L709.0020998334885,342.85445923344264L710.220316499869,342.6671727134152L711.4385331662496,342.70417658676917L712.6567498326301,342.4013875580951L713.8749664990107,342.21158058624195L715.0931831653913,343.23392830052614L716.3113998317718,342.62044633661344L717.5296164981524,343.22896665507807L718.747833164533,342.7798387204703L719.9660498309136,342.02289690997935L721.1842664972942,343.0709407481828L722.4024831636747,343.15870743226395L723.6206998300553,342.89334531504403L724.8389164964358,343.0429054218175L726.0571331628163,342.1108386993934L727.2753498291969,343.0728580594174L728.4935664955775,341.1325141042137L729.711783161958,342.9467345419235L730.9299998283386,342.772230178714L732.1482164947192,342.16306965057606L733.3664331610998,342.97688092179817L734.5846498274802,343.1610032167795L735.8028664938608,342.6049150875093L737.0210831602415,343.038007305813L738.239299826622,342.478370334169L739.4575164930026,342.8672878392542L740.6757331593832,343.06439307850184L741.8939498257637,342.80221599416643L743.1121664921442,342.9927601697112L744.3303831585248,342.2771423166587L745.5485998249054,342.9783276809709L746.766816491286,342.64191003151535L747.9850331576666,341.92375657132175L749.203249824047,342.9789620333196L750.4214664904276,342.85736602292917L751.6396831568082,342.8711272131195L752.8578998231887,342.71786560489016L754.0761164895694,342.65254586799546L755.29433315595,342.67962161713643L756.5125498223305,342.9774397433319L757.730766488711,209.07531463027846L758.9489831550916,341.63861267152265L760.1671998214722,342.72601211938155L761.3854164878528,342.9523593757798L762.6036331542332,342.71169943955323L763.8218498206138,342.7143336791251L765.0400664869944,341.90873314816326L766.258283153375,342.93694699350056L767.4764998197555,342.2443676774177L768.6947164861361,342.42456806350543L769.9129331525166,342.956349278791L771.1311498188973,342.8651663408653L772.3493664852778,343.0709467693486L773.5675831516584,343.1422431891779L774.785799818039,342.6372788129024L776.0040164844196,343.08985568768355L777.2222331508,342.71212436182776L778.4404498171806,343.4280386446567L779.6586664835612,342.7836628570997L780.8768831499418,343.06923131053054L782.0950998163223,341.9532232557826L783.3133164827029,343.1090641078183L784.5315331490834,342.4199479860973L785.749749815464,341.9415158156254L786.9679664818445,342.38355794397586L788.1861831482252,342.75079245264976L789.4043998146058,341.06423834353774L790.6226164809864,341.31862072149977L791.8408331473668,341.5111553224357L793.0590498137474,343.3970898727542L794.277266480128,343.28471634280544L795.4954831465086,342.7788704186996L796.7136998128891,340.81856920694105L797.9319164792696,343.4402052703892L799.1501331456502,341.3685754262356L800.3683498120308,342.38275725180097L801.5865664784113,342.80872499731305L802.8047831447919,342.9663933206864L804.0229998111726,342.9390917163862L805.2412164775529,341.42164835758746L806.4594331439336,337.3166716102906L807.6776498103142,340.51975422963756L808.8958664766948,343.0965798963083L810.1140831430754,343.27033812647824L811.3322998094559,342.80148558988657L812.5505164758364,343.29866095327196L813.768733142217,342.909098569038L814.9869498085976,343.08147528981186L816.2051664749781,343.23710120915837L817.4233831413587,342.7901223801897L818.6415998077393,342.70457283682543L819.8598164741197,342.0455176517687L821.0780331405003,342.63102302640334L822.296249806881,343.1405606214902L823.5144664732616,342.89994746193963L824.7326831396422,343.06119538888095L825.9508998060226,342.0005170148233L827.1691164724032,86.02226468420758L828.3873331387838,343.11570377435953L829.6055498051643,343.0998195292884L830.8237664715449,343.08564513147275L832.0419831379255,343.24137926796305L833.260199804306,341.6580971641589L834.4784164706865,342.81370388705244L835.6966331370671,342.9456623648021L836.9148498034477,342.6632616590042L838.1330664698283,343.20579901120567L839.351283136209,343.25995173829693L840.5694998025893,343.0885729745595L841.78771646897,342.582452124841L843.0059331353506,343.10900799219115L844.2241498017311,342.62015560032035L845.4423664681117,341.7050773310525L846.6605831344923,342.5981717913793L847.8787998008728,343.30008493851136L849.0970164672533,342.7892984225577L850.3152331336339,342.7667244574444L851.5334498000145,343.1031938397737L852.7516664663951,343.2514212208825L853.9698831327755,343.03761457834355L855.1880997991561,342.8741870303309L856.4063164655367,343.00356705645333L857.6245331319174,341.9406495869516L858.8427497982979,343.21755642294323L860.0609664646785,343.37478194486596L861.279183131059,343.019327888105L862.4973997974396,343.37185295489047L863.7156164638201,342.68995934446735L864.9338331302007,342.4507539089124L866.1520497965813,341.44902377236946L867.3702664629619,342.6735884908922L868.5884831293423,342.8495839732921L869.8066997957229,341.2724687721105L871.0249164621035,342.70322884707497L872.2431331284841,342.8328626632893L873.4613497948646,341.7797535500489L874.6795664612453,342.76656381110155L875.8977831276258,342.82633105005056L877.1159997940064,343.18150340226714L878.3342164603869,342.9721479987311L879.5524331267675,343.26659158915953L880.7706497931481,342.84091668939664L881.9888664595287,343.08397755525914L883.2070831259091,343.27882182625626L884.4252997922897,343.2334613939321L885.6435164586703,341.0823441120791L886.8617331250509,342.66218825307345L888.0799497914314,342.40280232726434L889.2981664578119,342.7131141268018L890.5163831241925,343.0924739117735L891.7345997905732,342.9804974715674L892.9528164569537,342.7558725143592L894.1710331233343,343.1106496814877L895.3892497897149,342.799469359499L896.6074664560953,343.18885958754254L897.8256831224759,343.4340397399371L899.0438997888565,343.2989497644304L900.2621164552371,342.19896775935297L901.4803331216177,343.2468564808556L902.6985497879982,343.2924275311031L903.9167664543787,342.97147162110247L905.1349831207593,343.2694616986869L906.3531997871399,341.55174928519745L907.5714164535204,343.0852429831316L908.789633119901,342.82340582842374L910.0078497862817,343.18293881543354L911.226066452662,342.49052014569355L912.4442831190427,343.19044135190296L913.6624997854233,343.05904169568703L914.8807164518039,343.2440521740692L916.0989331181845,343.3936498414486L917.3171497845649,341.52125564379946L918.5353664509455,342.8179685108748L919.7535831173261,342.860718460608L920.9717997837066,343.3332886574985L922.1900164500872,343.12604801438L923.4082331164678,343.3410042695099L924.6264497828483,343.04146796063554L925.8446664492288,342.78765116265873L927.0628831156095,343.07788192357907L928.2810997819901,343.14420658076324L929.4993164483707,343.22726368915505L930.7175331147513,343.33520873355417L931.9357497811317,342.89717592340264L933.1539664475123,342.58938793443644L934.3721831138929,343.1290415578069L935.5903997802734,343.21422135243665L936.808616446654,343.35949539266454L938.0268331130346,342.71300230515067L939.2450497794151,342.73824548994213L940.4632664457956,337.2731986291337L941.6814831121762,343.2752962902998L942.8996997785569,343.04443135727297L944.1179164449375,343.33289222312084L945.3361331113178,343.2515052714423L946.5543497776985,343.34023618174314L947.7725664440791,343.0532771462072L948.9907831104597,342.9661882324053L950.2089997768402,343.41596596139925L951.4272164432208,343.14369687064334L952.6454331096013,343.1405018844031L953.8636497759819,342.9651851143695L955.0818664423624,342.24503967229293L956.300083108743,343.1086480739314L957.5182997751236,343.2295104032171L958.7365164415042,343.2118649466596L959.9547331078846,343.2302851675146L961.1729497742652,343.21998029035376L962.3911664406459,342.85083481929354L963.6093831070265,343.3754276637012L964.827599773407,343.2400736580247L966.0458164397876,342.547750794454L967.2640331061681,343.1453655527854L968.4822497725487,343.40789254058427L969.7004664389292,342.36680689678667L970.9186831053098,342.9200416897772L972.1368997716904,343.16103991721883L973.355116438071,343.08789884974806L974.5733331044514,343.1497777156508L975.791549770832,343.06716646025285L977.0097664372126,343.1009178800491L978.2279831035933,342.31314397310376L979.4461997699738,343.27551159817875L980.6644164363543,342.9771198023365L981.8826331027349,342.9380070054094L983.1008497691155,343.08536959145533L984.319066435496,343.25266158104415L985.5372831018766,343.1482429737283L986.7554997682572,342.4282855394829L987.9737164346376,343.0309130207712L989.1919331010182,343.05802264409L990.4101497673988,342.43190290845837L991.6283664337794,343.3571943037886L992.84658310016,342.75703038045293L994.0647997665405,343.28344313247374L995.283016432921,342.48668413057374L996.5012330993017,342.62779093012057L997.7194497656823,343.2105906303995L998.9376664320628,343.3839052399126L1000.1558830984434,343.0693931447224L1001.374099764824,342.99833204188434L1002.5923164312044,343.3070186181706L1003.810533097585,340.9188177677944L1005.0287497639656,343.21502540335706L1006.2469664303462,343.4189683522535L1007.4651830967268,343.37037174809547L1008.6833997631072,343.2134777589364L1009.9016164294878,343.0805058411524L1011.1198330958684,343.26358217361184L1012.3380497622489,342.9267101923779L1013.5562664286296,343.22597900993605L1014.7744830950102,342.87864580603116L1015.9926997613907,343.1575371142354L1017.2109164277712,343.2369024287653L1018.4291330941518,343.2621545019444L1019.6473497605324,343.29693197755097L1020.865566426913,343.30986865714516L1022.0837830932936,343.0160789571341L1023.301999759674,342.9975866051701L1024.5202164260545,342.76112002182333L1025.7384330924351,343.0351238637042L1026.9566497588157,342.96689623139457L1028.1748664251963,342.8856952395315L1029.393083091577,343.4401811652457L1030.6112997579573,343.28458785030733L1031.829516424338,342.851147674155L1033.0477330907186,342.8365694076651L1034.2659497570992,343.1220687610499L1035.4841664234798,343.22416946528176L1036.7023830898602,343.13244359842327L1037.9205997562408,342.44945858001233L1039.1388164226214,342.1224414449936L1040.357033089002,343.4785834748446L1041.5752497553826,343.2267987896162L1042.7934664217632,343.3564068417944L1044.0116830881436,343.34074990597367L1045.2298997545242,342.22787197681225L1046.4481164209049,342.7215096799889L1047.6663330872855,342.84951909215823L1048.8845497536659,342.86315297769954L1050.1027664200465,343.14164983810133L1051.320983086427,343.30808536805074L1052.5391997528077,342.439389060803L1053.757416419188,343.15923749965884L1054.9756330855687,342.49547478692836L1056.1938497519493,343.40920202127205L1057.41206641833,342.4757947497636L1058.6302830847103,342.96094031533806L1059.848499751091,343.31642578865814L1061.0667164174715,343.1892686172161L1062.2849330838521,342.73253185412983L1063.5031497502328,343.05327247673165L1064.7213664166134,343.40078090885044L1065.9395830829937,343.2235908189571L1067.1577997493744,343.00964159357284L1068.376016415755,343.28052511986175L1069.5942330821356,343.2560191387619L1070.8124497485162,342.4471620991715L1072.0306664148966,343.3288618103613L1073.2488830812772,342.6197614802003L1074.4670997476578,343.2506856146431L1075.6853164140384,342.853097221155L1076.903533080419,342.87601025572934L1078.1217497467994,342.8050162049217L1079.33996641318,343.0447682558374L1080.5581830795606,343.1842112884796L1081.7763997459413,343.21352469945367L1082.9946164123216,343.1779536997268L1084.2128330787023,343.1128573603726L1085.4310497450829,342.9480427733218L1086.6492664114633,343.096869526673L1087.8674830778439,342.6784064066062L1089.0856997442245,343.44476490061714L1090.303916410605,342.9838495815637L1091.5221330769857,343.16142727888746L1092.7403497433663,343.34122006891255L1093.9585664097467,342.7633526864984L1095.1767830761273,342.9934301575312L1096.394999742508,342.8070630736225L1097.6132164088885,343.11358604431933L1098.8314330752692,343.1531945839001L1100.0496497416495,343.28149362643404L1101.2678664080302,342.18348214003623L1102.4860830744108,343.24581469628555L1103.7042997407914,343.1054017644205L1104.922516407172,342.5579644120402L1106.1407330735526,343.121443706692L1107.358949739933,343.04706465475766L1108.5771664063136,342.91480356222445L1109.7953830726942,342.6567467575727L1111.0135997390746,342.989668976901L1112.2318164054552,342.8455300493136L1113.4500330718358,343.2044987261079L1114.6682497382164,343.47102783333094L1115.8864664045968,342.1936769977996L1117.1046830709774,343.2803863872857L1118.322899737358,343.4224585804211L1119.5411164037387,343.25153898177894L1120.7593330701193,342.8336795757476L1121.9775497364997,343.0217239434638L1123.1957664028803,342.75777561236566L1124.413983069261,343.362644687677L1125.6321997356415,343.05721228528154L1126.8504164020221,343.03947835445064L1128.0686330684025,343.1538210309086L1129.2868497347831,343.3053081565106L1130.5050664011637,343.1015073808564L1131.7232830675443,342.5224165139291L1132.941499733925,342.419317361137L1134.1597164003056,343.34024636038066L1135.377933066686,343.26873764325535L1136.5961497330666,342.4202746855442L1137.8143663994472,343.3354559290358L1139.0325830658278,343.18202621968686L1140.2507997322082,342.394988574346L1141.4690163985888,343.21827183574896L1142.6872330649694,343.06965672432875L1143.90544973135,343.31062967925806L1145.1236663977304,343.2701333249193L1146.341883064111,343.16712977349493L1147.5600997304916,343.0368432137519L1148.7783163968722,342.80117633953256L1149.9965330632526,342.954823793899L1151.2147497296332,342.9329915381116L1152.4329663960139,342.96789046104266L1153.6511830623945,342.89357715040876L1154.869399728775,342.63091480925954L1156.0876163951557,342.88743744543325L1157.305833061536,342.36050924884887L1158.5240497279167,343.4248979308295L1159.7422663942973,341.1292879062159L1160.960483060678,342.8820466587985L1162.1786997270585,343.14198309119803L1163.396916393439,342.71905132399587L1164.6151330598195,343.2606711242529L1165.8333497262001,343.25331432457284L1167.0515663925808,343.4762720844502L1168.2697830589614,343.3904024464894L1169.4879997253418,343.22840975867894L1170.7062163917224,343.18732619731037L1171.924433058103,343.245430488561L1173.1426497244836,343.34697077380696L1174.360866390864,343.3375271691221L1175.5790830572446,342.9240901660342L1176.7972997236252,342.94479916719143L1178.0155163900056,342.604025265696L1179.2337330563862,343.36357489635776L1180.4519497227668,343.27987372802335L1181.6701663891474,343.3372695492411L1182.888383055528,342.988209970595L1184.1065997219087,342.044332588028L1185.324816388289,343.45562015124744L1186.5430330546696,342.9564169042658L1187.7612497210503,342.83509352571065L1188.9794663874309,342.94990274011985L1190.1976830538115,343.09092262188506L1191.4158997201919,342.9204152478207L1192.6341163865725,343.2724290070341L1193.852333052953,343.1810711071365L1195.0705497193337,342.1694181712211L1196.2887663857143,343.1848255293152L1197.506983052095,343.4929372481057L1198.7251997184753,343.05289687067255L1199.943416384856,342.5753204430345L1201.1616330512365,343.0524638382563L1202.379849717617,343.2675721175833L1203.5980663839975,343.2851288745856L1204.8162830503782,342.8017726397516L1206.0344997167588,343.1236818600488L1207.2527163831392,341.3277419275705L1208.4709330495198,343.0646011159254L1209.6891497159004,343.30395085465875L1210.907366382281,342.823124594923L1212.1255830486616,342.77145070398063L1213.343799715042,343.0791818400341L1214.5620163814226,343.33145422945483L1215.7802330478032,343.37179096145854L1216.9984497141838,343.32560937728374L1218.2166663805644,342.19989706690683L1219.4348830469448,342.9676061964788L1220.6530997133254,343.08685165841683L1221.871316379706,343.267288836067L1223.0895330460867,343.3532534712309L1224.3077497124673,343.44356751806265L1225.525966378848,343.3421447889115L1226.7441830452283,342.92512625712095L1227.962399711609,342.7230257030489L1229.1806163779895,343.31389827117863L1230.3988330443701,343.1951341748248L1231.6170497107505,342.885625934684L1232.8352663771311,342.8971232484417L1234.0534830435117,342.868369928771L1235.2716997098923,343.15542167797275L1236.4899163762727,343.18840382215325L1237.7081330426533,343.38111903758397L1238.926349709034,343.34411002371087L1240.1445663754146,343.12389153588487L1241.362783041795,343.2266215133868L1242.5809997081756,343.4472653023702L1243.7992163745562,343.2856653317891L1245.0174330409368,343.23824015158806L1246.2356497073174,343.370190396315L1247.453866373698,343.271117519291L1248.6720830400784,343.14308688968015L1249.890299706459,343.0900037182504L1251.1085163728396,343.2203307467814L1252.3267330392202,342.6539627671009L1253.5449497056009,343.20220937236127L1254.7631663719812,343.2661743879038L1255.9813830383619,343.2045361638328L1257.1995997047425,343.35466369380555L1258.417816371123,343.4663264804242L1259.6360330375037,343.11568206539425L1260.854249703884,343.4860959749098L1262.0724663702647,343.4484219294145L1263.2906830366453,343.3467292308483L1264.508899703026,343.3910858488115L1265.7271163694063,341.4950946203414L1266.945333035787,343.06229267467353L1268.1635497021675,341.5591526157917L1269.381766368548,343.3558571544102L1270.5999830349285,343.3346990234342L1271.8181997013091,343.3412073507357L1273.0364163676898,343.38089090912746L1274.2546330340704,343.2238960961609L1275.472849700451,343.27796759895386L1276.6910663668314,342.9375296948961L1277.909283033212,343.37877672215427L1279.1274996995926,343.4073435290452L1280.3457163659732,343.3820928280365L1281.5639330323538,343.4909536221263L1282.7821496987342,343.4775528417194L1284.0003663651148,343.2524345380359L1285.2185830314954,343.4468618535392L1286.436799697876,343.43109536936447L1287.6550163642567,342.7830391953924L1288.8732330306373,343.23369269681274L1290.0914496970177,343.4323143687235L1291.3096663633983,343.2799925948482L1292.5278830297789,343.3669355670592L1293.7460996961593,343.32107664774054L1294.9643163625399,343.494230242268L1296.1825330289205,343.3980119917734L1297.400749695301,343.20670161263627L1298.6189663616815,343.2026135277577L1299.837183028062,343.38601412252547L1301.0553996944427,343.3585768781528L1302.2736163608233,343.1548798959287L1303.491833027204,343.4939132606551L1304.7100496935843,341.6808371823762L1305.928266359965,343.31253720097817L1307.1464830263455,343.33883681365114L1308.3646996927262,343.449018291074L1309.5829163591068,343.187924545545L1310.8011330254872,343.2490137375967L1312.0193496918678,343.4295303065712L1313.2375663582484,343.5177357779924L1314.455783024629,343.5069680595484L1315.6739996910096,343.20789454075685L1316.8922163573902,343.38104016850366L1318.1104330237706,343.18852850534233L1319.3286496901512,343.3918967810643L1320.5468663565318,343.30017460063385L1321.7650830229124,343.3950634227688L1322.9832996892928,343.44175545434916L1324.2015163556734,343.22845030938765L1325.419733022054,343.30592989308326L1326.6379496884347,343.49114076979083L1327.856166354815,343.29819597181256L1329.0743830211957,343.17421312213344L1330.2925996875763,341.5792810045292L1331.510816353957,343.4193908988299L1332.7290330203373,343.4479352492299L1333.947249686718,343.4699804474382L1335.1654663530985,343.4837194678598L1336.3836830194791,343.4220024054287L1337.6018996858597,343.464704155115L1338.8201163522403,343.44037384255233L1340.0383330186207,343.18305276702097" fill="none"></path></g></g></g></g></g></g><g transform="translate(41, 377)" clip-path="url(#clip_1)"><clipPath id="clip_1"><rect width="1461" height="22"></rect></clipPath><g><g><line x1="0" y1="0" x2="0" y2="5" style="visibility: inherit;" fill="rgb(0, 0, 0)" stroke="rgb(204, 204, 204)" stroke-width="1px"></line><line x1="121.82166663805643" y1="0" x2="121.82166663805643" y2="5" style="visibility: inherit;" fill="rgb(0, 0, 0)" stroke="rgb(204, 204, 204)" stroke-width="1px"></line><line x1="243.64333327611286" y1="0" x2="243.64333327611286" y2="5" style="visibility: inherit;" fill="rgb(0, 0, 0)" stroke="rgb(204, 204, 204)" stroke-width="1px"></line><line x1="365.4649999141693" y1="0" x2="365.4649999141693" y2="5" style="visibility: inherit;" fill="rgb(0, 0, 0)" stroke="rgb(204, 204, 204)" stroke-width="1px"></line><line x1="487.2866665522257" y1="0" x2="487.2866665522257" y2="5" style="visibility: inherit;" fill="rgb(0, 0, 0)" stroke="rgb(204, 204, 204)" stroke-width="1px"></line><line x1="609.1083331902822" y1="0" x2="609.1083331902822" y2="5" style="visibility: inherit;" fill="rgb(0, 0, 0)" stroke="rgb(204, 204, 204)" stroke-width="1px"></line><line x1="730.9299998283386" y1="0" x2="730.9299998283386" y2="5" style="visibility: inherit;" fill="rgb(0, 0, 0)" stroke="rgb(204, 204, 204)" stroke-width="1px"></line><line x1="852.7516664663951" y1="0" x2="852.7516664663951" y2="5" style="visibility: inherit;" fill="rgb(0, 0, 0)" stroke="rgb(204, 204, 204)" stroke-width="1px"></line><line x1="974.5733331044514" y1="0" x2="974.5733331044514" y2="5" style="visibility: inherit;" fill="rgb(0, 0, 0)" stroke="rgb(204, 204, 204)" stroke-width="1px"></line><line x1="1096.394999742508" y1="0" x2="1096.394999742508" y2="5" style="visibility: inherit;" fill="rgb(0, 0, 0)" stroke="rgb(204, 204, 204)" stroke-width="1px"></line><line x1="1218.2166663805644" y1="0" x2="1218.2166663805644" y2="5" style="visibility: inherit;" fill="rgb(0, 0, 0)" stroke="rgb(204, 204, 204)" stroke-width="1px"></line><line x1="1340.0383330186207" y1="0" x2="1340.0383330186207" y2="5" style="visibility: inherit;" fill="rgb(0, 0, 0)" stroke="rgb(204, 204, 204)" stroke-width="1px"></line><line x1="1461.8599996566772" y1="0" x2="1461.8599996566772" y2="5" style="visibility: inherit;" fill="rgb(0, 0, 0)" stroke="rgb(204, 204, 204)" stroke-width="1px"></line></g><g transform="translate(0, 8)"><text style="text-anchor: middle; visibility: hidden; font-family: &quot;Helvetica Neue&quot;, sans-serif; font-size: 12px; font-weight: 200;" x="0" y="0" dx="0em" dy="0.95em" fill="rgb(50, 49, 63)" stroke="none" stroke-width="1px">-100</text><text style="text-anchor: middle; visibility: inherit; font-family: &quot;Helvetica Neue&quot;, sans-serif; font-size: 12px; font-weight: 200;" x="121.82166663805643" y="0" dx="0em" dy="0.95em" fill="rgb(50, 49, 63)" stroke="none" stroke-width="1px">0</text><text style="text-anchor: middle; visibility: inherit; font-family: &quot;Helvetica Neue&quot;, sans-serif; font-size: 12px; font-weight: 200;" x="243.64333327611286" y="0" dx="0em" dy="0.95em" fill="rgb(50, 49, 63)" stroke="none" stroke-width="1px">100</text><text style="text-anchor: middle; visibility: inherit; font-family: &quot;Helvetica Neue&quot;, sans-serif; font-size: 12px; font-weight: 200;" x="365.4649999141693" y="0" dx="0em" dy="0.95em" fill="rgb(50, 49, 63)" stroke="none" stroke-width="1px">200</text><text style="text-anchor: middle; visibility: inherit; font-family: &quot;Helvetica Neue&quot;, sans-serif; font-size: 12px; font-weight: 200;" x="487.2866665522257" y="0" dx="0em" dy="0.95em" fill="rgb(50, 49, 63)" stroke="none" stroke-width="1px">300</text><text style="text-anchor: middle; visibility: inherit; font-family: &quot;Helvetica Neue&quot;, sans-serif; font-size: 12px; font-weight: 200;" x="609.1083331902822" y="0" dx="0em" dy="0.95em" fill="rgb(50, 49, 63)" stroke="none" stroke-width="1px">400</text><text style="text-anchor: middle; visibility: inherit; font-family: &quot;Helvetica Neue&quot;, sans-serif; font-size: 12px; font-weight: 200;" x="730.9299998283386" y="0" dx="0em" dy="0.95em" fill="rgb(50, 49, 63)" stroke="none" stroke-width="1px">500</text><text style="text-anchor: middle; visibility: inherit; font-family: &quot;Helvetica Neue&quot;, sans-serif; font-size: 12px; font-weight: 200;" x="852.7516664663951" y="0" dx="0em" dy="0.95em" fill="rgb(50, 49, 63)" stroke="none" stroke-width="1px">600</text><text style="text-anchor: middle; visibility: inherit; font-family: &quot;Helvetica Neue&quot;, sans-serif; font-size: 12px; font-weight: 200;" x="974.5733331044514" y="0" dx="0em" dy="0.95em" fill="rgb(50, 49, 63)" stroke="none" stroke-width="1px">700</text><text style="text-anchor: middle; visibility: inherit; font-family: &quot;Helvetica Neue&quot;, sans-serif; font-size: 12px; font-weight: 200;" x="1096.394999742508" y="0" dx="0em" dy="0.95em" fill="rgb(50, 49, 63)" stroke="none" stroke-width="1px">800</text><text style="text-anchor: middle; visibility: inherit; font-family: &quot;Helvetica Neue&quot;, sans-serif; font-size: 12px; font-weight: 200;" x="1218.2166663805644" y="0" dx="0em" dy="0.95em" fill="rgb(50, 49, 63)" stroke="none" stroke-width="1px">900</text><text style="text-anchor: middle; visibility: inherit; font-family: &quot;Helvetica Neue&quot;, sans-serif; font-size: 12px; font-weight: 200;" x="1340.0383330186207" y="0" dx="0em" dy="0.95em" fill="rgb(50, 49, 63)" stroke="none" stroke-width="1px">1k</text><text style="text-anchor: middle; visibility: hidden; font-family: &quot;Helvetica Neue&quot;, sans-serif; font-size: 12px; font-weight: 200;" x="1461.8599996566772" y="0" dx="0em" dy="0.95em" fill="rgb(50, 49, 63)" stroke="none" stroke-width="1px">1.1k</text></g><line x1="0" y1="0" x2="1461.8599996566772" y2="0" fill="rgb(0, 0, 0)" stroke="rgb(204, 204, 204)" stroke-width="1px"></line></g></g></g></g></svg>