<svg viewBox="0 0 1503 400" xmlns="http://www.w3.org/2000/svg"><g><g><g><g><g><line x1="41.140000343322754" y1="377.95999908447266" x2="36.140000343322754" y2="377.95999908447266" style="visibility: inherit;" fill="rgb(0, 0, 0)" stroke="rgb(204, 204, 204)" stroke-width="1px"></line><line x1="41.140000343322754" y1="346.4633324940999" x2="36.140000343322754" y2="346.4633324940999" style="visibility: inherit;" fill="rgb(0, 0, 0)" stroke="rgb(204, 204, 204)" stroke-width="1px"></line><line x1="41.140000343322754" y1="314.96666590372723" x2="36.140000343322754" y2="314.96666590372723" style="visibility: inherit;" fill="rgb(0, 0, 0)" stroke="rgb(204, 204, 204)" stroke-width="1px"></line><line x1="41.140000343322754" y1="283.4699993133545" x2="36.140000343322754" y2="283.4699993133545" style="visibility: inherit;" fill="rgb(0, 0, 0)" stroke="rgb(204, 204, 204)" stroke-width="1px"></line><line x1="41.140000343322754" y1="251.97333272298178" x2="36.140000343322754" y2="251.97333272298178" style="visibility: inherit;" fill="rgb(0, 0, 0)" stroke="rgb(204, 204, 204)" stroke-width="1px"></line><line x1="41.140000343322754" y1="220.47666613260904" x2="36.140000343322754" y2="220.47666613260904" style="visibility: inherit;" fill="rgb(0, 0, 0)" stroke="rgb(204, 204, 204)" stroke-width="1px"></line><line x1="41.140000343322754" y1="188.97999954223633" x2="36.140000343322754" y2="188.97999954223633" style="visibility: inherit;" fill="rgb(0, 0, 0)" stroke="rgb(204, 204, 204)" stroke-width="1px"></line><line x1="41.140000343322754" y1="157.4833329518636" x2="36.140000343322754" y2="157.4833329518636" style="visibility: inherit;" fill="rgb(0, 0, 0)" stroke="rgb(204, 204, 204)" stroke-width="1px"></line><line x1="41.140000343322754" y1="125.9866663614909" x2="36.140000343322754" y2="125.9866663614909" style="visibility: inherit;" fill="rgb(0, 0, 0)" stroke="rgb(204, 204, 204)" stroke-width="1px"></line><line x1="41.140000343322754" y1="94.48999977111816" x2="36.140000343322754" y2="94.48999977111816" style="visibility: inherit;" fill="rgb(0, 0, 0)" stroke="rgb(204, 204, 204)" stroke-width="1px"></line><line x1="41.140000343322754" y1="62.993333180745424" x2="36.140000343322754" y2="62.993333180745424" style="visibility: inherit;" fill="rgb(0, 0, 0)" stroke="rgb(204, 204, 204)" stroke-width="1px"></line><line x1="41.140000343322754" y1="31.49666659037274" x2="36.140000343322754" y2="31.49666659037274" style="visibility: inherit;" fill="rgb(0, 0, 0)" stroke="rgb(204, 204, 204)" stroke-width="1px"></line><line x1="41.140000343322754" y1="0" x2="36.140000343322754" y2="0" style="visibility: inherit;" fill="rgb(0, 0, 0)" stroke="rgb(204, 204, 204)" stroke-width="1px"></line></g><g transform="translate(31.140000343322754, 0)"><text style="text-anchor: end; visibility: hidden; font-family: &quot;Helvetica Neue&quot;, sans-serif; font-size: 12px; font-weight: 200;" x="0" y="377.95999908447266" dx="0em" dy="0.3em" fill="rgb(50, 49, 63)" stroke="none" stroke-width="1px">-10</text><text style="text-anchor: end; visibility: inherit; font-family: &quot;Helvetica Neue&quot;, sans-serif; font-size: 12px; font-weight: 200;" x="0" y="346.4633324940999" dx="0em" dy="0.3em" fill="rgb(50, 49, 63)" stroke="none" stroke-width="1px">0</text><text style="text-anchor: end; visibility: inherit; font-family: &quot;Helvetica Neue&quot;, sans-serif; font-size: 12px; font-weight: 200;" x="0" y="314.96666590372723" dx="0em" dy="0.3em" fill="rgb(50, 49, 63)" stroke="none" stroke-width="1px">10</text><text style="text-anchor: end; visibility: inherit; font-family: &quot;Helvetica Neue&quot;, sans-serif; font-size: 12px; font-weight: 200;" x="0" y="283.4699993133545" dx="0em" dy="0.3em" fill="rgb(50, 49, 63)" stroke="none" stroke-width="1px">20</text><text style="text-anchor: end; visibility: inherit; font-family: &quot;Helvetica Neue&quot;, sans-serif; font-size: 12px; font-weight: 200;" x="0" y="251.97333272298178" dx="0em" dy="0.3em" fill="rgb(50, 49, 63)" stroke="none" stroke-width="1px">30</text><text style="text-anchor: end; visibility: inherit; font-family: &quot;Helvetica Neue&quot;, sans-serif; font-size: 12px; font-weight: 200;" x="0" y="220.47666613260904" dx="0em" dy="0.3em" fill="rgb(50, 49, 63)" stroke="none" stroke-width="1px">40</text><text style="text-anchor: end; visibility: inherit; font-family: &quot;Helvetica Neue&quot;, sans-serif; font-size: 12px; font-weight: 200;" x="0" y="188.97999954223633" dx="0em" dy="0.3em" fill="rgb(50, 49, 63)" stroke="none" stroke-width="1px">50</text><text style="text-anchor: end; visibility: inherit; font-family: &quot;Helvetica Neue&quot;, sans-serif; font-size: 12px; font-weight: 200;" x="0" y="157.4833329518636" dx="0em" dy="0.3em" fill="rgb(50, 49, 63)" stroke="none" stroke-width="1px">60</text><text style="text-anchor: end; visibility: inherit; font-family: &quot;Helvetica Neue&quot;, sans-serif; font-size: 12px; font-weight: 200;" x="0" y="125.9866663614909" dx="0em" dy="0.3em" fill="rgb(50, 49, 63)" stroke="none" stroke-width="1px">70</text><text style="text-anchor: end; visibility: inherit; font-family: &quot;Helvetica Neue&quot;, sans-serif; font-size: 12px; font-weight: 200;" x="0" y="94.48999977111816" dx="0em" dy="0.3em" fill="rgb(50, 49, 63)" stroke="none" stroke-width="1px">80</text><text style="text-anchor: end; visibility: inherit; font-family: &quot;Helvetica Neue&quot;, sans-serif; font-size: 12px; font-weight: 200;" x="0" y="62.993333180745424" dx="0em" dy="0.3em" fill="rgb(50, 49, 63)" stroke="none" stroke-width="1px">90</text><text style="text-anchor: end; visibility: inherit; font-family: &quot;Helvetica Neue&quot;, sans-serif; font-size: 12px; font-weight: 200;" x="0" y="31.49666659037274" dx="0em" dy="0.3em" fill="rgb(50, 49, 63)" stroke="none" stroke-width="1px">100</text><text style="text-anchor: end; visibility: hidden; font-family: &quot;Helvetica Neue&quot;, sans-serif; font-size: 12px; font-weight: 200;" x="0" y="0" dx="0em" dy="0.3em" fill="rgb(50, 49, 63)" stroke="none" stroke-width="1px">110</text></g><line x1="41.140000343322754" y1="0" x2="41.140000343322754" y2="377.95999908447266" fill="rgb(0, 0, 0)" stroke="rgb(204, 204, 204)" stroke-width="1px"></line></g></g><g transform="translate(41, 0)" clip-path="url(#clip_0)"><clipPath id="clip_0"><rect width="1461" height="377"></rect></clipPath><g><g><g><line x1="0" y1="0" x2="0" y2="377.95999908447266" fill="rgb(0, 0, 0)" stroke="rgb(60, 60, 60)" stroke-width="1px" opacity="0.25"></line><line x1="121.82166663805643" y1="0" x2="121.82166663805643" y2="377.95999908447266" fill="rgb(0, 0, 0)" stroke="rgb(60, 60, 60)" stroke-width="1px" opacity="0.25"></line><line x1="243.64333327611286" y1="0" x2="243.64333327611286" y2="377.95999908447266" fill="rgb(0, 0, 0)" stroke="rgb(60, 60, 60)" stroke-width="1px" opacity="0.25"></line><line x1="365.4649999141693" y1="0" x2="365.4649999141693" y2="377.95999908447266" fill="rgb(0, 0, 0)" stroke="rgb(60, 60, 60)" stroke-width="1px" opacity="0.25"></line><line x1="487.2866665522257" y1="0" x2="487.2866665522257" y2="377.95999908447266" fill="rgb(0, 0, 0)" stroke="rgb(60, 60, 60)" stroke-width="1px" opacity="0.25"></line><line x1="609.1083331902822" y1="0" x2="609.1083331902822" y2="377.95999908447266" fill="rgb(0, 0, 0)" stroke="rgb(60, 60, 60)" stroke-width="1px" opacity="0.25"></line><line x1="730.9299998283386" y1="0" x2="730.9299998283386" y2="377.95999908447266" fill="rgb(0, 0, 0)" stroke="rgb(60, 60, 60)" stroke-width="1px" opacity="0.25"></line><line x1="852.7516664663951" y1="0" x2="852.7516664663951" y2="377.95999908447266" fill="rgb(0, 0, 0)" stroke="rgb(60, 60, 60)" stroke-width="1px" opacity="0.25"></line><line x1="974.5733331044514" y1="0" x2="974.5733331044514" y2="377.95999908447266" fill="rgb(0, 0, 0)" stroke="rgb(60, 60, 60)" stroke-width="1px" opacity="0.25"></line><line x1="1096.394999742508" y1="0" x2="1096.394999742508" y2="377.95999908447266" fill="rgb(0, 0, 0)" stroke="rgb(60, 60, 60)" stroke-width="1px" opacity="0.25"></line><line x1="1218.2166663805644" y1="0" x2="1218.2166663805644" y2="377.95999908447266" fill="rgb(0, 0, 0)" stroke="rgb(60, 60, 60)" stroke-width="1px" opacity="0.25"></line><line x1="1340.0383330186207" y1="0" x2="1340.0383330186207" y2="377.95999908447266" fill="rgb(0, 0, 0)" stroke="rgb(60, 60, 60)" stroke-width="1px" opacity="0.25"></line><line x1="1461.8599996566772" y1="0" x2="1461.8599996566772" y2="377.95999908447266" fill="rgb(0, 0, 0)" stroke="rgb(60, 60, 60)" stroke-width="1px" opacity="0.25"></line></g><g><line x1="0" y1="377.95999908447266" x2="1461.8599996566772" y2="377.95999908447266" fill="rgb(0, 0, 0)" stroke="rgb(60, 60, 60)" stroke-width="1px" opacity="0.25"></line><line x1="0" y1="346.4633324940999" x2="1461.8599996566772" y2="346.4633324940999" fill="rgb(0, 0, 0)" stroke="rgb(60, 60, 60)" stroke-width="1px" opacity="0.25"></line><line x1="0" y1="314.96666590372723" x2="1461.8599996566772" y2="314.96666590372723" fill="rgb(0, 0, 0)" stroke="rgb(60, 60, 60)" stroke-width="1px" opacity="0.25"></line><line x1="0" y1="283.4699993133545" x2="1461.8599996566772" y2="283.4699993133545" fill="rgb(0, 0, 0)" stroke="rgb(60, 60, 60)" stroke-width="1px" opacity="0.25"></line><line x1="0" y1="251.97333272298178" x2="1461.8599996566772" y2="251.97333272298178" fill="rgb(0, 0, 0)" stroke="rgb(60, 60, 60)" stroke-width="1px" opacity="0.25"></line><line x1="0" y1="220.47666613260904" x2="1461.8599996566772" y2="220.47666613260904" fill="rgb(0, 0, 0)" stroke="rgb(60, 60, 60)" stroke-width="1px" opacity="0.25"></line><line x1="0" y1="188.97999954223633" x2="1461.8599996566772" y2="188.97999954223633" fill="rgb(0, 0, 0)" stroke="rgb(60, 60, 60)" stroke-width="1px" opacity="0.25"></line><line x1="0" y1="157.4833329518636" x2="1461.8599996566772" y2="157.4833329518636" fill="rgb(0, 0, 0)" stroke="rgb(60, 60, 60)" stroke-width="1px" opacity="0.25"></line><line x1="0" y1="125.9866663614909" x2="1461.8599996566772" y2="125.9866663614909" fill="rgb(0, 0, 0)" stroke="rgb(60, 60, 60)" stroke-width="1px" opacity="0.25"></line><line x1="0" y1="94.48999977111816" x2="1461.8599996566772" y2="94.48999977111816" fill="rgb(0, 0, 0)" stroke="rgb(60, 60, 60)" stroke-width="1px" opacity="0.25"></line><line x1="0" y1="62.993333180745424" x2="1461.8599996566772" y2="62.993333180745424" fill="rgb(0, 0, 0)" stroke="rgb(60, 60, 60)" stroke-width="1px" opacity="0.25"></line><line x1="0" y1="31.49666659037274" x2="1461.8599996566772" y2="31.49666659037274" fill="rgb(0, 0, 0)" stroke="rgb(60, 60, 60)" stroke-width="1px" opacity="0.25"></line><line x1="0" y1="0" x2="1461.8599996566772" y2="0" fill="rgb(0, 0, 0)" stroke="rgb(60, 60, 60)" stroke-width="1px" opacity="0.25"></line></g></g></g><g><g><line x1="0" y1="346.4633324940999" x2="1461.8599996566772" y2="346.4633324940999" fill="rgb(0, 0, 0)" stroke="rgb(153, 153, 153)" stroke-width="1.5px"></line></g></g><g><g><line x1="121.82166663805643" y1="0" x2="121.82166663805643" y2="377.95999908447266" fill="rgb(0, 0, 0)" stroke="rgb(153, 153, 153)" stroke-width="1.5px"></line></g></g><g><g><g><g><g><path style="fill: none;" stroke="rgb(0, 119, 187)" stroke-width="2px" d="M123.039883304437,196.3245919571035L124.25809997081757,277.5030977012211L125.47631663719812,229.16396159801613L126.6945333035787,200.92455621369177L127.91274996995925,191.74794886363622L129.13096663633982,174.06696278560483L130.3491833027204,208.5808183716598L131.56739996910096,237.29851786289848L132.78561663548152,224.41501103400878L134.00383330186207,216.64985670635215L135.22204996824266,203.4958436092985L136.4402666346232,191.504704686725L137.65848330100377,182.81811810778066L138.87669996738433,199.19921066860553L140.0949166337649,214.28115464376097L141.31313330014547,222.70299015141669L142.53134996652602,214.29765127280018L143.74956663290658,225.64615457935628L144.96778329928716,236.06026142287422L146.18599996566772,227.5929370313565L147.40421663204827,221.37321526755284L148.62243329842886,216.53101609613586L149.84064996480942,212.13255582033187L151.05886663118997,207.0041587583728L152.27708329757056,201.1688216677103L153.4952999639511,197.84348333119124L154.71351663033167,205.8041581572858L155.93173329671225,200.60475229880686L157.1499499630928,196.278382171754L158.36816662947336,191.5845445264669L159.58638329585392,187.60248896487442L160.8045999622345,184.26920869696795L162.02281662861506,190.3238079750571L163.24103329499562,186.6304253991138L164.4592499613762,183.23764672843802L165.67746662775676,179.53020657348824L166.8956832941373,176.1124847113446L168.1138999605179,173.53049192864833L169.33211662689845,170.56550821568672L170.550333293279,167.82843750800188L171.76854995965957,165.53631921343404L172.98676662604015,163.21371880096922L174.2049832924207,160.58662161520428L175.42319995880126,158.44042579673356L176.64141662518185,156.33492486723284L177.8596332915624,154.31117416641595L179.07784995794296,152.46793719807198L180.29606662432354,150.8671754450525L181.51428329070407,149.48663708144304L182.73249995708466,147.75759090872089L183.9507166234652,146.0274033086435L185.1689332898458,144.2772106922877L186.38714995622635,142.8650848285004L187.6053666226069,141.17598861321116L188.8235832889875,139.64154979704276L190.04179995536805,138.47996123021537L191.2600166217486,136.9451859933528L192.47823328812916,135.67949925172869L193.69644995450975,134.3688282572839L194.9146666208903,133.14024391221707L196.13288328727086,131.8429336253408L197.35109995365144,130.54761783258002L198.569316620032,129.45662955142956L199.78753328641255,128.25399765991315L201.00574995279314,127.15762664765595L202.2239666191737,126.00045960995195L203.44218328555425,125.05247415387421L204.66039995193483,124.32361871995042L205.8786166183154,123.69496859279073L207.09683328469595,122.42442778115074L208.3150499510765,121.53219204010725L209.5332666174571,120.64058108035289L210.75148328383764,119.83247454290199L211.9696999502182,119.08917704917837L213.18791661659878,118.23019889675874L214.40613328297934,117.54118528504478L215.6243499493599,116.68194280207973L216.84256661574048,115.97642054630171L218.06078328212104,115.14702338491963L219.2789999485016,114.83903023940513L220.49721661488218,114.14804616362528L221.71543328126273,113.41878221885855L222.9336499476433,112.88291211314157L224.15186661402382,112.08482610636713L225.37008328040443,111.41883328215431L226.58829994678499,110.77055060448475L227.8065166131655,110.21259688320038L229.02473327954613,109.62760935613431L230.24294994592665,108.93482302663568L231.4611666123072,108.44626808854906L232.67938327868782,107.90162701473406L233.89759994506835,107.32622747745188L235.1158166114489,106.82611408551554L236.33403327782946,106.39895592411534L237.55224994421005,105.9946263098197L238.7704666105906,105.49480127847829L239.98868327697116,104.99178025054232L241.20689994335174,104.41979298030105L242.4251166097323,104.0448040565471L243.64333327611286,103.5121299474248L244.86154994249344,103.04457727267436L246.079766608874,102.74956035393501L247.29798327525455,102.4079011089537L248.51619994163514,101.9091814598932L249.7344166080157,101.55183059253369L250.95263327439625,101.06964361758679L252.1708499407768,100.5664784093533L253.3890666071574,100.09882961440451L254.60728327353794,99.65497056854366L255.8254999399185,99.30326676283636L257.0437166062991,98.9092460398121L258.26193327267964,98.58339856745687L259.4801499390602,98.16832752099725L260.6983666054408,97.76601643086661L261.91658327182137,97.4218580607286L263.1347999382019,97.0551114439819L264.3530166045825,96.67553278075746L265.57123327096303,96.26358564074377L266.7894499373436,95.87100672069454L268.00766660372415,95.5272568613994L269.22588327010476,95.04804961260089L270.4440999364853,94.66892752031856L271.6623166028658,94.3048962991748L272.8805332692464,93.95333667376497L274.098749935627,93.72704569683509L275.31696660200754,93.44397171273886L276.53518326838815,93.08200707585928L277.75339993476865,92.7310001415899L278.9716166011492,92.40791612493678L280.1898332675298,92.12592349307187L281.4080499339104,91.937672084633L282.62626660029093,91.62400784741669L283.8444832666715,91.39118069700004L285.06269993305204,91.08549443624554L286.2809165994326,90.88988983263408L287.49913326581316,90.61109319736374L288.71734993219377,90.32580844870586L289.9355665985743,90.01598901942293L291.1537832649549,89.74903919859742L292.37199993133544,89.45971740160945L293.590216597716,89.21177535000459L294.80843326409655,88.98534019277724L296.02664993047716,88.7125030098037L297.2448665968577,88.45838523545586L298.4630832632383,88.26455885551354L299.68129992961883,88.01786636648711L300.8995165959994,87.82504924862735L302.11773326237994,87.56155975494187L303.3359499287605,87.33656640068949L304.5541665951411,87.09869293986026L305.77238326152167,86.88595491089558L306.9905999279022,86.71827322490037L308.2088165942828,86.59108217245375L309.42703326066334,86.39038319833054L310.6452499270439,86.1515965956171L311.8634665934245,85.99862129996717L313.08168325980506,85.7451283069085L314.2998999261856,85.5376288287531L315.5181165925662,85.35168430507423L316.73633325894673,85.17761062588977L317.9545499253273,85.018219307001L319.17276659170784,84.83760945432977L320.39098325808845,84.65293852327886L321.609199924469,84.52988063936061L322.82741659084957,84.34633912064021L324.0456332572301,84.22159913325112L325.2638499236107,84.08707891568145L326.48206658999123,84.02577825919337L327.7002832563718,83.93093165348643L328.9184999227524,83.86126853974321L330.13671658913296,83.69649448974764L331.3549332555135,83.54512920741979L332.57314992189407,83.37297793220205L333.7913665882746,83.2398995176074L335.0095832546552,83.03052569558446L336.2277999210358,82.865631495341L337.44601658741635,82.75199339085958L338.6642332537969,82.60228618195299L339.88244992017746,82.49431916917337L341.100666586558,82.33449530939203L342.3188832529386,82.14677256204402L343.53709991931913,82.07722959854874L344.75531658569975,81.92747432954297L345.9735332520803,81.76421417267119L347.19174991846086,81.61229619920294L348.4099665848414,81.49563030847395L349.62818325122197,81.37113062158073L350.8463999176025,81.2325493256314L352.06461658398314,81.0555680104473L353.2828332503637,80.8593866856458L354.50104991674425,80.77417612982197L355.7192665831248,80.59914124865412L356.93748324950536,80.51796774116036L358.1556999158859,80.40303201400144L359.3739165822665,80.26526773973796L360.5921332486471,80.09914800696572L361.81034991502764,79.96232090463599L363.02856658140814,79.82258616630668L364.24678324778876,79.70109023561139L365.4649999141693,79.62731798338939L366.6832165805499,79.53182256634369L367.9014332469304,79.40616943707039L369.119649913311,79.25338638181711L370.3378665796916,79.14306442417825L371.5560832460721,79.04105686369536L372.7742999124527,78.9447444249638L373.9925165788333,78.84677391281099L375.2107332452138,78.7685320713664L376.4289499115944,78.65164991019117L377.647166577975,78.5443076787007L378.8653832443555,78.40229008566092L380.0835999107361,78.28024146382523L381.3018165771166,78.1493738137923L382.5200332434972,78.0209331987673L383.73824990987777,77.97167159712069L384.9564665762583,77.87031284797655L386.1746832426389,77.79223921687907L387.3928999090195,77.70589924872473L388.6111165754,77.59694700391213L389.8293332417806,77.47129387463889L391.04754990816116,77.39949208648272L392.2657665745417,77.33398617131752L393.48398324092227,77.22267898164574L394.7021999073029,77.14347593821782L395.9204165736834,77.03625385697524L397.138633240064,76.92016468743628L398.35684990644455,76.81505725055712L399.5750665728251,76.69757433814232L400.79328323920566,76.61072973894676L402.0114999055863,76.51816598795023L403.2297165719668,76.47385457651785L404.4479332383474,76.37821497917469L405.66614990472794,76.26779690133748L406.8843665711085,76.22399012094633L408.10258323748906,76.1390438956679L409.32079990386967,76.0413136840109L410.53901657025017,75.96362453370676L411.7572332366308,75.90672137629252L412.9754499030113,75.8265811609308L414.1936665693919,75.74764244804828L415.41188323577245,75.66135053999312L416.630099902153,75.5521579946847L417.84831656853356,75.47687184933892L419.0665332349142,75.39055591123423L420.2847499012947,75.29304197002347L421.5029665676753,75.19209173172226L422.72118323405584,75.14436805324902L423.9393999004364,75.04519603861701L425.15761656681696,74.96894869128784L426.37583323319757,74.87376566488672L427.59404989957807,74.77843845818813L428.8122665659587,74.68289498104326L430.03048323233924,74.61044438154835L431.2486998987198,74.54522682697814L432.46691656510035,74.46626408404603L433.68513323148096,74.4093368965822L434.90334989786146,74.32866802012967L436.1215665642421,74.23985295686822L437.33978323062263,74.17071850421587L438.5579998970032,74.08276852273946L439.77621656338374,73.98095320265321L440.99443322976435,73.88637092749173L442.21264989614485,73.82182621430985L443.43086656252547,73.7222456888349L444.64908322890597,73.62744714322713L445.8672998952866,73.53339352915646L447.08551656166713,73.4394840953833L448.30373322804763,73.2913868997988L449.52194989442825,73.1920947349189L450.74016656080886,73.16429196755053L451.95838322718936,73.09448467350984L453.17659989356997,73.0513987946062L454.3948165599505,72.97423830539287L455.613033226331,72.8843659199498L456.83124989271164,72.821719580685L458.04946655909225,72.74467924171961L459.26768322547275,72.66559634853962L460.4858998918533,72.58144311489741L461.7041165582339,72.48890339395052L462.9223332246144,72.40631211353127L464.14054989099503,72.33676915003599L465.35876655737565,72.26225196627689L466.57698322375614,72.22997960968593L467.7951998901367,72.20671852168891L469.0134165565173,72.13063938470685L470.2316332228978,72.07907089830019L471.4498498892784,71.99643155778176L472.6680665556589,71.91323952612294L473.88628322203954,71.84227878970222L475.1044998884201,71.76607950247222L476.32271655480065,71.68694854919306L477.5409332211812,71.61824663743317L478.7591498875618,71.54783859215291L479.9773665539423,71.48877273027608L481.19558322032293,71.41413539626905L482.4137998867035,71.34411183178213L483.63201655308404,71.27005121896508L484.8502332194646,71.20819787133661L486.0684498858452,71.13531473094918L487.2866665522257,71.07920456517121L488.5048832186063,71.01465985198934L489.7230998849869,70.93651413074309L490.94131655136744,70.90267982092917L492.159533217748,70.83868779888775L493.3777498841286,70.77789177344096L494.5959665505091,70.7181290401262L495.8141832168897,70.65589121170439L497.0323998832703,70.59853148334804L498.25061654965083,70.51440227975547L499.4688332160314,70.45401476515156L500.687049882412,70.39379546089475L501.9052665487925,70.34354862721523L503.1234832151731,70.27768226130621L504.3416998815536,70.20770675691841L505.5599165479342,70.15178883153715L506.7781332143148,70.09005563415656L507.99634988069533,70.0257512214705L509.2145665470759,69.97867635433602L510.4327832134565,69.98562103866573L511.650999879837,69.91973064270712L512.8692165462176,69.86607154198668L514.0874332125982,69.80657313921739L515.3056498789787,69.75512480305866L516.5238665453593,69.69209398300058L517.7420832117399,69.63898757342054L518.9602998781204,69.59251345752563L520.178516544501,69.54070467062314L521.3967332108816,69.49180351972029L522.6149498772621,69.44871764081665L523.8331665436427,69.38981998928699L525.0513832100232,69.34800770301132L526.2695998764038,69.29795310972838L527.4878165427843,69.23576334140574L528.706033209165,69.17580836769434L529.9242498755455,69.12666691629568L531.1424665419261,69.080120710252L532.3606832083067,69.01648913895428L533.5788998746872,68.9761907458024L534.7971165410678,68.98126108626457L536.0153332074483,68.93509936101424L537.2335498738289,68.87966203662461L538.4517665402095,68.82232633831785L539.66998320659,68.76857111739906L540.8881998729706,68.7239713453717L542.1064165393511,68.68256756993895L543.3246332057316,68.63912124029156L544.5428498721122,68.58111270059646L545.7610665384929,68.53615247782534L546.9792832048734,68.50008337340017L548.197499871254,68.45034117076187L549.4157165376346,68.42342751522813L550.6339332040151,68.3790199835974L551.8521498703957,68.3340117007271L553.0703665367763,68.3020997948799L554.2885832031568,68.25865346523256L555.5067998695373,68.22352153274113L556.7250165359179,68.17445217149117L557.9432332022984,68.1423720552969L559.161449868679,68.09818079411247L560.3796665350596,68.04271943967325L561.5978832014401,68.00278149726512L562.8160998678208,67.97110989191373L564.0343165342013,67.92992238692727L565.2525332005819,67.8803964547352L566.4707498669625,67.83137515358442L567.688966533343,67.7926146836059L568.9071831997236,67.74155082824046L570.1253998661041,67.70276632821236L571.3436165324847,67.65994477985419L572.5618331988652,67.62534150845363L573.7800498652458,67.57434974323695L574.9982665316263,67.54109215461307L576.2164831980069,67.49702104367657L577.4346998643875,67.45698698107009L578.652916530768,67.4215186278845L579.8711331971487,67.38994314273151L581.0893498635293,67.32470155811171L582.3075665299098,67.27827550231598L583.5257831962904,67.23593455494944L584.7439998626709,67.20911701961398L585.9622165290515,67.1580531642486L587.180433195432,67.12508393621977L588.3986498618126,67.07538979368059L589.6168665281931,67.0348030399337L590.8350831945737,66.98640652007208L592.0532998609543,66.94764605009357L593.2715165273348,66.89398694937313L594.4897331937154,66.85121346111407L595.7079498600959,66.81153984925135L596.9261665264765,66.77287549947118L598.1443831928572,66.73245695607136L599.3625998592377,66.69778159452204L600.5808165256183,66.65976605608063L601.7990331919988,66.62163036739122L603.0172498583794,66.57840030819011L604.2354665247599,66.54805035556586L605.4536831911405,66.51457649649575L606.671899857521,66.47288436046802L607.8901165239016,66.43837720926581L609.1083331902822,66.39952061908895L610.3265498566627,66.36361972501084L611.5447665230433,66.3266615087511L612.762983189424,66.29378840092056L613.9811998558044,66.26093932313961L615.1994165221851,66.23304043557289L616.4176331885656,66.19663491045355L617.6358498549462,66.15902788285507L618.8540665213267,66.12288668828114L620.0722831877073,66.0727600048495L621.2904998540878,66.03794046300271L622.5087165204684,66.00581228670927L623.726933186849,65.96546583345821L624.9451498532295,65.92742626496715L626.1633665196101,65.88693563141862L627.3815831859906,65.84757441020048L628.5997998523712,65.80785273823858L629.8180165187518,65.7743067890197L631.0362331851323,65.73381615547112L632.254449851513,65.7005345367977L633.4726665178935,65.67311625022268L634.690883184274,65.63452399059122L635.9090998506546,65.5986471265627L637.1273165170352,65.56976300696311L638.3455331834157,65.54808790223859L639.5637498497963,65.52158275754772L640.7819665161769,65.49697598677398L642.0001831825574,65.47169637461195L643.218399848938,65.45401025811833L644.4366165153186,65.41875817537897L645.6548331816991,65.39489633614238L646.8730498480796,65.37468706444247L648.0912665144602,65.34921521188369L649.3094831808407,65.32775637760545L650.5276998472214,65.2946429692791L651.745916513602,65.25857386485393L652.9641331799825,65.22298536142046L654.1823498463631,65.19078509497825L655.4005665127436,65.16464040103114L656.6187831791242,65.13109445181232L657.8369998455048,65.1004080784939L659.0552165118853,65.072461130828L660.2734331782659,65.04795048025261L661.4916498446464,65.0189221803555L662.709866511027,64.99270539625962L663.9280831774075,64.9624035037346L665.1462998437881,64.93154892006908L666.3645165101686,64.905980947312L667.5827331765493,64.87469382275401L668.8009498429299,64.85042347267444L670.0191665093104,64.81567602097641L671.237383175691,64.77833332392328L672.4555998420716,64.74865621268742L673.6738165084521,64.7204929945753L674.8920331748327,64.6915127547773L676.1102498412132,64.66282087557437L677.3284665075938,64.62711222189296L678.5466831739743,64.59347015247573L679.7648998403549,64.56547514471072L680.9831165067354,64.53538952263187L682.201333173116,64.50292492564427L683.4195498394967,64.4782700947714L684.6377665058772,64.45063553775009L685.8559831722578,64.42177544820004L687.0741998386383,64.40000422327722L688.2924165050189,64.36590558291789L689.5106331713995,64.33882371703709L690.72884983778,64.30652733039653L691.9470665041606,64.28103144778822L693.1652831705411,64.24952805278394L694.3834998369217,64.21797659768055L695.6017165033022,64.18899635788256L696.8199331696828,64.1619144920017L698.0381498360633,64.13901385474844L699.2563665024439,64.10943286371088L700.4745831688246,64.0829517490696L701.692799835205,64.06701982619563L702.9110165015857,64.04503233082653L704.1292331679663,64.01578776048314L705.3474498343468,63.99084456901522L706.5656665007274,63.96575719724984L707.7838831671079,63.93764203923689L709.0020998334885,63.9116415255873L710.220316499869,63.888188197193585L711.4385331662496,63.86961296886534L712.6567498326301,63.8499323582563L713.8749664990107,63.823090792871255L715.0931831653913,63.796946098924195L716.3113998317718,63.76796585912621L717.5296164981524,63.743214908054995L718.747833164533,63.72524043096638L719.9660498309136,63.70130650158097L721.1842664972942,63.67379209480765L722.4024831636747,63.64875278314139L723.6206998300553,63.6254436350452L724.8389164964358,63.60523436334529L726.0571331628163,63.57896951915029L727.2753498291969,63.56159579330125L728.4935664955775,63.54371743641093L729.711783161958,63.51375196458008L730.9299998283386,63.47823555129531L732.1482164947192,63.451225775563216L733.3664331610998,63.42558571265738L734.5846498274802,63.402012234015785L735.8028664938608,63.37408931639948L737.0210831602415,63.355994689062925L738.239299826622,63.3285764024879L739.4575164930026,63.30430605240838L740.6757331593832,63.277897027915856L741.8939498257637,63.24759513539078L743.1121664921442,63.221114020749496L744.3303831585248,63.19376782432323L745.5485998249054,63.1680316412191L746.766816491286,63.14791848971748L747.9850331576666,63.11812122823369L749.203249824047,63.09517253088126L750.4214664904276,63.068330965496216L751.6396831568082,63.037260111384455L752.8578998231887,63.01993444563465L754.0761164895694,62.99881203205052L755.29433315595,62.9786267904002L756.5125498223305,62.95351538858523L757.730766488711,62.93051863113362L758.9489831550916,62.90915591705368L760.1671998214722,62.8859188591062L761.3854164878528,62.86429181448085L762.6036331542332,62.835575905228325L763.8218498206138,62.81024823296707L765.0400664869944,62.78273382619375L766.258283153375,62.76384620722092L767.4764998197555,62.74428574685976L768.6947164861361,62.73034831810122L769.9129331525166,62.70826470253377L771.1311498188973,62.68771901013969L772.3493664852778,62.68082238590915L773.5675831516584,62.650664673681604L774.785799818039,62.62656253394914L776.0040164844196,62.60342159620001L777.2222331508,62.58150619097967L778.4404498171806,62.559278395114745L779.6586664835612,62.537699410588516L780.8768831499418,62.51907612216115L782.0950998163223,62.498097888874554L783.3133164827029,62.473082607257936L784.5315331490834,62.45417095823552L785.749749815464,62.43698947278318L786.9679664818445,62.41478570696779L788.1861831482252,62.39505703625957L789.4043998146058,62.374895824658836L790.6226164809864,62.35326878003349L791.8408331473668,62.32734035653266L793.0590498137474,62.307996166617784L794.277266480128,62.28584046090157L795.4954831465086,62.26512655816043L796.7136998128891,62.24539788745216L797.9319164792696,62.22658235862815L799.1501331456502,62.206733537671994L800.3683498120308,62.18652426597208L801.5865664784113,62.168477698734705L802.8047831447919,62.14781185609269L804.0229998111726,62.12462285824438L805.2412164775529,62.104437616594055L806.4594331439336,62.082714451770414L807.6776498103142,62.063442352004245L808.8958664766948,62.04402607194061L810.1140831430754,62.02590741455447L811.3322998094559,62.00891816949877L812.5505164758364,61.987050824377604L813.768733142217,61.96458272801681L814.9869498085976,61.94410912577149L816.2051664749781,61.92315492253448L817.4233831413587,61.90366655232208L818.6415998077393,61.8850672939443L819.8598164741197,61.86839043953319L821.0780331405003,61.850079541750404L822.296249806881,61.82914936856298L823.5144664732616,61.83063923163718L824.7326831396422,61.807690534284745L825.9508998060226,61.785679008866055L827.1691164724032,61.76467674552987L828.3873331387838,61.745452705862874L829.6055498051643,61.72733404847679L830.8237664715449,61.70251100725676L832.0419831379255,61.68540161195318L833.260199804306,61.6654086106995L834.4784164706865,61.67377106795465L835.6966331370671,61.653345525808504L836.9148498034477,61.633016103860655L838.1330664698283,61.61198981047494L839.351283136209,61.590458886047884L840.5694998025893,61.570081404000916L841.78771646897,61.549968252499355L843.0059331353506,61.52548163197355L844.2241498017311,61.505921171612385L845.4423664681117,61.489797008341725L846.6605831344923,61.48989312854002L847.8787998008728,61.469563706592226L849.0970164672533,61.45096444821439L850.3152331336339,61.43359072236541L851.5334498000145,61.41323727036797L852.7516664663951,61.394037260750565L853.9698831327755,61.37310708756314L855.1880997991561,61.35743949523459L856.4063164655367,61.33482721857632L857.6245331319174,61.312911813355925L858.8427497982979,61.29450479537479L860.0609664646785,61.2766744985837L861.279183131059,61.255263724404585L862.4973997974396,61.23572729409301L863.7156164638201,61.21770475690522L864.9338331302007,61.198769077833276L866.1520497965813,61.178776076579595L867.3702664629619,61.1631805743998L868.5884831293423,61.14506191701366L869.8066997957229,61.12985089562716L871.0249164621035,61.11401509295149L872.2431331284841,61.095415834573714L873.4613497948646,61.07124160469249L874.6795664612453,61.055598042413465L875.8977831276258,61.040531201324484L877.1159997940064,61.023565986318374L878.3342164603869,60.99992041752802L879.5524331267675,60.98511790698444L880.7706497931481,60.96740776044123L881.9888664595287,60.95397496272392L883.2070831259091,60.93679347727158L884.4252997922897,60.91725704696L885.6435164586703,60.89928256987139L886.8617331250509,60.882173174567754L888.0799497914314,60.86674588273502L889.2981664578119,60.847281542572205L890.5163831241925,60.80474835480902L891.7345997905732,60.78828777084419L892.9528164569537,60.771610916433076L894.1710331233343,60.75325195855112L895.3892497897149,60.73604644304919L896.6074664560953,60.72004243002641L897.8256831224759,60.70399035690451L899.0438997888565,60.688058434030495L900.2621164552371,60.67203039095813L901.4803331216177,60.65669921932374L902.6985497879982,60.640022364912625L903.9167664543787,60.624835373575706L905.1349831207593,60.607341497478785L906.3531997871399,60.5897755312331L907.5714164535204,60.57377151821032L908.789633119901,60.55437926819627L910.0078497862817,60.5386395857189L911.226066452662,60.525783509191626L912.4442831190427,60.50963531587138L913.6624997854233,60.49488086542698L914.8807164518039,60.480486865726334L916.0989331181845,60.4633774704227L917.3171497845649,60.448574959879124L918.5353664509455,60.43146556457555L919.7535831173261,60.416855294428615L920.9717997837066,60.4041674282484L922.1900164500872,60.38520771912687L923.4082331164678,60.372279552450834L924.6264497828483,60.35529030739514L925.8446664492288,60.33998316581034L927.0628831156095,60.32472408432466L928.2810997819901,60.30761468902102L929.4993164483707,60.293028448923735L930.7175331147513,60.278394148727216L931.9357497811317,60.26318312734077L933.1539664475123,60.24905345818553L934.3721831138929,60.234058707245254L935.5903997802734,60.2169012518425L936.808616446654,60.199046925001824L938.0268331130346,60.183859933664905L939.2450497794151,60.16684665855962L940.4632664457956,60.1497132332064L941.6814831121762,60.13774626851375L942.8996997785569,60.12436153089561L944.1179164449375,60.11001559129414L945.3361331113178,60.09739981526269L946.5543497776985,60.08456776878495L947.7725664440791,60.071231091265986L948.9907831104597,60.05573170928449L950.2089997768402,60.04186637067471L951.4272164432208,60.02754446112277L952.6454331096013,60.01077148651336L953.8636497759819,59.99709838830023L955.0818664423624,59.98388186102915L956.300083108743,59.970304883014364L957.5182997751236,59.95744880648709L958.7365164415042,59.94243002549723L959.9547331078846,59.9312560524408L961.1729497742652,59.916765932541864L962.3911664406459,59.90417418656L963.6093831070265,59.889587946462655L964.827599773407,59.87665977978662L966.0458164397876,59.86572610722601L967.2640331061681,59.85457616421917L968.4822497725487,59.83991783397312L969.7004664389292,59.828575650569576L970.9186831053098,59.816680776025635L972.1368997716904,59.80418515024212L973.355116438071,59.792218185549416L974.5733331044514,59.77532506069207L975.791549770832,59.7630216753052L977.0097664372126,59.750814410116675L978.2279831035933,59.73829475428357L979.4461997699738,59.725847188599175L980.6644164363543,59.710780347510195L981.8826331027349,59.6962902276112L983.1008497691155,59.67958934315055L984.319066435496,59.66670923657364L985.5372831018766,59.65404540044307L986.7554997682572,59.64258306679159L987.9737164346376,59.63222611542102L989.1919331010182,59.61821659651372L990.4101497673988,59.605624850531854L991.6283664337794,59.59394624643414L992.84658310016,59.58087389946064L994.0647997665405,59.56643183966082L995.283016432921,59.553263372488914L996.5012330993017,59.541344467895385L997.7194497656823,59.5305549756323L998.9376664320628,59.51798725970002L1000.1558830984434,59.506140445255255L1001.374099764824,59.49215495639754L1002.5923164312044,59.480956953291525L1003.810533097585,59.46774042602044L1005.0287497639656,59.45692690370777L1006.2469664303462,59.44435918777549L1007.4651830967268,59.43296894427283L1008.6833997631072,59.41607581941548L1009.9016164294878,59.404253035020304L1011.1198330958684,59.392334130426775L1012.3380497622489,59.380247015486134L1013.5562664286296,59.384884815055784L1014.7744830950102,59.37383099224729L1015.9926997613907,59.358523850662436L1017.2109164277712,59.34511508299477L1018.4291330941518,59.332499306963314L1019.6473497605324,59.31882620875018L1020.865566426913,59.30652282336331L1022.0837830932936,59.294363618273906L1023.301999759674,59.283381885614176L1024.5202164260545,59.269276246508525L1025.7384330924351,59.25908750548501L1026.9566497588157,59.246111278709805L1028.1748664251963,59.23214981990168L1029.393083091577,59.22116808724189L1030.6112997579573,59.21061889547468L1031.829516424338,59.19872402093074L1033.0477330907186,59.18810273901471L1034.2659497570992,59.176352044768294L1035.4841664234798,59.165394342158095L1036.7023830898602,59.153811858258734L1037.9205997562408,59.14201310391314L1039.1388164226214,59.13129570179882L1040.357033089002,59.11646916120566L1041.5752497553826,59.104598316711304L1042.7934664217632,59.0928235924153L1044.0116830881436,59.08179379965634L1045.2298997545242,59.07160505863283L1046.4481164209049,59.06069541612186L1047.6663330872855,59.05079503569334L1048.8845497536659,59.040726444917766L1050.1027664200465,59.031667116224696L1051.320983086427,59.02030090277162L1052.5391997528077,59.00770915678976L1053.757416419188,58.99893818869168L1054.9756330855687,58.98894168806487L1056.1938497519493,58.97798398545467L1057.41206641833,58.96606508086114L1058.6302830847103,58.95573215954016L1059.848499751091,58.93016418678309L1061.0667164174715,58.91824528218956L1062.2849330838521,58.90863326235609L1063.5031497502328,58.89676241786168L1064.7213664166134,58.886261286193644L1065.9395830829937,58.87451059194717L1067.1577997493744,58.86136615482491L1068.376016415755,58.84954337042967L1069.5942330821356,58.836975654497394L1070.8124497485162,58.82755587506057L1072.0306664148966,58.81729504388835L1073.2488830812772,58.805976890534396L1074.4670997476578,58.79511530812255L1075.6853164140384,58.78507074739656L1076.903533080419,58.775410667463916L1078.1217497467994,58.763828183564556L1079.33996641318,58.755297515962354L1080.5581830795606,58.74450802369927L1081.7763997459413,58.73552078515496L1082.9946164123216,58.72276082882598L1084.2128330787023,58.71293253854623L1085.4310497450829,58.71987722287594L1086.6492664114633,58.70704517639825L1087.8674830778439,58.69772151715978L1089.0856997442245,58.68798934707837L1090.303916410605,58.67844941739361L1091.5221330769857,58.66681887339507L1092.7403497433663,58.6547077284049L1093.9585664097467,58.6641755679409L1095.1767830761273,58.65225666334737L1096.394999742508,58.64252449326597L1097.6132164088885,58.63111021971366L1098.8314330752692,58.61909519492184L1100.0496497416495,58.60965138543543L1101.2678664080302,58.59790069118901L1102.4860830744108,58.587135228975455L1103.7042997407914,58.57716275839823L1104.922516407172,58.56716625777142L1106.1407330735526,58.555607803921646L1107.358949739933,58.54529891265025L1108.5771664063136,58.53477375093257L1109.7953830726942,58.52561830204115L1111.0135997390746,58.51502105017477L1112.2318164054552,58.505144699795835L1113.4500330718358,58.49517222921861L1114.6682497382164,58.48332541477379L1115.8864664045968,58.472175471766946L1117.1046830709774,58.464269585453906L1118.322899737358,58.4562195188434L1119.5411164037387,58.44591062757195L1120.7593330701193,58.43786056096144L1121.9775497364997,58.42784003028498L1123.1957664028803,58.418636521294445L1124.413983069261,58.40924077190721L1125.6321997356415,58.4000612929662L1126.8504164020221,58.38939195095105L1128.0686330684025,58.380813223249675L1129.2868497347831,58.37269106649035L1130.5050664011637,58.36413636883856L1131.7232830675443,58.35154462285669L1132.941499733925,58.343398436047835L1134.1597164003056,58.33330581522267L1135.377933066686,58.322660503257055L1136.5961497330666,58.31352908441528L1137.8143663994472,58.30403721482969L1139.0325830658278,58.29476161569039L1140.2507997322082,58.28442869436935L1141.4690163985888,58.274816674535884L1142.6872330649694,58.26498838425613L1143.90544973135,58.25739488858767L1145.1236663977304,58.248792130836705L1146.341883064111,58.23862741986278L1147.5600997304916,58.22762165715346L1148.7783163968722,58.217817396923294L1149.9965330632526,58.208661948031875L1151.2147497296332,58.200635911470954L1152.4329663960139,58.19150449262912L1153.6511830623945,58.18210874324188L1154.869399728775,58.17369822588756L1156.0876163951557,58.16331724446741L1157.305833061536,58.15505090741061L1158.5240497279167,58.14589545851925L1159.7422663942973,58.137917482057446L1160.960483060678,58.127824861232284L1162.1786997270585,58.11984688477048L1163.396916393439,58.110979796474055L1164.6151330598195,58.10052672490514L1165.8333497262001,58.09125112576584L1167.0515663925808,58.08264836801487L1168.2697830589614,58.07428591075973L1169.4879997253418,58.06325611800082L1170.7062163917224,58.05443708980357L1171.924433058103,58.04453670937511L1173.1426497244836,58.03425184815325L1174.360866390864,58.02576924065022L1175.5790830572446,58.01534019913089L1176.7972997236252,58.00668938128075L1178.0155163900056,58.01312943456918L1179.2337330563862,58.023918926832266L1180.4519497227668,58.01620528091587L1181.6701663891474,58.00774670346243L1182.888383055528,57.99871140481895L1184.1065997219087,58.011519421247044L1185.324816388289,58.002003521611925L1186.5430330546696,57.99296822296844L1187.7612497210503,57.98417322482078L1188.9794663874309,57.993496884059255L1190.1976830538115,58.00637699063617L1191.4158997201919,57.99902379546353L1192.6341163865725,57.99099775890255L1193.852333052953,58.02598551109645L1195.0705497193337,58.01728663314714L1196.2887663857143,58.009092386239104L1197.506983052095,58.016974242502556L1198.7251997184753,58.007290132520325L1199.943416384856,57.998879615166004L1201.1616330512365,58.00841954485077L1202.379849717617,58.00058574868649L1203.5980663839975,58.00668938128075L1204.8162830503782,57.99799050333144L1206.0344997167588,57.98897923473754L1207.2527163831392,57.99479450673681L1208.4709330495198,58.003709655132354L1209.6891497159004,58.05217826514274L1210.907366382281,58.0438158078876L1212.1255830486616,58.054581270101096L1213.343799715042,58.05650367406781L1214.5620163814226,58.06222282586873L1215.7802330478032,58.054389029704396L1216.9984497141838,58.06414522983539L1218.2166663805644,58.05599904302653L1219.4348830469448,58.06613972395087L1220.6530997133254,58.05635949377029L1221.871316379706,58.04756449562262L1223.0895330460867,58.0555905321836L1224.3077497124673,58.06390492933957L1225.525966378848,58.07459830140431L1226.7441830452283,58.07817877879228L1227.962399711609,58.08764661832828L1229.1806163779895,58.095696684938844L1230.3988330443701,58.08839154986538L1231.6170497107505,58.09973373326892L1232.8352663771311,58.09115500556749L1234.0534830435117,58.08248015766782L1235.2716997098923,58.09105888536919L1236.4899163762727,58.10240106877268L1237.7081330426533,58.13496178595864L1238.926349709034,58.145318737329205L1240.1445663754146,58.13722061061952L1241.362783041795,58.1472892013951L1242.5809997081756,58.15264790245226L1243.7992163745562,58.158895715344045L1245.0174330409368,58.166200850417454L1246.2356497073174,58.15887168529446L1247.453866373698,58.16958908740878L1248.6720830400784,58.18340636591944L1249.890299706459,58.19152852267871L1251.1085163728396,58.275225185378815L1252.3267330392202,58.28558213674938L1253.5449497056009,58.29370429350871L1254.7631663719812,58.35361120712088L1255.9813830383619,58.3639681584915L1257.1995997047425,58.39210734655404L1258.417816371123,58.403473560007114L1259.6360330375037,58.46369286426392L1260.854249703884,58.45465756562044L1262.0724663702647,58.461746430247615L1263.2906830366453,58.51574195166228L1264.508899703026,58.52268663599193L1265.7271163694063,58.53092894299914L1266.945333035787,58.538017807626375L1268.1635497021675,58.54258351704726L1269.381766368548,58.55248389747578L1270.5999830349285,58.55945261185502L1271.8181997013091,59.16919108999235L1273.0364163676898,59.17524666248744L1274.2546330340704,59.258847204989195L1275.472849700451,59.26596009966596L1276.6910663668314,59.27417837662358L1277.909283033212,59.278599905747L1279.1274996995926,59.40886680454037L1280.3457163659732,59.418695094820066L1281.5639330323538,59.42580798949689L1282.7821496987342,59.43224804278532L1284.0003663651148,59.440490349792526L1285.2185830314954,59.44659398238679L1286.436799697876,59.45363478691485L1287.6550163642567,59.46067559144285L1288.8732330306373,59.467716395970854L1290.0914496970177,59.472450315738854L1291.3096663633983,59.4778330468456L1292.5278830297789,59.466106382648775L1293.7460996961593,59.47293091673055L1294.9643163625399,59.477184235506854L1296.1825330289205,59.50431416148689L1297.400749695301,59.509720922643226L1298.6189663616815,59.51495947345245L1299.837183028062,59.522264608525916L1301.0553996944427,59.52928138300439L1302.2736163608233,59.534375753516144L1303.491833027204,59.53915773338326L1304.7100496935843,59.540791776754986L1305.928266359965,59.54727989014259L1307.1464830263455,59.553167252290564L1308.3646996927262,59.560087906570686L1309.5829163591068,59.565566757875786L1310.8011330254872,59.570853368784185L1312.0193496918678,59.57698103142803L1313.2375663582484,59.58193122164232L1314.455783024629,59.587722463592L1315.6739996910096,59.59399430653332L1316.8922163573902,59.59985763863176L1318.1104330237706,59.60408692735848L1319.3286496901512,59.60853248653149L1320.5468663565318,59.61201684372111L1321.7650830229124,59.61689494378663L1322.9832996892928,59.62134050295958L1324.2015163556734,59.62600233257882L1325.419733022054,59.63008744100807L1326.6379496884347,59.63325940755311L1327.856166354815,59.637224365734426L1329.0743830211957,59.64287142738664L1330.2925996875763,59.64561085303916L1331.510816353957,59.649864171815466L1332.7290330203373,59.65411749059177L1333.947249686718,59.65774602807892L1335.1654663530985,59.66053351383067L1336.3836830194791,59.66341711978072L1337.6018996858597,59.665459673995315L1338.8201163522403,59.66908821148246L1340.0383330186207,59.67028971396161" fill="none"></path></g></g></g></g></g></g><g transform="translate(41, 377)" clip-path="url(#clip_1)"><clipPath id="clip_1"><rect width="1461" height="22"></rect></clipPath><g><g><line x1="0" y1="0" x2="0" y2="5" style="visibility: inherit;" fill="rgb(0, 0, 0)" stroke="rgb(204, 204, 204)" stroke-width="1px"></line><line x1="121.82166663805643" y1="0" x2="121.82166663805643" y2="5" style="visibility: inherit;" fill="rgb(0, 0, 0)" stroke="rgb(204, 204, 204)" stroke-width="1px"></line><line x1="243.64333327611286" y1="0" x2="243.64333327611286" y2="5" style="visibility: inherit;" fill="rgb(0, 0, 0)" stroke="rgb(204, 204, 204)" stroke-width="1px"></line><line x1="365.4649999141693" y1="0" x2="365.4649999141693" y2="5" style="visibility: inherit;" fill="rgb(0, 0, 0)" stroke="rgb(204, 204, 204)" stroke-width="1px"></line><line x1="487.2866665522257" y1="0" x2="487.2866665522257" y2="5" style="visibility: inherit;" fill="rgb(0, 0, 0)" stroke="rgb(204, 204, 204)" stroke-width="1px"></line><line x1="609.1083331902822" y1="0" x2="609.1083331902822" y2="5" style="visibility: inherit;" fill="rgb(0, 0, 0)" stroke="rgb(204, 204, 204)" stroke-width="1px"></line><line x1="730.9299998283386" y1="0" x2="730.9299998283386" y2="5" style="visibility: inherit;" fill="rgb(0, 0, 0)" stroke="rgb(204, 204, 204)" stroke-width="1px"></line><line x1="852.7516664663951" y1="0" x2="852.7516664663951" y2="5" style="visibility: inherit;" fill="rgb(0, 0, 0)" stroke="rgb(204, 204, 204)" stroke-width="1px"></line><line x1="974.5733331044514" y1="0" x2="974.5733331044514" y2="5" style="visibility: inherit;" fill="rgb(0, 0, 0)" stroke="rgb(204, 204, 204)" stroke-width="1px"></line><line x1="1096.394999742508" y1="0" x2="1096.394999742508" y2="5" style="visibility: inherit;" fill="rgb(0, 0, 0)" stroke="rgb(204, 204, 204)" stroke-width="1px"></line><line x1="1218.2166663805644" y1="0" x2="1218.2166663805644" y2="5" style="visibility: inherit;" fill="rgb(0, 0, 0)" stroke="rgb(204, 204, 204)" stroke-width="1px"></line><line x1="1340.0383330186207" y1="0" x2="1340.0383330186207" y2="5" style="visibility: inherit;" fill="rgb(0, 0, 0)" stroke="rgb(204, 204, 204)" stroke-width="1px"></line><line x1="1461.8599996566772" y1="0" x2="1461.8599996566772" y2="5" style="visibility: inherit;" fill="rgb(0, 0, 0)" stroke="rgb(204, 204, 204)" stroke-width="1px"></line></g><g transform="translate(0, 8)"><text style="text-anchor: middle; visibility: hidden; font-family: &quot;Helvetica Neue&quot;, sans-serif; font-size: 12px; font-weight: 200;" x="0" y="0" dx="0em" dy="0.95em" fill="rgb(50, 49, 63)" stroke="none" stroke-width="1px">-100</text><text style="text-anchor: middle; visibility: inherit; font-family: &quot;Helvetica Neue&quot;, sans-serif; font-size: 12px; font-weight: 200;" x="121.82166663805643" y="0" dx="0em" dy="0.95em" fill="rgb(50, 49, 63)" stroke="none" stroke-width="1px">0</text><text style="text-anchor: middle; visibility: inherit; font-family: &quot;Helvetica Neue&quot;, sans-serif; font-size: 12px; font-weight: 200;" x="243.64333327611286" y="0" dx="0em" dy="0.95em" fill="rgb(50, 49, 63)" stroke="none" stroke-width="1px">100</text><text style="text-anchor: middle; visibility: inherit; font-family: &quot;Helvetica Neue&quot;, sans-serif; font-size: 12px; font-weight: 200;" x="365.4649999141693" y="0" dx="0em" dy="0.95em" fill="rgb(50, 49, 63)" stroke="none" stroke-width="1px">200</text><text style="text-anchor: middle; visibility: inherit; font-family: &quot;Helvetica Neue&quot;, sans-serif; font-size: 12px; font-weight: 200;" x="487.2866665522257" y="0" dx="0em" dy="0.95em" fill="rgb(50, 49, 63)" stroke="none" stroke-width="1px">300</text><text style="text-anchor: middle; visibility: inherit; font-family: &quot;Helvetica Neue&quot;, sans-serif; font-size: 12px; font-weight: 200;" x="609.1083331902822" y="0" dx="0em" dy="0.95em" fill="rgb(50, 49, 63)" stroke="none" stroke-width="1px">400</text><text style="text-anchor: middle; visibility: inherit; font-family: &quot;Helvetica Neue&quot;, sans-serif; font-size: 12px; font-weight: 200;" x="730.9299998283386" y="0" dx="0em" dy="0.95em" fill="rgb(50, 49, 63)" stroke="none" stroke-width="1px">500</text><text style="text-anchor: middle; visibility: inherit; font-family: &quot;Helvetica Neue&quot;, sans-serif; font-size: 12px; font-weight: 200;" x="852.7516664663951" y="0" dx="0em" dy="0.95em" fill="rgb(50, 49, 63)" stroke="none" stroke-width="1px">600</text><text style="text-anchor: middle; visibility: inherit; font-family: &quot;Helvetica Neue&quot;, sans-serif; font-size: 12px; font-weight: 200;" x="974.5733331044514" y="0" dx="0em" dy="0.95em" fill="rgb(50, 49, 63)" stroke="none" stroke-width="1px">700</text><text style="text-anchor: middle; visibility: inherit; font-family: &quot;Helvetica Neue&quot;, sans-serif; font-size: 12px; font-weight: 200;" x="1096.394999742508" y="0" dx="0em" dy="0.95em" fill="rgb(50, 49, 63)" stroke="none" stroke-width="1px">800</text><text style="text-anchor: middle; visibility: inherit; font-family: &quot;Helvetica Neue&quot;, sans-serif; font-size: 12px; font-weight: 200;" x="1218.2166663805644" y="0" dx="0em" dy="0.95em" fill="rgb(50, 49, 63)" stroke="none" stroke-width="1px">900</text><text style="text-anchor: middle; visibility: inherit; font-family: &quot;Helvetica Neue&quot;, sans-serif; font-size: 12px; font-weight: 200;" x="1340.0383330186207" y="0" dx="0em" dy="0.95em" fill="rgb(50, 49, 63)" stroke="none" stroke-width="1px">1k</text><text style="text-anchor: middle; visibility: hidden; font-family: &quot;Helvetica Neue&quot;, sans-serif; font-size: 12px; font-weight: 200;" x="1461.8599996566772" y="0" dx="0em" dy="0.95em" fill="rgb(50, 49, 63)" stroke="none" stroke-width="1px">1.1k</text></g><line x1="0" y1="0" x2="1461.8599996566772" y2="0" fill="rgb(0, 0, 0)" stroke="rgb(204, 204, 204)" stroke-width="1px"></line></g></g></g></g></svg>