<svg viewBox="0 0 1503 400" xmlns="http://www.w3.org/2000/svg"><g><g><g><g><g><line x1="41.140000343322754" y1="377.95999908447266" x2="36.140000343322754" y2="377.95999908447266" style="visibility: inherit;" fill="rgb(0, 0, 0)" stroke="rgb(204, 204, 204)" stroke-width="1px"></line><line x1="41.140000343322754" y1="346.4633324940999" x2="36.140000343322754" y2="346.4633324940999" style="visibility: inherit;" fill="rgb(0, 0, 0)" stroke="rgb(204, 204, 204)" stroke-width="1px"></line><line x1="41.140000343322754" y1="314.96666590372723" x2="36.140000343322754" y2="314.96666590372723" style="visibility: inherit;" fill="rgb(0, 0, 0)" stroke="rgb(204, 204, 204)" stroke-width="1px"></line><line x1="41.140000343322754" y1="283.4699993133545" x2="36.140000343322754" y2="283.4699993133545" style="visibility: inherit;" fill="rgb(0, 0, 0)" stroke="rgb(204, 204, 204)" stroke-width="1px"></line><line x1="41.140000343322754" y1="251.97333272298178" x2="36.140000343322754" y2="251.97333272298178" style="visibility: inherit;" fill="rgb(0, 0, 0)" stroke="rgb(204, 204, 204)" stroke-width="1px"></line><line x1="41.140000343322754" y1="220.47666613260904" x2="36.140000343322754" y2="220.47666613260904" style="visibility: inherit;" fill="rgb(0, 0, 0)" stroke="rgb(204, 204, 204)" stroke-width="1px"></line><line x1="41.140000343322754" y1="188.97999954223633" x2="36.140000343322754" y2="188.97999954223633" style="visibility: inherit;" fill="rgb(0, 0, 0)" stroke="rgb(204, 204, 204)" stroke-width="1px"></line><line x1="41.140000343322754" y1="157.4833329518636" x2="36.140000343322754" y2="157.4833329518636" style="visibility: inherit;" fill="rgb(0, 0, 0)" stroke="rgb(204, 204, 204)" stroke-width="1px"></line><line x1="41.140000343322754" y1="125.9866663614909" x2="36.140000343322754" y2="125.9866663614909" style="visibility: inherit;" fill="rgb(0, 0, 0)" stroke="rgb(204, 204, 204)" stroke-width="1px"></line><line x1="41.140000343322754" y1="94.48999977111816" x2="36.140000343322754" y2="94.48999977111816" style="visibility: inherit;" fill="rgb(0, 0, 0)" stroke="rgb(204, 204, 204)" stroke-width="1px"></line><line x1="41.140000343322754" y1="62.993333180745424" x2="36.140000343322754" y2="62.993333180745424" style="visibility: inherit;" fill="rgb(0, 0, 0)" stroke="rgb(204, 204, 204)" stroke-width="1px"></line><line x1="41.140000343322754" y1="31.49666659037274" x2="36.140000343322754" y2="31.49666659037274" style="visibility: inherit;" fill="rgb(0, 0, 0)" stroke="rgb(204, 204, 204)" stroke-width="1px"></line><line x1="41.140000343322754" y1="0" x2="36.140000343322754" y2="0" style="visibility: inherit;" fill="rgb(0, 0, 0)" stroke="rgb(204, 204, 204)" stroke-width="1px"></line></g><g transform="translate(31.140000343322754, 0)"><text style="text-anchor: end; visibility: hidden; font-family: &quot;Helvetica Neue&quot;, sans-serif; font-size: 12px; font-weight: 200;" x="0" y="377.95999908447266" dx="0em" dy="0.3em" fill="rgb(50, 49, 63)" stroke="none" stroke-width="1px">-10</text><text style="text-anchor: end; visibility: inherit; font-family: &quot;Helvetica Neue&quot;, sans-serif; font-size: 12px; font-weight: 200;" x="0" y="346.4633324940999" dx="0em" dy="0.3em" fill="rgb(50, 49, 63)" stroke="none" stroke-width="1px">0</text><text style="text-anchor: end; visibility: inherit; font-family: &quot;Helvetica Neue&quot;, sans-serif; font-size: 12px; font-weight: 200;" x="0" y="314.96666590372723" dx="0em" dy="0.3em" fill="rgb(50, 49, 63)" stroke="none" stroke-width="1px">10</text><text style="text-anchor: end; visibility: inherit; font-family: &quot;Helvetica Neue&quot;, sans-serif; font-size: 12px; font-weight: 200;" x="0" y="283.4699993133545" dx="0em" dy="0.3em" fill="rgb(50, 49, 63)" stroke="none" stroke-width="1px">20</text><text style="text-anchor: end; visibility: inherit; font-family: &quot;Helvetica Neue&quot;, sans-serif; font-size: 12px; font-weight: 200;" x="0" y="251.97333272298178" dx="0em" dy="0.3em" fill="rgb(50, 49, 63)" stroke="none" stroke-width="1px">30</text><text style="text-anchor: end; visibility: inherit; font-family: &quot;Helvetica Neue&quot;, sans-serif; font-size: 12px; font-weight: 200;" x="0" y="220.47666613260904" dx="0em" dy="0.3em" fill="rgb(50, 49, 63)" stroke="none" stroke-width="1px">40</text><text style="text-anchor: end; visibility: inherit; font-family: &quot;Helvetica Neue&quot;, sans-serif; font-size: 12px; font-weight: 200;" x="0" y="188.97999954223633" dx="0em" dy="0.3em" fill="rgb(50, 49, 63)" stroke="none" stroke-width="1px">50</text><text style="text-anchor: end; visibility: inherit; font-family: &quot;Helvetica Neue&quot;, sans-serif; font-size: 12px; font-weight: 200;" x="0" y="157.4833329518636" dx="0em" dy="0.3em" fill="rgb(50, 49, 63)" stroke="none" stroke-width="1px">60</text><text style="text-anchor: end; visibility: inherit; font-family: &quot;Helvetica Neue&quot;, sans-serif; font-size: 12px; font-weight: 200;" x="0" y="125.9866663614909" dx="0em" dy="0.3em" fill="rgb(50, 49, 63)" stroke="none" stroke-width="1px">70</text><text style="text-anchor: end; visibility: inherit; font-family: &quot;Helvetica Neue&quot;, sans-serif; font-size: 12px; font-weight: 200;" x="0" y="94.48999977111816" dx="0em" dy="0.3em" fill="rgb(50, 49, 63)" stroke="none" stroke-width="1px">80</text><text style="text-anchor: end; visibility: inherit; font-family: &quot;Helvetica Neue&quot;, sans-serif; font-size: 12px; font-weight: 200;" x="0" y="62.993333180745424" dx="0em" dy="0.3em" fill="rgb(50, 49, 63)" stroke="none" stroke-width="1px">90</text><text style="text-anchor: end; visibility: inherit; font-family: &quot;Helvetica Neue&quot;, sans-serif; font-size: 12px; font-weight: 200;" x="0" y="31.49666659037274" dx="0em" dy="0.3em" fill="rgb(50, 49, 63)" stroke="none" stroke-width="1px">100</text><text style="text-anchor: end; visibility: hidden; font-family: &quot;Helvetica Neue&quot;, sans-serif; font-size: 12px; font-weight: 200;" x="0" y="0" dx="0em" dy="0.3em" fill="rgb(50, 49, 63)" stroke="none" stroke-width="1px">110</text></g><line x1="41.140000343322754" y1="0" x2="41.140000343322754" y2="377.95999908447266" fill="rgb(0, 0, 0)" stroke="rgb(204, 204, 204)" stroke-width="1px"></line></g></g><g transform="translate(41, 0)" clip-path="url(#clip_0)"><clipPath id="clip_0"><rect width="1461" height="377"></rect></clipPath><g><g><g><line x1="0" y1="0" x2="0" y2="377.95999908447266" fill="rgb(0, 0, 0)" stroke="rgb(60, 60, 60)" stroke-width="1px" opacity="0.25"></line><line x1="121.82166663805643" y1="0" x2="121.82166663805643" y2="377.95999908447266" fill="rgb(0, 0, 0)" stroke="rgb(60, 60, 60)" stroke-width="1px" opacity="0.25"></line><line x1="243.64333327611286" y1="0" x2="243.64333327611286" y2="377.95999908447266" fill="rgb(0, 0, 0)" stroke="rgb(60, 60, 60)" stroke-width="1px" opacity="0.25"></line><line x1="365.4649999141693" y1="0" x2="365.4649999141693" y2="377.95999908447266" fill="rgb(0, 0, 0)" stroke="rgb(60, 60, 60)" stroke-width="1px" opacity="0.25"></line><line x1="487.2866665522257" y1="0" x2="487.2866665522257" y2="377.95999908447266" fill="rgb(0, 0, 0)" stroke="rgb(60, 60, 60)" stroke-width="1px" opacity="0.25"></line><line x1="609.1083331902822" y1="0" x2="609.1083331902822" y2="377.95999908447266" fill="rgb(0, 0, 0)" stroke="rgb(60, 60, 60)" stroke-width="1px" opacity="0.25"></line><line x1="730.9299998283386" y1="0" x2="730.9299998283386" y2="377.95999908447266" fill="rgb(0, 0, 0)" stroke="rgb(60, 60, 60)" stroke-width="1px" opacity="0.25"></line><line x1="852.7516664663951" y1="0" x2="852.7516664663951" y2="377.95999908447266" fill="rgb(0, 0, 0)" stroke="rgb(60, 60, 60)" stroke-width="1px" opacity="0.25"></line><line x1="974.5733331044514" y1="0" x2="974.5733331044514" y2="377.95999908447266" fill="rgb(0, 0, 0)" stroke="rgb(60, 60, 60)" stroke-width="1px" opacity="0.25"></line><line x1="1096.394999742508" y1="0" x2="1096.394999742508" y2="377.95999908447266" fill="rgb(0, 0, 0)" stroke="rgb(60, 60, 60)" stroke-width="1px" opacity="0.25"></line><line x1="1218.2166663805644" y1="0" x2="1218.2166663805644" y2="377.95999908447266" fill="rgb(0, 0, 0)" stroke="rgb(60, 60, 60)" stroke-width="1px" opacity="0.25"></line><line x1="1340.0383330186207" y1="0" x2="1340.0383330186207" y2="377.95999908447266" fill="rgb(0, 0, 0)" stroke="rgb(60, 60, 60)" stroke-width="1px" opacity="0.25"></line><line x1="1461.8599996566772" y1="0" x2="1461.8599996566772" y2="377.95999908447266" fill="rgb(0, 0, 0)" stroke="rgb(60, 60, 60)" stroke-width="1px" opacity="0.25"></line></g><g><line x1="0" y1="377.95999908447266" x2="1461.8599996566772" y2="377.95999908447266" fill="rgb(0, 0, 0)" stroke="rgb(60, 60, 60)" stroke-width="1px" opacity="0.25"></line><line x1="0" y1="346.4633324940999" x2="1461.8599996566772" y2="346.4633324940999" fill="rgb(0, 0, 0)" stroke="rgb(60, 60, 60)" stroke-width="1px" opacity="0.25"></line><line x1="0" y1="314.96666590372723" x2="1461.8599996566772" y2="314.96666590372723" fill="rgb(0, 0, 0)" stroke="rgb(60, 60, 60)" stroke-width="1px" opacity="0.25"></line><line x1="0" y1="283.4699993133545" x2="1461.8599996566772" y2="283.4699993133545" fill="rgb(0, 0, 0)" stroke="rgb(60, 60, 60)" stroke-width="1px" opacity="0.25"></line><line x1="0" y1="251.97333272298178" x2="1461.8599996566772" y2="251.97333272298178" fill="rgb(0, 0, 0)" stroke="rgb(60, 60, 60)" stroke-width="1px" opacity="0.25"></line><line x1="0" y1="220.47666613260904" x2="1461.8599996566772" y2="220.47666613260904" fill="rgb(0, 0, 0)" stroke="rgb(60, 60, 60)" stroke-width="1px" opacity="0.25"></line><line x1="0" y1="188.97999954223633" x2="1461.8599996566772" y2="188.97999954223633" fill="rgb(0, 0, 0)" stroke="rgb(60, 60, 60)" stroke-width="1px" opacity="0.25"></line><line x1="0" y1="157.4833329518636" x2="1461.8599996566772" y2="157.4833329518636" fill="rgb(0, 0, 0)" stroke="rgb(60, 60, 60)" stroke-width="1px" opacity="0.25"></line><line x1="0" y1="125.9866663614909" x2="1461.8599996566772" y2="125.9866663614909" fill="rgb(0, 0, 0)" stroke="rgb(60, 60, 60)" stroke-width="1px" opacity="0.25"></line><line x1="0" y1="94.48999977111816" x2="1461.8599996566772" y2="94.48999977111816" fill="rgb(0, 0, 0)" stroke="rgb(60, 60, 60)" stroke-width="1px" opacity="0.25"></line><line x1="0" y1="62.993333180745424" x2="1461.8599996566772" y2="62.993333180745424" fill="rgb(0, 0, 0)" stroke="rgb(60, 60, 60)" stroke-width="1px" opacity="0.25"></line><line x1="0" y1="31.49666659037274" x2="1461.8599996566772" y2="31.49666659037274" fill="rgb(0, 0, 0)" stroke="rgb(60, 60, 60)" stroke-width="1px" opacity="0.25"></line><line x1="0" y1="0" x2="1461.8599996566772" y2="0" fill="rgb(0, 0, 0)" stroke="rgb(60, 60, 60)" stroke-width="1px" opacity="0.25"></line></g></g></g><g><g><line x1="0" y1="346.4633324940999" x2="1461.8599996566772" y2="346.4633324940999" fill="rgb(0, 0, 0)" stroke="rgb(153, 153, 153)" stroke-width="1.5px"></line></g></g><g><g><line x1="121.82166663805643" y1="0" x2="121.82166663805643" y2="377.95999908447266" fill="rgb(0, 0, 0)" stroke="rgb(153, 153, 153)" stroke-width="1.5px"></line></g></g><g><g><g><g><g><path style="fill: none;" stroke="rgb(0, 119, 187)" stroke-width="2px" d="M123.039883304437,196.3245919571035L124.25809997081757,277.5030977012211L125.47631663719812,229.16396159801613L126.6945333035787,200.92455621369177L127.91274996995925,191.74794886363622L129.13096663633982,174.06696278560483L130.3491833027204,208.5808183716598L131.56739996910096,237.29851786289848L132.78561663548152,224.41501103400878L134.00383330186207,216.64985670635215L135.22204996824266,203.4958436092985L136.4402666346232,191.504704686725L137.65848330100377,182.81811810778066L138.87669996738433,199.19921066860553L140.0949166337649,214.28115464376097L141.31313330014547,222.70299015141669L142.53134996652602,214.29765127280018L143.74956663290658,225.64615457935628L144.96778329928716,236.06026142287422L146.18599996566772,227.5929370313565L147.40421663204827,221.37321526755284L148.62243329842886,216.53101609613586L149.84064996480942,212.13255582033187L151.05886663118997,207.0041587583728L152.27708329757056,201.1688216677103L153.4952999639511,197.84348333119124L154.71351663033167,205.8041581572858L155.93173329671225,200.60475229880686L157.1499499630928,196.278382171754L158.36816662947336,191.5845445264669L159.58638329585392,187.60248896487442L160.8045999622345,184.26920869696795L162.02281662861506,190.3238079750571L163.24103329499562,186.6304253991138L164.4592499613762,183.23764672843802L165.67746662775676,179.53020657348824L166.8956832941373,176.1124847113446L168.1138999605179,173.53049192864833L169.33211662689845,170.56550821568672L170.550333293279,167.82843750800188L171.76854995965957,165.53631921343404L172.98676662604015,163.21371880096922L174.2049832924207,160.58662161520428L175.42319995880126,158.44042579673356L176.64141662518185,156.33492486723284L177.8596332915624,154.31117416641595L179.07784995794296,152.46793719807198L180.29606662432354,150.8671754450525L181.51428329070407,149.48663708144304L182.73249995708466,147.75759090872089L183.9507166234652,146.0274033086435L185.1689332898458,144.2772106922877L186.38714995622635,142.8650848285004L187.6053666226069,141.17598861321116L188.8235832889875,139.64154979704276L190.04179995536805,138.47996123021537L191.2600166217486,136.9451859933528L192.47823328812916,135.67949925172869L193.69644995450975,134.3688282572839L194.9146666208903,133.14024391221707L196.13288328727086,131.8429336253408L197.35109995365144,130.54761783258002L198.569316620032,129.45662955142956L199.78753328641255,128.25399765991315L201.00574995279314,127.15762664765595L202.2239666191737,126.00045960995195L203.44218328555425,125.05247415387421L204.66039995193483,124.32361871995042L205.8786166183154,123.69496859279073L207.09683328469595,122.42442778115074L208.3150499510765,121.53219204010725L209.5332666174571,120.64058108035289L210.75148328383764,119.83247454290199L211.9696999502182,119.08917704917837L213.18791661659878,118.23019889675874L214.40613328297934,117.54118528504478L215.6243499493599,116.68194280207973L216.84256661574048,115.97642054630171L218.06078328212104,115.14702338491963L219.2789999485016,114.83903023940513L220.49721661488218,114.14804616362528L221.71543328126273,113.41878221885855L222.9336499476433,112.88291211314157L224.15186661402382,112.08482610636713L225.37008328040443,111.41883328215431L226.58829994678499,110.77055060448475L227.8065166131655,110.21259688320038L229.02473327954613,109.62760935613431L230.24294994592665,108.93482302663568L231.4611666123072,108.44626808854906L232.67938327868782,107.90162701473406L233.89759994506835,107.32622747745188L235.1158166114489,106.82611408551554L236.33403327782946,106.39895592411534L237.55224994421005,105.9946263098197L238.7704666105906,105.49480127847829L239.98868327697116,104.99178025054232L241.20689994335174,104.41979298030105L242.4251166097323,104.0448040565471L243.64333327611286,101.082619844362L244.86154994249344,101.17898034319273L246.079766608874,97.50697249635414L247.29798327525455,97.33765676698727L248.51619994163514,96.958414524457L249.7344166080157,96.14007118588341L250.95263327439625,95.95984581400552L252.1708499407768,91.92532063914695L253.3890666071574,87.75086848556236L254.60728327353794,87.17897733551945L255.8254999399185,86.39514114814813L257.0437166062991,86.35885577327667L258.26193327267964,86.50361279196903L259.4801499390602,86.31735587764558L260.6983666054408,82.5510541162405L261.91658327182137,78.72438887028113L263.1347999382019,75.69496857936076L264.3530166045825,75.50354520437685L265.57123327096303,71.68089297669792L266.7894499373436,67.83315337725361L268.00766660372415,67.7934557353413L269.22588327010476,67.2565042773931L270.4440999364853,66.64066216666157L271.6623166028658,66.026261858905L272.8805332692464,65.6906101263196L274.098749935627,65.79218514590997L275.31696660200754,65.25609876974681L276.53518326838815,61.51978651022216L277.75339993476865,61.44760024127271L278.9716166011492,61.24678111690156L280.1898332675298,61.29375986383769L281.4080499339104,61.3249268381478L282.62626660029093,61.05108039309175L283.8444832666715,57.754061470007116L285.06269993305204,57.64477280450035L286.2809165994326,57.644676684302L287.49913326581316,57.71102365120265L288.71734993219377,57.72688348392791L289.9355665985743,57.44532339295546L291.1537832649549,57.42244678575179L292.37199993133544,57.32853735197858L293.590216597716,57.15547293487663L294.80843326409655,57.06713847260687L296.02664993047716,57.08787640539765L297.2448665968577,56.96647659490071L298.4630832632383,56.95220274544795L299.68129992961883,56.85999944519523L300.8995165959994,56.79646399409586L302.11773326237994,56.541817558657215L303.3359499287605,56.26153106031268L304.5541665951411,56.16264740627571L305.77238326152167,56.13239357384981L306.9905999279022,56.21205318821984L308.2088165942828,56.20311400977465L309.42703326066334,56.258287003618875L310.6452499270439,56.19722664762668L311.8634665934245,56.084237354484L313.08168325980506,56.049105421992635L314.2998999261856,55.95392239559152L315.5181165925662,55.941402739758416L316.73633325894673,55.92042450647182L317.9545499253273,55.98691565366994L319.17276659170784,56.04031042384497L320.39098325808845,55.97857722646438L321.609199924469,56.10922860605109L322.82741659084957,56.09086964816913L324.0456332572301,56.22976333476305L325.2638499236107,56.230580356448854L326.48206658999123,56.220247435127874L327.7002832563718,56.09610819897836L328.9184999227524,56.48140601400371L330.13671658913296,56.454780719064956L331.3549332555135,56.46545006108016L332.57314992189407,56.39295140148607L333.7913665882746,56.35291733887959L335.0095832546552,56.27878463591384L336.2277999210358,56.16548295212658L337.44601658741635,56.286618432078114L338.6642332537969,56.23673204914229L339.88244992017746,56.37216540859612L341.100666586558,56.00582730269235L342.3188832529386,55.90571811612659L343.53709991931913,56.06371569213951L344.75531658569975,55.924894095694356L345.9735332520803,55.991697633537115L347.19174991846086,55.97867334666273L348.4099665848414,56.02646911528478L349.62818325122197,55.99066434140502L350.8463999176025,55.960939170069935L352.06461658398314,55.964207256813324L353.2828332503637,55.755338065831666L354.50104991674425,55.81695111296432L355.7192665831248,55.74296259029603L356.93748324950536,55.78828326381091L358.1556999158859,55.70691751592045L359.3739165822665,55.56509216327737L360.5921332486471,55.4653674575049L361.81034991502764,55.433431521608156L363.02856658140814,55.47132690980169L364.24678324778876,55.3573523846261L365.4649999141693,55.50364732649177L366.6832165805499,55.548823819709185L367.9014332469304,55.36247078518744L369.119649913311,55.17265742352561L370.3378665796916,55.23861990963292L371.5560832460721,55.179626137904904L372.7742999124527,55.271084506620525L373.9925165788333,55.389504590969125L375.2107332452138,55.51852192718411L376.4289499115944,55.54800679802332L377.647166577975,55.50186910282258L378.8653832443555,55.434512873839424L380.0835999107361,55.337671774017L381.3018165771166,55.32779542363812L382.5200332434972,55.3140982953754L383.73824990987777,55.40942550207399L384.9564665762583,55.42408383232009L386.1746832426389,55.509967229532265L387.3928999090195,55.62223562118743L388.6111165754,55.66806092574359L389.8293332417806,55.623557273914514L391.04754990816116,55.86825526882552L392.2657665745417,56.01200302543538L393.48398324092227,56.04074296473749L394.7021999073029,56.13114401127143L395.9204165736834,56.00582730269235L397.138633240064,55.93491462637081L398.35684990644455,55.99335570695837L399.5750665728251,56.01447812054249L400.79328323920566,56.07436100410513L402.0114999055863,56.07200605924589L403.2297165719668,56.06160104777615L404.4479332383474,56.10134674978764L405.66614990472794,56.0024871258002L406.8843665711085,56.160941272755224L408.10258323748906,56.077893421393924L409.32079990386967,56.08068090714562L410.53901657025017,56.143831877451646L411.7572332366308,56.294836709035735L412.9754499030113,56.33515913223721L414.1936665693919,56.413617244128034L415.41188323577245,56.41972087672235L416.630099902153,56.342680537756905L417.84831656853356,56.41758220230935L419.0665332349142,56.44218897308309L420.2847499012947,56.354599442350434L421.5029665676753,56.33821094853437L422.72118323405584,56.37697141851288L423.9393999004364,56.39581097738653L425.15761656681696,56.417486082111054L426.37583323319757,56.4141459052189L427.59404989957807,56.37502498449663L428.8122665659587,56.26876410523738L430.03048323233924,56.16026843136689L431.2486998987198,56.18523565288439L432.46691656510035,56.23714055998522L433.68513323148096,56.21419186263279L434.90334989786146,56.2906314503586L436.1215665642421,56.276405661005015L437.33978323062263,56.28118764087219L438.5579998970032,56.220055194731174L439.77621656338374,56.10060181825054L440.99443322976435,56.035816804572846L442.21264989614485,56.058813562024454L443.43086656252547,55.88961798290546L444.64908322890597,55.83410856836707L445.8672998952866,55.68411299886549L447.08551656166713,55.55151518526253L448.30373322804763,55.15030947741275L449.52194989442825,54.93605755532434L450.74016656080886,54.87245001407621L451.95838322718936,54.85906527645807L453.17659989356997,54.89722499519701L454.3948165599505,54.8804520205876L455.613033226331,54.76220014658611L456.83124989271164,54.854235236491775L458.04946655909225,54.83061369775095L459.26768322547275,54.71183316265865L460.4858998918533,54.644116482931736L461.7041165582339,54.47917422258905L462.9223332246144,54.43628058408211L464.14054989099503,54.48256245958038L465.35876655737565,54.300847224628285L466.57698322375614,54.38663450164216L467.7951998901367,54.52531191778979L469.0134165565173,54.49474569471931L470.2316332228978,54.47006683379681L471.4498498892784,54.371952141346526L472.6680665556589,54.29971781229784L473.88628322203954,54.33706050935092L475.1044998884201,54.39785653479777L476.32271655480065,54.23947447799145L477.5409332211812,54.285131572200555L478.7591498875618,54.145853404813295L479.9773665539423,54.10598755255393L481.19558322032293,54.06592945989786L482.4137998867035,54.09668792336498L483.63201655308404,54.059345226311905L484.8502332194646,54.0655690091541L486.0684498858452,54.00378775167434L487.2866665522257,53.897502842365554L488.5048832186063,53.80998540178166L489.7230998849869,53.74308574374055L490.94131655136744,53.86729707003883L492.159533217748,53.81469529150007L493.3777498841286,53.75574957987118L494.5959665505091,53.68901813217718L495.8141832168897,53.61885038739274L497.0323998832703,53.52321079004952L498.25061654965083,53.426201479880035L499.4688332160314,53.38347605172021L500.687049882412,53.41579646841029L501.9052665487925,53.438408745068614L503.1234832151731,53.43225705237518L504.3416998815536,53.40923626487398L505.5599165479342,53.260874738744064L506.7781332143148,53.206903247379046L507.99634988069533,53.09485112617017L509.2145665470759,53.05606662614201L510.4327832134565,53.2407615872425L511.650999879837,53.23076508661569L512.8692165462176,53.141901963255066L514.0874332125982,53.02047812270854L515.3056498789787,53.027783257782005L516.5238665453593,52.926520628836215L517.7420832117399,52.92118595782864L518.9602998781204,52.95872089527836L520.178516544501,52.95521250803915L521.3967332108816,52.99060877107598L522.6149498772621,52.9760946211274L523.8331665436427,52.923372692340706L525.0513832100232,52.81607852094942L526.2695998764038,52.80096361976126L527.4878165427843,52.78075434806135L528.706033209165,52.61264012117368L529.9242498755455,52.5774360985335L531.1424665419261,52.58214598825191L532.3606832083067,52.48227710218197L533.5788998746872,52.412253537694994L534.7971165410678,52.552492907065584L536.0153332074483,52.51690440363211L537.2335498738289,52.467955192630086L538.4517665402095,52.46882027441512L539.66998320659,52.40028657300235L540.8881998729706,52.39086679356552L542.1064165393511,52.42083226539643L543.3246332057316,52.45327283233445L544.5428498721122,52.30421443476661L545.7610665384929,52.32862896514365L546.9792832048734,52.327956123755314L548.197499871254,52.32752358286285L549.4157165376346,52.40879321055496L550.6339332040151,52.43017995468449L551.8521498703957,52.39182799554885L553.0703665367763,52.382095825467445L554.2885832031568,52.36722122477511L555.5067998695373,52.325937599590304L556.7250165359179,52.29662093909815L557.9432332022984,52.34989555902524L559.161449868679,52.309597165873356L560.3796665350596,52.27814183096831L561.5978832014401,52.33992308844802L562.8160998678208,52.41398370126507L564.0343165342013,52.37527129138567L565.2525332005819,52.39954164146525L566.4707498669625,52.41386355101713L567.688966533343,52.464711135936284L568.9071831997236,52.471127159175126L570.1253998661041,52.66930297809205L571.3436165324847,52.7231302891596L572.5618331988652,52.61477879558663L573.7800498652458,52.55955774164323L574.9982665316263,52.49794469451058L576.2164831980069,52.48941402690832L577.4346998643875,52.5316828841261L578.652916530768,52.516952463731286L579.8711331971487,52.55725085688317L581.0893498635293,52.477014521323156L582.3075665299098,52.48246934257867L583.5257831962904,52.52759777569685L584.7439998626709,52.60497453535646L585.9622165290515,52.55407889033813L587.180433195432,52.58695199816867L588.3986498618126,52.4363797074771L589.6168665281931,52.29489077552813L590.8350831945737,52.27396060234071L592.0532998609543,52.2205177720665L593.2715165273348,52.1989868476395L594.4897331937154,52.22198360509111L595.7079498600959,52.222368085884455L596.9261665264765,52.242697507832304L598.1443831928572,52.265357844589744L599.3625998592377,52.28080916647207L600.5808165256183,52.28881117298346L601.7990331919988,52.263555590870965L603.0172498583794,52.26458888300306L604.2354665247599,52.30373383377497L605.4536831911405,52.34326326534017L606.671899857521,52.314355115690944L607.8901165239016,52.34756464421565L609.1083331902822,52.31368227430261L610.3265498566627,52.31745499208722L611.5447665230433,52.35885876752002L612.762983189424,52.28268351033961L613.9811998558044,52.29883170365986L615.1994165221851,52.32586550944154L616.4176331885656,52.31567676841803L617.6358498549462,52.30870805403879L618.8540665213267,52.29311255185894L620.0722831877073,52.30361368352703L621.2904998540878,52.3039501042212L622.5087165204684,52.315292287624686L623.726933186849,52.262089757846354L624.9451498532295,52.26759263920104L626.1633665196101,52.27653181764617L627.3815831859906,52.24625395517069L628.5997998523712,52.23327772839548L629.8180165187518,52.25466447252501L631.0362331851323,52.1926909746486L632.254449851513,51.98826734283989L633.4726665178935,52.041541962766985L634.690883184274,52.008981245581026L635.9090998506546,52.007082871663954L637.1273165170352,52.009197516027314L638.3455331834157,52.08006213224968L639.5637498497963,52.09882960097457L640.7819665161769,52.10457278282507L642.0001831825574,52.12531071561585L643.218399848938,52.169646157097816L644.4366165153186,52.119952014558635L645.6548331816991,52.17161662116365L646.8730498480796,52.183247165162186L648.0912665144602,52.19985192942454L649.3094831808407,52.27506598462156L650.5276998472214,52.292752101115184L651.745916513602,52.26182542730095L652.9641331799825,52.22441064009911L654.1823498463631,52.25985496323506L655.4005665127436,52.2434424393694L656.6187831791242,52.04050867063489L657.8369998455048,52.024072116719594L659.0552165118853,52.05189891413755L660.2734331782659,52.10190544732126L661.4916498446464,52.120144254955335L662.709866511027,52.119831864310754L663.9280831774075,52.09061132401695L665.1462998437881,52.06624485373902L666.3645165101686,52.11653974751778L667.5827331765493,52.09621032556993L668.8009498429299,52.07664986520882L670.0191665093104,52.057978516682226L671.237383175691,51.94760849894425L672.4555998420716,51.9335028598386L673.6738165084521,51.92862475977307L674.8920331748327,51.87398042701972L676.1102498412132,51.86162898153367L677.3284665075938,51.787904789410845L678.5466831739743,51.77355884980932L679.7648998403549,51.724369338311476L680.9831165067354,51.709302497222495L682.201333173116,51.724273218113126L683.4195498394967,51.71956332839471L684.6377665058772,51.67135904892979L685.8559831722578,51.652110979213205L687.0741998386383,51.69649448079434L688.2924165050189,51.6822927214904L689.5106331713995,51.66342913256716L690.72884983778,51.66561586707928L691.9470665041606,51.654826374816196L693.1652831705411,51.63103662572831L694.3834998369217,51.57668065356995L695.6017165033022,51.595520212443546L696.8199331696828,51.55755273410131L698.0381498360633,51.580044860511634L699.2563665024439,51.55613496117587L700.4745831688246,51.52987011698082L701.692799835205,51.53969840726057L702.9110165015857,51.647881690486486L704.1292331679663,51.65088544668447L705.3474498343468,51.659464174385846L706.5656665007274,51.60856852936752L707.7838831671079,51.63562636519879L709.0020998334885,51.60407491009539L710.220316499869,51.649251403312746L711.4385331662496,51.68354228406872L712.6567498326301,51.743040686838015L713.8749664990107,51.73100163199655L715.0931831653913,51.780335323791974L716.3113998317718,51.77408751090019L717.5296164981524,51.776730816354416L718.747833164533,51.808907052746974L719.9660498309136,51.81909579377049L721.1842664972942,51.789514802732924L722.4024831636747,51.78535760415497L723.6206998300553,51.790572124914604L724.8389164964358,51.83149529935571L726.0571331628163,51.79177362739381L727.2753498291969,51.80871481235033L728.4935664955775,51.85624625042692L729.711783161958,51.81522695578752L730.9299998283386,51.76382667972791L732.1482164947192,51.74347322773053L733.3664331610998,51.73422165864082L734.5846498274802,51.719323027898895L735.8028664938608,51.6822927214904L737.0210831602415,51.67520385686316L738.239299826622,51.65561936645247L739.4575164930026,51.65698907927873L740.6757331593832,51.64192223818975L741.8939498257637,51.664438394649665L743.1121664921442,51.643892702255584L744.3303831585248,51.608087928375824L745.5485998249054,51.61457604176343L746.766816491286,51.64074476576013L747.9850331576666,51.627552268538636L749.203249824047,51.645142264833964L750.4214664904276,51.644517483544746L751.6396831568082,51.59638529422858L752.8578998231887,51.6487948323707L754.0761164895694,51.65151022797363L755.29433315595,51.63480934351293L756.5125498223305,51.6395913233801L757.730766488711,51.64427718304893L758.9489831550916,51.62815301977827L760.1671998214722,51.571706433306076L761.3854164878528,51.54426411668152L762.6036331542332,51.47142903639326L763.8218498206138,51.41928382879655L765.0400664869944,51.32299542011458L766.258283153375,51.3476502509875L767.4764998197555,51.32023196441247L768.6947164861361,51.306823196744745L769.9129331525166,51.27303694703005L771.1311498188973,51.229975098176L772.3493664852778,51.310716064777296L773.5675831516584,51.28012581165723L774.785799818039,51.28012581165723L776.0040164844196,51.27080215241875L777.2222331508,51.241581612124946L778.4404498171806,51.24331177569496L779.6586664835612,51.23615082091902L780.8768831499418,51.23302691447316L782.0950998163223,51.20219636085727L783.3133164827029,51.1694674333242L784.5315331490834,51.157716739077784L785.749749815464,51.173624631902214L786.9679664818445,51.16485366380414L788.1861831482252,51.14608619507925L789.4043998146058,51.15082011484725L790.6226164809864,51.11600057300046L791.8408331473668,51.104946750191914L793.0590498137474,51.14209720684835L794.277266480128,51.12924113032108L795.4954831465086,51.117778796669654L796.7136998128891,51.11551997200877L797.9319164792696,51.11739431587631L799.1501331456502,51.14560559408761L800.3683498120308,51.1626909593416L801.5865664784113,51.16631949682875L802.8047831447919,51.16490172390331L804.0229998111726,51.16069646522618L805.2412164775529,51.137267166882054L806.4594331439336,51.11919656959509L807.6776498103142,51.120830612966756L808.8958664766948,51.08877452682208L810.1140831430754,51.121455394255975L811.3322998094559,51.128207838188985L812.5505164758364,51.131884435775305L813.768733142217,51.100501191018964L814.9869498085976,51.10855125762947L816.2051664749781,51.114510709926265L817.4233831413587,51.11691371488462L818.6415998077393,51.11564012225671L819.8598164741197,51.10569168172901L821.0780331405003,51.11811521736382L822.296249806881,51.10115000235771L823.5144664732616,51.163075440134946L824.7326831396422,51.11316502714959L825.9508998060226,51.103432857068185L827.1691164724032,51.0791865370382L828.3873331387838,51.06580179942006L829.6055498051643,51.07368365568351L830.8237664715449,51.032496150697L832.0419831379255,51.0239654830948L833.260199804306,50.974992242043186L834.4784164706865,51.097641615118505L835.6966331370671,51.08673197260748L836.9148498034477,51.073082904443936L838.1330664698283,51.06935824675844L839.351283136209,51.04193996018341L840.5694998025893,50.98830488951256L841.78771646897,50.965428282308835L843.0059331353506,50.934333398147544L844.2241498017311,50.92027581914107L845.4423664681117,50.918257294976L846.6605831344923,50.99779675909815L847.8787998008728,50.98578173430627L849.0970164672533,50.940028519898874L850.3152331336339,50.90405553567206L851.5334498000145,50.91066379930754L852.7516664663951,50.95221175503781L853.9698831327755,50.94094166178303L855.1880997991561,50.95461475999616L856.4063164655367,50.91609459051347L857.6245331319174,50.90395941547371L858.8427497982979,50.86332460162765L860.0609664646785,50.87348931260152L861.279183131059,50.846239236373606L862.4973997974396,50.841096805762675L863.7156164638201,50.865319095743075L864.9338331302007,50.864598194255564L866.1520497965813,50.862051008999686L867.3702664629619,50.878295322518284L868.5884831293423,50.85039643495162L869.8066997957229,50.890286317260575L871.0249164621035,50.891247519243905L872.2431331284841,50.8955248680698L873.4613497948646,50.88728256106259L874.6795664612453,50.8607293562726L875.8977831276258,50.8574852995788L877.1159997940064,50.83768453872182L878.3342164603869,50.80219215548664L879.5524331267675,50.81074685313848L880.7706497931481,50.79265222580193L881.9888664595287,50.81115536398136L883.2070831259091,50.798083017007855L884.4252997922897,50.80771906689091L885.6435164586703,50.809377140312165L886.8617331250509,50.82816863908664L888.0799497914314,50.81206850586557L889.2981664578119,50.774173117672035L890.5163831241925,50.56054597687279L891.7345997905732,50.554778764972696L892.9528164569537,50.539519683487015L894.1710331233343,50.440684089549165L895.3892497897149,50.47370137767723L896.6074664560953,50.4820157748332L897.8256831224759,50.48499550098154L899.0438997888565,50.48235219552737L900.2621164552371,50.48086233245317L901.4803331216177,50.48047785165983L902.6985497879982,50.455630780390265L903.9167664543787,50.45303553503521L905.1349831207593,50.45772139470404L906.3531997871399,50.42881324505481L907.5714164535204,50.40067405699227L908.789633119901,50.37791760003648L910.0078497862817,50.365542124500905L911.226066452662,50.37416891230146L912.4442831190427,50.36965126297969L913.6624997854233,50.398006721488514L914.8807164518039,50.39267205048088L916.0989331181845,50.385174675010774L917.3171497845649,50.38498243461413L918.5353664509455,50.364196441724175L919.7535831173261,50.35463248198988L920.9717997837066,50.363884051079594L922.1900164500872,50.3338945491991L923.4082331164678,50.33149154424075L924.6264497828483,50.31726575488722L925.8446664492288,50.3280552471503L927.0628831156095,50.32274460619226L928.2810997819901,50.31387751789589L929.4993164483707,50.3078219454008L930.7175331147513,50.30251130444282L931.9357497811317,50.28617087072587L933.1539664475123,50.270719548843545L934.3721831138929,50.2771115420328L935.5903997802734,50.27261792276062L936.808616446654,50.252288500812824L938.0268331130346,50.25252880130864L939.2450497794151,50.23222340941044L940.4632664457956,50.20607871546332L941.6814831121762,50.20377183070326L942.8996997785569,50.20156106614161L944.1179164449375,50.207736788884574L945.3361331113178,50.09659780955991L946.5543497776985,50.12492923801909L947.7725664440791,50.1446819387769L948.9907831104597,50.14376879689274L950.2089997768402,50.1439370072398L951.4272164432208,50.13475752829885L952.6454331096013,50.14795002552029L953.8636497759819,50.137328743604314L955.0818664423624,50.14703688363613L956.300083108743,49.98805407559024L957.5182997751236,50.00247210534047L958.7365164415042,50.00179926395214L959.9547331078846,50.03178876583263L961.1729497742652,50.04202556695526L962.3911664406459,50.0586543612672L963.6093831070265,50.06016825439099L964.827599773407,50.09914499481579L966.0458164397876,50.12295877395326L967.2640331061681,50.125097448366205L968.4822497725487,50.006124672877206L969.7004664389292,50.03188488603092L970.9186831053098,50.04365961032698L972.1368997716904,50.04414021131862L973.355116438071,50.06607964658855L974.5733331044514,50.0468796369712L975.791549770832,50.07026087521615L977.0097664372126,50.06290768004351L978.2279831035933,50.09525212678324L979.4461997699738,50.12411221633323L980.6644164363543,50.11337078416932L981.8826331027349,50.103302193393745L983.1008497691155,50.09945738546037L984.319066435496,50.111400320103485L985.5372831018766,50.115725729028554L986.7554997682572,50.134373047505505L987.9737164346376,50.167366305583926L989.1919331010182,50.14754151467736L990.4101497673988,50.15342887682539L991.6283664337794,50.14814226591699L992.84658310016,50.136679932265565L994.0647997665405,50.13264288393549L995.283016432921,50.1721482854511L996.5012330993017,50.1681592972202L997.7194497656823,50.168711988360656L998.9376664320628,50.16837556766649L1000.1558830984434,50.21489774366057L1001.374099764824,50.1908917241264L1002.5923164312044,50.205477964223746L1003.810533097585,50.17887669933458L1005.0287497639656,50.19305442858894L1006.2469664303462,50.209202621909185L1007.4651830967268,50.224557823593216L1008.6833997631072,50.19430399116732L1009.9016164294878,50.190531273382646L1011.1198330958684,50.21162965691718L1012.3380497622489,50.377340878846496L1013.5562664286296,50.5013119046489L1014.7744830950102,50.511909156515344L1015.9926997613907,50.50203280613641L1017.2109164277712,50.49876471939302L1018.4291330941518,50.49395870947626L1019.6473497605324,50.48158323394068L1020.865566426913,50.478531417643524L1022.0837830932936,50.47725782501561L1023.301999759674,50.480405761511065L1024.5202164260545,50.469135668256285L1025.7384330924351,50.47730588511479L1026.9566497588157,50.479901130469784L1028.1748664251963,50.47543154124725L1029.393083091577,50.483265337411524L1030.6112997579573,50.516546956084994L1031.829516424338,50.51613844524206L1033.0477330907186,50.506550455458125L1034.2659497570992,50.510106902796565L1035.4841664234798,50.51049138358991L1036.7023830898602,50.50393118005354L1037.9205997562408,50.513495139787835L1039.1388164226214,50.51613844524206L1040.357033089002,50.50330639876432L1041.5752497553826,50.49628962428591L1042.7934664217632,50.47730588511479L1044.0116830881436,50.5053008928798L1045.2298997545242,50.500230552417634L1046.4481164209049,50.516354715688294L1047.6663330872855,50.52925885231474L1048.8845497536659,50.54072118596622L1050.1027664200465,50.57212846077215L1051.320983086427,50.56941306516916L1052.5391997528077,50.557638340873154L1053.757416419188,50.57900105495304L1054.9756330855687,50.583879155018565L1056.1938497519493,50.5873394821586L1057.41206641833,50.59793673402504L1058.6302830847103,50.625499200897536L1059.848499751091,50.51779651866332L1061.0667164174715,50.527720929141424L1062.2849330838521,50.55622056794772L1063.5031497502328,50.53250290900854L1064.7213664166134,50.52911467201727L1065.9395830829937,50.522554468480905L1067.1577997493744,50.493381988286274L1068.376016415755,50.47600826243723L1069.5942330821356,50.45642377202654L1070.8124497485162,50.475984232387646L1072.0306664148966,50.47800275655271L1073.2488830812772,50.47487885010679L1074.4670997476578,50.492084365608775L1075.6853164140384,50.49479976121171L1076.903533080419,50.49739500656676L1078.1217497467994,50.48739850593995L1079.33996641318,50.496529924781726L1080.5581830795606,50.502849827822274L1081.7763997459413,50.496842315426306L1082.9946164123216,50.48403429899821L1084.2128330787023,50.48143905364316L1085.4310497450829,50.62542711074883L1086.6492664114633,50.60161333161136L1087.8674830778439,50.59180907138119L1089.0856997442245,50.58015449733307L1090.303916410605,50.5945725270833L1091.5221330769857,50.56941306516916L1092.7403497433663,50.5440853929079L1093.9585664097467,50.69540261513663L1095.1767830761273,50.67262212813125L1096.394999742508,50.70165042802836L1097.6132164088885,50.68499760366683L1098.8314330752692,50.66317831864484L1100.0496497416495,50.6639953403307L1101.2678664080302,50.6459968331925L1102.4860830744108,50.65419108010053L1103.7042997407914,50.66495654231403L1104.922516407172,50.691149296360265L1106.1407330735526,50.67783664889089L1107.358949739933,50.673126759172476L1108.5771664063136,50.658156038281845L1109.7953830726942,50.64662161448166L1111.0135997390746,50.64928894998542L1112.2318164054552,50.647823116960865L1113.4500330718358,50.63878781831738L1114.6682497382164,50.62489844965796L1115.8864664045968,50.626244132434636L1117.1046830709774,50.645299961754574L1118.322899737358,50.654167050050944L1119.5411164037387,50.63660108380526L1120.7593330701193,50.65020209186963L1121.9775497364997,50.64236829570535L1123.1957664028803,50.65707468605058L1124.413983069261,50.65013000172087L1125.6321997356415,50.6592614205627L1126.8504164020221,50.638980058714026L1128.0686330684025,50.64885640909296L1129.2868497347831,50.653830629356776L1130.5050664011637,50.69552276538451L1131.7232830675443,50.66685491623116L1132.941499733925,50.67562588432918L1134.1597164003056,50.66966643203244L1135.377933066686,50.536563987388206L1136.5961497330666,50.53089289568646L1137.8143663994472,50.55345711224555L1139.0325830658278,50.56410242421117L1140.2507997322082,50.56001731578192L1141.4690163985888,50.570085906557495L1142.6872330649694,50.56809141244207L1143.90544973135,50.58395124516733L1145.1236663977304,50.582509442192304L1146.341883064111,50.591136229992856L1147.5600997304916,50.56379003356659L1148.7783163968722,50.56727439075621L1149.9965330632526,50.583686914621865L1151.2147497296332,50.58762784275365L1152.4329663960139,50.57861657415975L1153.6511830623945,50.57779955247389L1154.869399728775,50.575877148507175L1156.0876163951557,50.56542407693826L1157.305833061536,50.56727439075621L1158.5240497279167,50.56638527892159L1159.7422663942973,50.577030590887205L1160.960483060678,50.561627329104056L1162.1786997270585,50.59522133842205L1163.396916393439,50.59923435670254L1164.6151330598195,50.58887740533197L1165.8333497262001,50.58294198308482L1167.0515663925808,50.576501929796336L1168.2697830589614,50.57748716182931L1169.4879997253418,50.548146471287566L1170.7062163917224,50.538966992346616L1171.924433058103,50.51265408805244L1173.1426497244836,50.50087936375638L1174.360866390864,50.514119921077L1175.5790830572446,50.481054572849814L1176.7972997236252,50.47295644614013L1178.0155163900056,50.6030311045368L1179.2337330563862,50.778810917241685L1180.4519497227668,50.78181467343967L1181.6701663891474,50.895885318813555L1182.888383055528,50.899898337094044L1184.1065997219087,51.07678353207979L1185.324816388289,51.076567261633556L1186.5430330546696,51.0699830280476L1187.7612497210503,51.07502933846018L1188.9794663874309,51.25008824967762L1190.1976830538115,51.44660599517323L1191.4158997201919,51.471380976294085L1192.6341163865725,51.46585406488981L1193.852333052953,51.845985419254646L1195.0705497193337,51.84971007694014L1196.2887663857143,51.85456414695608L1197.506983052095,51.99509187692166L1198.7251997184753,51.977598000824685L1199.943416384856,51.986441059071524L1201.1616330512365,52.13045314622673L1202.379849717617,52.13850321283729L1203.5980663839975,52.256154335599206L1204.8162830503782,52.272374619068216L1206.0344997167588,52.26254632878846L1207.2527163831392,52.25221340746742L1208.4709330495198,52.42626305660235L1209.6891497159004,52.92661674903451L1210.907366382281,52.92257970070449L1212.1255830486616,53.08872346352632L1213.343799715042,53.192244917132996L1214.5620163814226,53.33423848012319L1215.7802330478032,53.182152296307834L1216.9984497141838,53.35925376173981L1218.2166663805644,53.35786001886396L1219.4348830469448,53.53520178479181L1220.6530997133254,53.53765284984934L1221.871316379706,53.52832919061086L1223.0895330460867,53.689907244011806L1224.3077497124673,53.84677540769434L1225.525966378848,54.018878622812906L1226.7441830452283,54.12715802623717L1227.962399711609,54.30178439656203L1229.1806163779895,54.453966700575734L1230.3988330443701,54.46821651997891L1231.6170497107505,54.641593327725445L1232.8352663771311,54.64510171496465L1234.0534830435117,54.64197780851879L1235.2716997098923,54.79762043967253L1236.4899163762727,54.994066095019434L1237.7081330426533,55.38001272138354L1238.926349709034,55.53623207372732L1240.1445663754146,55.52464958982796L1241.362783041795,55.698482968516544L1242.5809997081756,55.81094360056835L1243.7992163745562,55.948179213741014L1245.0174330409368,56.08868291365701L1246.2356497073174,56.09577177828419L1247.453866373698,56.26830753429533L1248.6720830400784,56.481958705144166L1249.890299706459,56.62616303269607L1251.1085163728396,57.46822403020877L1252.3267330392202,57.6344639132289L1253.5449497056009,57.813631962925115L1254.7631663719812,58.43850937230019L1255.9813830383619,58.61902310477308L1257.1995997047425,58.97070288043079L1258.417816371123,59.15371573806044L1259.6360330375037,59.796976135367004L1260.854249703884,59.79156937421067L1262.0724663702647,59.94591438268691L1263.2906830366453,60.534650597487996L1264.508899703026,60.68467019703917L1265.7271163694063,60.8285381038969L1266.945333035787,60.97036345654004L1268.1635497021675,61.101831857812556L1269.381766368548,61.29114058843311L1270.5999830349285,61.442914381603885L1271.8181997013091,67.28570078763732L1273.0364163676898,67.42029309535576L1274.2546330340704,68.29928827907861L1275.472849700451,68.45694943439742L1276.6910663668314,68.61725389517039L1277.909283033212,68.75852655667308L1279.1274996995926,70.0789297211993L1280.3457163659732,70.26285572071305L1281.5639330323538,70.41169784783466L1282.7821496987342,70.57217051895469L1284.0003663651148,70.73194631863686L1285.2185830314954,70.87934664278339L1286.436799697876,71.04974372438153L1287.6550163642567,71.2102404255512L1288.8732330306373,71.36540245571331L1290.0914496970177,71.49660652644042L1291.3096663633983,71.65746367835379L1292.5278830297789,71.63458707115012L1293.7460996961593,71.79993784233568L1294.9643163625399,71.94404604968923L1296.1825330289205,72.29358715093406L1297.400749695301,72.45108009590575L1298.6189663616815,72.59158379582175L1299.837183028062,72.62171747799971L1301.0553996944427,72.61087992563745L1302.2736163608233,72.74242041705872L1303.491833027204,72.87782974646302L1304.7100496935843,72.98759901296143L1305.928266359965,72.9544135144863L1307.1464830263455,73.11046465648297L1308.3646996927262,73.27233107047891L1309.5829163591068,73.41855392219588L1310.8011330254872,73.40430410279271L1312.0193496918678,73.36679319539252L1313.2375663582484,73.49569038135962L1314.455783024629,73.63881335668026L1315.6739996910096,73.40793264027985L1316.8922163573902,73.55824060042602L1318.1104330237706,73.6880028681781L1319.3286496901512,73.67791024735294L1320.5468663565318,73.81384823784805L1321.7650830229124,73.95233341359904L1322.9832996892928,73.92806306351946L1324.2015163556734,74.05972370518867L1325.419733022054,74.06210268009744L1326.6379496884347,74.18720311823029L1327.856166354815,74.32304498852704L1329.0743830211957,74.34375889126824L1330.2925996875763,74.30771381689266L1331.510816353957,73.9331814640808L1332.7290330203373,74.06630793877463L1333.947249686718,74.0219965273422L1335.1654663530985,74.04879003262806L1336.3836830194791,74.04215773894299L1337.6018996858597,74.14916354973928L1338.8201163522403,74.11359907635534L1340.0383330186207,74.21495782549948" fill="none"></path></g></g></g></g></g></g><g transform="translate(41, 377)" clip-path="url(#clip_1)"><clipPath id="clip_1"><rect width="1461" height="22"></rect></clipPath><g><g><line x1="0" y1="0" x2="0" y2="5" style="visibility: inherit;" fill="rgb(0, 0, 0)" stroke="rgb(204, 204, 204)" stroke-width="1px"></line><line x1="121.82166663805643" y1="0" x2="121.82166663805643" y2="5" style="visibility: inherit;" fill="rgb(0, 0, 0)" stroke="rgb(204, 204, 204)" stroke-width="1px"></line><line x1="243.64333327611286" y1="0" x2="243.64333327611286" y2="5" style="visibility: inherit;" fill="rgb(0, 0, 0)" stroke="rgb(204, 204, 204)" stroke-width="1px"></line><line x1="365.4649999141693" y1="0" x2="365.4649999141693" y2="5" style="visibility: inherit;" fill="rgb(0, 0, 0)" stroke="rgb(204, 204, 204)" stroke-width="1px"></line><line x1="487.2866665522257" y1="0" x2="487.2866665522257" y2="5" style="visibility: inherit;" fill="rgb(0, 0, 0)" stroke="rgb(204, 204, 204)" stroke-width="1px"></line><line x1="609.1083331902822" y1="0" x2="609.1083331902822" y2="5" style="visibility: inherit;" fill="rgb(0, 0, 0)" stroke="rgb(204, 204, 204)" stroke-width="1px"></line><line x1="730.9299998283386" y1="0" x2="730.9299998283386" y2="5" style="visibility: inherit;" fill="rgb(0, 0, 0)" stroke="rgb(204, 204, 204)" stroke-width="1px"></line><line x1="852.7516664663951" y1="0" x2="852.7516664663951" y2="5" style="visibility: inherit;" fill="rgb(0, 0, 0)" stroke="rgb(204, 204, 204)" stroke-width="1px"></line><line x1="974.5733331044514" y1="0" x2="974.5733331044514" y2="5" style="visibility: inherit;" fill="rgb(0, 0, 0)" stroke="rgb(204, 204, 204)" stroke-width="1px"></line><line x1="1096.394999742508" y1="0" x2="1096.394999742508" y2="5" style="visibility: inherit;" fill="rgb(0, 0, 0)" stroke="rgb(204, 204, 204)" stroke-width="1px"></line><line x1="1218.2166663805644" y1="0" x2="1218.2166663805644" y2="5" style="visibility: inherit;" fill="rgb(0, 0, 0)" stroke="rgb(204, 204, 204)" stroke-width="1px"></line><line x1="1340.0383330186207" y1="0" x2="1340.0383330186207" y2="5" style="visibility: inherit;" fill="rgb(0, 0, 0)" stroke="rgb(204, 204, 204)" stroke-width="1px"></line><line x1="1461.8599996566772" y1="0" x2="1461.8599996566772" y2="5" style="visibility: inherit;" fill="rgb(0, 0, 0)" stroke="rgb(204, 204, 204)" stroke-width="1px"></line></g><g transform="translate(0, 8)"><text style="text-anchor: middle; visibility: hidden; font-family: &quot;Helvetica Neue&quot;, sans-serif; font-size: 12px; font-weight: 200;" x="0" y="0" dx="0em" dy="0.95em" fill="rgb(50, 49, 63)" stroke="none" stroke-width="1px">-100</text><text style="text-anchor: middle; visibility: inherit; font-family: &quot;Helvetica Neue&quot;, sans-serif; font-size: 12px; font-weight: 200;" x="121.82166663805643" y="0" dx="0em" dy="0.95em" fill="rgb(50, 49, 63)" stroke="none" stroke-width="1px">0</text><text style="text-anchor: middle; visibility: inherit; font-family: &quot;Helvetica Neue&quot;, sans-serif; font-size: 12px; font-weight: 200;" x="243.64333327611286" y="0" dx="0em" dy="0.95em" fill="rgb(50, 49, 63)" stroke="none" stroke-width="1px">100</text><text style="text-anchor: middle; visibility: inherit; font-family: &quot;Helvetica Neue&quot;, sans-serif; font-size: 12px; font-weight: 200;" x="365.4649999141693" y="0" dx="0em" dy="0.95em" fill="rgb(50, 49, 63)" stroke="none" stroke-width="1px">200</text><text style="text-anchor: middle; visibility: inherit; font-family: &quot;Helvetica Neue&quot;, sans-serif; font-size: 12px; font-weight: 200;" x="487.2866665522257" y="0" dx="0em" dy="0.95em" fill="rgb(50, 49, 63)" stroke="none" stroke-width="1px">300</text><text style="text-anchor: middle; visibility: inherit; font-family: &quot;Helvetica Neue&quot;, sans-serif; font-size: 12px; font-weight: 200;" x="609.1083331902822" y="0" dx="0em" dy="0.95em" fill="rgb(50, 49, 63)" stroke="none" stroke-width="1px">400</text><text style="text-anchor: middle; visibility: inherit; font-family: &quot;Helvetica Neue&quot;, sans-serif; font-size: 12px; font-weight: 200;" x="730.9299998283386" y="0" dx="0em" dy="0.95em" fill="rgb(50, 49, 63)" stroke="none" stroke-width="1px">500</text><text style="text-anchor: middle; visibility: inherit; font-family: &quot;Helvetica Neue&quot;, sans-serif; font-size: 12px; font-weight: 200;" x="852.7516664663951" y="0" dx="0em" dy="0.95em" fill="rgb(50, 49, 63)" stroke="none" stroke-width="1px">600</text><text style="text-anchor: middle; visibility: inherit; font-family: &quot;Helvetica Neue&quot;, sans-serif; font-size: 12px; font-weight: 200;" x="974.5733331044514" y="0" dx="0em" dy="0.95em" fill="rgb(50, 49, 63)" stroke="none" stroke-width="1px">700</text><text style="text-anchor: middle; visibility: inherit; font-family: &quot;Helvetica Neue&quot;, sans-serif; font-size: 12px; font-weight: 200;" x="1096.394999742508" y="0" dx="0em" dy="0.95em" fill="rgb(50, 49, 63)" stroke="none" stroke-width="1px">800</text><text style="text-anchor: middle; visibility: inherit; font-family: &quot;Helvetica Neue&quot;, sans-serif; font-size: 12px; font-weight: 200;" x="1218.2166663805644" y="0" dx="0em" dy="0.95em" fill="rgb(50, 49, 63)" stroke="none" stroke-width="1px">900</text><text style="text-anchor: middle; visibility: inherit; font-family: &quot;Helvetica Neue&quot;, sans-serif; font-size: 12px; font-weight: 200;" x="1340.0383330186207" y="0" dx="0em" dy="0.95em" fill="rgb(50, 49, 63)" stroke="none" stroke-width="1px">1k</text><text style="text-anchor: middle; visibility: hidden; font-family: &quot;Helvetica Neue&quot;, sans-serif; font-size: 12px; font-weight: 200;" x="1461.8599996566772" y="0" dx="0em" dy="0.95em" fill="rgb(50, 49, 63)" stroke="none" stroke-width="1px">1.1k</text></g><line x1="0" y1="0" x2="1461.8599996566772" y2="0" fill="rgb(0, 0, 0)" stroke="rgb(204, 204, 204)" stroke-width="1px"></line></g></g></g></g></svg>