<svg viewBox="0 0 1503 400" xmlns="http://www.w3.org/2000/svg"><g><g><g><g><g><line x1="51.52000045776367" y1="377.95999908447266" x2="46.52000045776367" y2="377.95999908447266" style="visibility: inherit;" fill="rgb(0, 0, 0)" stroke="rgb(204, 204, 204)" stroke-width="1px"></line><line x1="51.52000045776367" y1="350.9628562927246" x2="46.52000045776367" y2="350.9628562927246" style="visibility: inherit;" fill="rgb(0, 0, 0)" stroke="rgb(204, 204, 204)" stroke-width="1px"></line><line x1="51.52000045776367" y1="323.96571350097656" x2="46.52000045776367" y2="323.96571350097656" style="visibility: inherit;" fill="rgb(0, 0, 0)" stroke="rgb(204, 204, 204)" stroke-width="1px"></line><line x1="51.52000045776367" y1="296.9685707092285" x2="46.52000045776367" y2="296.9685707092285" style="visibility: inherit;" fill="rgb(0, 0, 0)" stroke="rgb(204, 204, 204)" stroke-width="1px"></line><line x1="51.52000045776367" y1="269.97142791748047" x2="46.52000045776367" y2="269.97142791748047" style="visibility: inherit;" fill="rgb(0, 0, 0)" stroke="rgb(204, 204, 204)" stroke-width="1px"></line><line x1="51.52000045776367" y1="242.97428512573242" x2="46.52000045776367" y2="242.97428512573242" style="visibility: inherit;" fill="rgb(0, 0, 0)" stroke="rgb(204, 204, 204)" stroke-width="1px"></line><line x1="51.52000045776367" y1="215.97714233398438" x2="46.52000045776367" y2="215.97714233398438" style="visibility: inherit;" fill="rgb(0, 0, 0)" stroke="rgb(204, 204, 204)" stroke-width="1px"></line><line x1="51.52000045776367" y1="188.97999954223633" x2="46.52000045776367" y2="188.97999954223633" style="visibility: inherit;" fill="rgb(0, 0, 0)" stroke="rgb(204, 204, 204)" stroke-width="1px"></line><line x1="51.52000045776367" y1="161.98285675048828" x2="46.52000045776367" y2="161.98285675048828" style="visibility: inherit;" fill="rgb(0, 0, 0)" stroke="rgb(204, 204, 204)" stroke-width="1px"></line><line x1="51.52000045776367" y1="134.9857139587402" x2="46.52000045776367" y2="134.9857139587402" style="visibility: inherit;" fill="rgb(0, 0, 0)" stroke="rgb(204, 204, 204)" stroke-width="1px"></line><line x1="51.52000045776367" y1="107.98857116699219" x2="46.52000045776367" y2="107.98857116699219" style="visibility: inherit;" fill="rgb(0, 0, 0)" stroke="rgb(204, 204, 204)" stroke-width="1px"></line><line x1="51.52000045776367" y1="80.99142837524414" x2="46.52000045776367" y2="80.99142837524414" style="visibility: inherit;" fill="rgb(0, 0, 0)" stroke="rgb(204, 204, 204)" stroke-width="1px"></line><line x1="51.52000045776367" y1="53.994285583496094" x2="46.52000045776367" y2="53.994285583496094" style="visibility: inherit;" fill="rgb(0, 0, 0)" stroke="rgb(204, 204, 204)" stroke-width="1px"></line><line x1="51.52000045776367" y1="26.997142791748047" x2="46.52000045776367" y2="26.997142791748047" style="visibility: inherit;" fill="rgb(0, 0, 0)" stroke="rgb(204, 204, 204)" stroke-width="1px"></line><line x1="51.52000045776367" y1="0" x2="46.52000045776367" y2="0" style="visibility: inherit;" fill="rgb(0, 0, 0)" stroke="rgb(204, 204, 204)" stroke-width="1px"></line></g><g transform="translate(41.52000045776367, 0)"><text style="text-anchor: end; visibility: hidden; font-family: &quot;Helvetica Neue&quot;, sans-serif; font-size: 12px; font-weight: 200;" x="0" y="377.95999908447266" dx="0em" dy="0.3em" fill="rgb(50, 49, 63)" stroke="none" stroke-width="1px">-140</text><text style="text-anchor: end; visibility: inherit; font-family: &quot;Helvetica Neue&quot;, sans-serif; font-size: 12px; font-weight: 200;" x="0" y="350.9628562927246" dx="0em" dy="0.3em" fill="rgb(50, 49, 63)" stroke="none" stroke-width="1px">-120</text><text style="text-anchor: end; visibility: inherit; font-family: &quot;Helvetica Neue&quot;, sans-serif; font-size: 12px; font-weight: 200;" x="0" y="323.96571350097656" dx="0em" dy="0.3em" fill="rgb(50, 49, 63)" stroke="none" stroke-width="1px">-100</text><text style="text-anchor: end; visibility: inherit; font-family: &quot;Helvetica Neue&quot;, sans-serif; font-size: 12px; font-weight: 200;" x="0" y="296.9685707092285" dx="0em" dy="0.3em" fill="rgb(50, 49, 63)" stroke="none" stroke-width="1px">-80</text><text style="text-anchor: end; visibility: inherit; font-family: &quot;Helvetica Neue&quot;, sans-serif; font-size: 12px; font-weight: 200;" x="0" y="269.97142791748047" dx="0em" dy="0.3em" fill="rgb(50, 49, 63)" stroke="none" stroke-width="1px">-60</text><text style="text-anchor: end; visibility: inherit; font-family: &quot;Helvetica Neue&quot;, sans-serif; font-size: 12px; font-weight: 200;" x="0" y="242.97428512573242" dx="0em" dy="0.3em" fill="rgb(50, 49, 63)" stroke="none" stroke-width="1px">-40</text><text style="text-anchor: end; visibility: inherit; font-family: &quot;Helvetica Neue&quot;, sans-serif; font-size: 12px; font-weight: 200;" x="0" y="215.97714233398438" dx="0em" dy="0.3em" fill="rgb(50, 49, 63)" stroke="none" stroke-width="1px">-20</text><text style="text-anchor: end; visibility: inherit; font-family: &quot;Helvetica Neue&quot;, sans-serif; font-size: 12px; font-weight: 200;" x="0" y="188.97999954223633" dx="0em" dy="0.3em" fill="rgb(50, 49, 63)" stroke="none" stroke-width="1px">0</text><text style="text-anchor: end; visibility: inherit; font-family: &quot;Helvetica Neue&quot;, sans-serif; font-size: 12px; font-weight: 200;" x="0" y="161.98285675048828" dx="0em" dy="0.3em" fill="rgb(50, 49, 63)" stroke="none" stroke-width="1px">20</text><text style="text-anchor: end; visibility: inherit; font-family: &quot;Helvetica Neue&quot;, sans-serif; font-size: 12px; font-weight: 200;" x="0" y="134.9857139587402" dx="0em" dy="0.3em" fill="rgb(50, 49, 63)" stroke="none" stroke-width="1px">40</text><text style="text-anchor: end; visibility: inherit; font-family: &quot;Helvetica Neue&quot;, sans-serif; font-size: 12px; font-weight: 200;" x="0" y="107.98857116699219" dx="0em" dy="0.3em" fill="rgb(50, 49, 63)" stroke="none" stroke-width="1px">60</text><text style="text-anchor: end; visibility: inherit; font-family: &quot;Helvetica Neue&quot;, sans-serif; font-size: 12px; font-weight: 200;" x="0" y="80.99142837524414" dx="0em" dy="0.3em" fill="rgb(50, 49, 63)" stroke="none" stroke-width="1px">80</text><text style="text-anchor: end; visibility: inherit; font-family: &quot;Helvetica Neue&quot;, sans-serif; font-size: 12px; font-weight: 200;" x="0" y="53.994285583496094" dx="0em" dy="0.3em" fill="rgb(50, 49, 63)" stroke="none" stroke-width="1px">100</text><text style="text-anchor: end; visibility: inherit; font-family: &quot;Helvetica Neue&quot;, sans-serif; font-size: 12px; font-weight: 200;" x="0" y="26.997142791748047" dx="0em" dy="0.3em" fill="rgb(50, 49, 63)" stroke="none" stroke-width="1px">120</text><text style="text-anchor: end; visibility: hidden; font-family: &quot;Helvetica Neue&quot;, sans-serif; font-size: 12px; font-weight: 200;" x="0" y="0" dx="0em" dy="0.3em" fill="rgb(50, 49, 63)" stroke="none" stroke-width="1px">140</text></g><line x1="51.52000045776367" y1="0" x2="51.52000045776367" y2="377.95999908447266" fill="rgb(0, 0, 0)" stroke="rgb(204, 204, 204)" stroke-width="1px"></line></g></g><g transform="translate(51, 0)" clip-path="url(#clip_0)"><clipPath id="clip_0"><rect width="1451" height="377"></rect></clipPath><g><g><g><line x1="0" y1="0" x2="0" y2="377.95999908447266" fill="rgb(0, 0, 0)" stroke="rgb(60, 60, 60)" stroke-width="1px" opacity="0.25"></line><line x1="120.95666662851968" y1="0" x2="120.95666662851968" y2="377.95999908447266" fill="rgb(0, 0, 0)" stroke="rgb(60, 60, 60)" stroke-width="1px" opacity="0.25"></line><line x1="241.91333325703937" y1="0" x2="241.91333325703937" y2="377.95999908447266" fill="rgb(0, 0, 0)" stroke="rgb(60, 60, 60)" stroke-width="1px" opacity="0.25"></line><line x1="362.8699998855591" y1="0" x2="362.8699998855591" y2="377.95999908447266" fill="rgb(0, 0, 0)" stroke="rgb(60, 60, 60)" stroke-width="1px" opacity="0.25"></line><line x1="483.82666651407874" y1="0" x2="483.82666651407874" y2="377.95999908447266" fill="rgb(0, 0, 0)" stroke="rgb(60, 60, 60)" stroke-width="1px" opacity="0.25"></line><line x1="604.7833331425985" y1="0" x2="604.7833331425985" y2="377.95999908447266" fill="rgb(0, 0, 0)" stroke="rgb(60, 60, 60)" stroke-width="1px" opacity="0.25"></line><line x1="725.7399997711182" y1="0" x2="725.7399997711182" y2="377.95999908447266" fill="rgb(0, 0, 0)" stroke="rgb(60, 60, 60)" stroke-width="1px" opacity="0.25"></line><line x1="846.6966663996379" y1="0" x2="846.6966663996379" y2="377.95999908447266" fill="rgb(0, 0, 0)" stroke="rgb(60, 60, 60)" stroke-width="1px" opacity="0.25"></line><line x1="967.6533330281575" y1="0" x2="967.6533330281575" y2="377.95999908447266" fill="rgb(0, 0, 0)" stroke="rgb(60, 60, 60)" stroke-width="1px" opacity="0.25"></line><line x1="1088.6099996566772" y1="0" x2="1088.6099996566772" y2="377.95999908447266" fill="rgb(0, 0, 0)" stroke="rgb(60, 60, 60)" stroke-width="1px" opacity="0.25"></line><line x1="1209.566666285197" y1="0" x2="1209.566666285197" y2="377.95999908447266" fill="rgb(0, 0, 0)" stroke="rgb(60, 60, 60)" stroke-width="1px" opacity="0.25"></line><line x1="1330.5233329137166" y1="0" x2="1330.5233329137166" y2="377.95999908447266" fill="rgb(0, 0, 0)" stroke="rgb(60, 60, 60)" stroke-width="1px" opacity="0.25"></line><line x1="1451.4799995422363" y1="0" x2="1451.4799995422363" y2="377.95999908447266" fill="rgb(0, 0, 0)" stroke="rgb(60, 60, 60)" stroke-width="1px" opacity="0.25"></line></g><g><line x1="0" y1="377.95999908447266" x2="1451.4799995422363" y2="377.95999908447266" fill="rgb(0, 0, 0)" stroke="rgb(60, 60, 60)" stroke-width="1px" opacity="0.25"></line><line x1="0" y1="350.9628562927246" x2="1451.4799995422363" y2="350.9628562927246" fill="rgb(0, 0, 0)" stroke="rgb(60, 60, 60)" stroke-width="1px" opacity="0.25"></line><line x1="0" y1="323.96571350097656" x2="1451.4799995422363" y2="323.96571350097656" fill="rgb(0, 0, 0)" stroke="rgb(60, 60, 60)" stroke-width="1px" opacity="0.25"></line><line x1="0" y1="296.9685707092285" x2="1451.4799995422363" y2="296.9685707092285" fill="rgb(0, 0, 0)" stroke="rgb(60, 60, 60)" stroke-width="1px" opacity="0.25"></line><line x1="0" y1="269.97142791748047" x2="1451.4799995422363" y2="269.97142791748047" fill="rgb(0, 0, 0)" stroke="rgb(60, 60, 60)" stroke-width="1px" opacity="0.25"></line><line x1="0" y1="242.97428512573242" x2="1451.4799995422363" y2="242.97428512573242" fill="rgb(0, 0, 0)" stroke="rgb(60, 60, 60)" stroke-width="1px" opacity="0.25"></line><line x1="0" y1="215.97714233398438" x2="1451.4799995422363" y2="215.97714233398438" fill="rgb(0, 0, 0)" stroke="rgb(60, 60, 60)" stroke-width="1px" opacity="0.25"></line><line x1="0" y1="188.97999954223633" x2="1451.4799995422363" y2="188.97999954223633" fill="rgb(0, 0, 0)" stroke="rgb(60, 60, 60)" stroke-width="1px" opacity="0.25"></line><line x1="0" y1="161.98285675048828" x2="1451.4799995422363" y2="161.98285675048828" fill="rgb(0, 0, 0)" stroke="rgb(60, 60, 60)" stroke-width="1px" opacity="0.25"></line><line x1="0" y1="134.9857139587402" x2="1451.4799995422363" y2="134.9857139587402" fill="rgb(0, 0, 0)" stroke="rgb(60, 60, 60)" stroke-width="1px" opacity="0.25"></line><line x1="0" y1="107.98857116699219" x2="1451.4799995422363" y2="107.98857116699219" fill="rgb(0, 0, 0)" stroke="rgb(60, 60, 60)" stroke-width="1px" opacity="0.25"></line><line x1="0" y1="80.99142837524414" x2="1451.4799995422363" y2="80.99142837524414" fill="rgb(0, 0, 0)" stroke="rgb(60, 60, 60)" stroke-width="1px" opacity="0.25"></line><line x1="0" y1="53.994285583496094" x2="1451.4799995422363" y2="53.994285583496094" fill="rgb(0, 0, 0)" stroke="rgb(60, 60, 60)" stroke-width="1px" opacity="0.25"></line><line x1="0" y1="26.997142791748047" x2="1451.4799995422363" y2="26.997142791748047" fill="rgb(0, 0, 0)" stroke="rgb(60, 60, 60)" stroke-width="1px" opacity="0.25"></line><line x1="0" y1="0" x2="1451.4799995422363" y2="0" fill="rgb(0, 0, 0)" stroke="rgb(60, 60, 60)" stroke-width="1px" opacity="0.25"></line></g></g></g><g><g><line x1="0" y1="188.97999954223633" x2="1451.4799995422363" y2="188.97999954223633" fill="rgb(0, 0, 0)" stroke="rgb(153, 153, 153)" stroke-width="1.5px"></line></g></g><g><g><line x1="120.95666662851968" y1="0" x2="120.95666662851968" y2="377.95999908447266" fill="rgb(0, 0, 0)" stroke="rgb(153, 153, 153)" stroke-width="1.5px"></line></g></g><g><g><g><g><g><path style="fill: none;" stroke="rgb(0, 119, 187)" stroke-width="2px" d="M122.1662332948049,60.289650510525064L123.3757999610901,229.00718697988378L124.58536662737528,76.55851244120129L125.79493329366049,78.19582389963762L127.00449995994568,103.00925824908262L128.21406662623087,69.63045347295412L129.4236332925161,233.42903965074146L130.63319995880127,240.65578870245008L131.84276662508648,86.98006001792965L133.05233329137167,100.06637874887383L134.26189995765685,65.69647345841804L135.47146662394206,60.90041884793027L136.68103329022725,70.44962413180622L137.89059995651246,224.153398458839L139.10016662279764,229.28584372593687L140.30973328908283,193.68953760661617L141.51929995536804,71.09869293538361L142.72886662165322,224.74683683941404L143.93843328793844,226.46494848135953L145.14799995422365,65.45852447457582L146.35756662050883,79.39242768157271L147.56713328679402,87.63971577478077L148.7766999530792,88.05332785394421L149.98626661936441,76.46260164758422L151.19583328564963,64.18943919736779L152.4053999519348,88.23207022847635L153.61496661822002,220.81379399681174L154.8245332845052,64.07632975397718L156.0340999507904,70.84443098073825L157.2436666170756,62.25396288369666L158.4532332833608,67.9923799186596L159.662799949646,73.75471028582251L160.8723666159312,207.692310721166L162.0819332822164,66.66236816716412L163.29149994850158,68.13453139340419L164.50106661478677,60.2367054455637L165.71063328107198,61.777127744078484L166.9201999473572,72.816302520936L168.12976661364237,64.03765853846852L169.3393332799276,65.5010473637463L170.54889994621277,71.16391392281804L171.75846661249795,68.63783391620672L172.96803327878317,60.90470306248466L174.17759994506835,67.92782833974923L175.38716661135356,66.89012154425438L176.59673327763878,66.73248098612095L177.80629994392396,68.71105691015254L179.01586661020914,72.22293880515792L180.22543327649433,75.57028008493506L181.43499994277954,66.76930875354009L182.64456660906473,65.26180075722658L183.85413327534994,63.324800251839065L185.06369994163512,69.64780660161779L186.2732666079203,61.90943376422217L187.48283327420555,64.17335279560359L188.69239994049073,71.96574175159913L189.90196660677591,61.69444034346088L191.1115332730611,67.18249859040372L192.3210999393463,64.94124676150824L193.5306666056315,65.96362925109719L194.74023327191668,63.08432811279056L195.94979993820192,62.026168312235654L197.1593666044871,66.52082430938754L198.3689332707723,62.47517665443593L199.5784999370575,64.44975672450818L200.78806660334268,61.76451196804703L201.99763326962787,66.8693904771921L203.2071999359131,72.53643826489133L204.4167666021983,74.91773035703227L205.62633326848348,54.84716353618569L206.83589993476866,65.43116111382841L208.04546660105387,64.68603733633643L209.25503326733906,66.57083427543546L210.46459993362424,67.9605572672823L211.67416659990948,63.555993358883995L212.88373326619467,68.42774262556048L214.09329993247985,62.147928573476406L215.30286659876506,66.61536539017834L216.51243326505025,61.763358525667L217.72199993133543,79.15258375667764L218.93156659762067,65.42869975017823L220.14113326390586,63.475551051470404L221.35069993019104,69.81215154358506L222.56026659647623,59.80155900910904L223.76983326276144,63.98532109047517L224.97939992904662,64.07468197914858L226.1889665953318,66.92594004959102L227.39853326161705,65.41707263904391L228.60809992790223,60.75742288858601L229.81766659418741,68.12765193349475L231.02723326047263,65.49824614653772L232.2367999267578,63.80572393275071L233.446366593043,66.34576883103438L234.65593325932818,68.88615358287643L235.86549992561342,69.46046490219885L237.0750665918986,65.14317126816019L238.2846332581838,64.58147572486922L239.494199924469,61.22320763825991L240.70376659075419,69.17583239774393L241.91333325703937,62.02992729856339L243.1228999233246,64.41930378595714L244.3324665896098,71.63476558008989L245.54203325589498,69.30289643421418L246.7515999221802,61.94207000442111L247.96116658846537,67.93757080842335L249.17073325475056,61.90608672160158L250.38029992103574,60.5212555612772L251.58986658732098,61.75022782000161L252.79943325360617,62.470758558176726L254.00899991989135,66.47394511551391L255.21856658617656,64.14077834696076L256.42813325246175,67.10466182693779L257.63769991874693,62.46714375214651L258.8472665850322,62.74013884687446L260.05683325131736,65.28564199927786L261.26639991760254,63.85792749903919L262.4759665838878,62.89446325816533L263.68553325017297,60.919285869717726L264.89509991645815,61.561691483831964L266.10466658274333,63.75754711619953L267.3142332490285,56.37965591833779L268.5237999153137,61.2464721591212L269.7333665815989,61.722143557766685L270.9429332478841,62.077764261556126L272.1524999141693,68.54204670570181L273.3620665804545,65.25713549474312L274.57163324673974,60.686496480807534L275.7811999130249,60.98271490202603L276.9907665793101,62.237279163557105L278.2003332455953,64.26750252987256L279.4098999118805,69.32857082576231L280.61946657816566,62.01817660431698L281.82903324445084,66.39186533186438L283.0385999107361,61.97762074634812L284.24816657702127,68.1312564409323L285.45773324330645,63.0795495657876L286.6672999095917,62.4566391876142L287.8768665758769,60.74994611030121L289.08643324216206,63.05723251545277L290.2959999084473,61.4760380885229L291.5055665747325,63.74717643337209L292.71513324101767,64.85180348409341L293.92469990730285,61.79396594310822L295.13426657358804,62.72471155504172L296.3438332398732,66.27850872224951L297.5533999061584,62.78110664855046L298.76296657244364,65.98737780581433L299.97253323872883,61.30963342801988L301.182099905014,63.558362035200105L302.39166657129925,62.531695331056824L303.60123323758444,63.96526973052971L304.8107999038696,66.73799073320407L306.02036657015486,69.26546104982697L307.22993323644005,64.27392885170411L308.43949990272523,61.555646209929535L309.6490665690104,67.12413646569331L310.8586332352956,60.18866251071739L312.0681999015808,63.10281408664889L313.27776656786597,64.40466948576068L314.4873332341512,65.06465479757753L315.6968999004364,65.93366034640206L316.9064665667216,64.315349791458L318.1160332330068,63.87501286429324L319.325599899292,68.0738932797118L320.5351665655772,63.66362395096951L321.7447332318624,67.71687196731801L322.9542998981476,66.90479703882158L324.1638665644328,72.09306325288634L325.373433230718,69.59708603267501L326.58299989700316,71.36052435564778L327.79256656328835,64.28966510131721L329.00213322957353,65.14366560060881L330.21169989585877,63.46329572618271L331.42126656214396,66.24527516367527L332.63083322842914,60.3784449766012L333.8403998947144,63.572079760648194L335.04996656099956,67.33915048363997L336.25953322728475,64.47774829940897L337.46909989357,67.56731580443738L338.6786665598552,63.45325459832094L339.88823322614036,61.138130964140885L341.09779989242554,70.24700961944473L342.3073665587107,63.86269574744949L343.5169332249959,62.66431030898093L344.7264998912811,63.426725423580535L345.93606655756633,66.12316475028348L347.1456332238515,65.39152183060793L348.3551998901367,64.14303373875737L349.56476655642194,60.897823602575215L350.7743332227071,59.17580621935633L351.9838998889923,68.13876411499513L353.19346655527755,60.634601872299356L354.40303322156274,68.28827908350502L355.6125998878479,65.39877203985378L356.8221665541331,63.38318297373479L358.0317332204183,60.86885366136994L359.2412998867035,63.213153208608844L360.45086655298866,62.84728540510406L361.6604332192739,64.29125108458976L362.8699998855591,68.29898961989096L364.0795665518443,66.35542891096702L365.28913321812945,63.648546811287815L366.4986998844147,61.16832643787495L367.7082665506999,64.76901309754902L368.91783321698506,65.40936929172022L370.12739988327024,65.82497929786331L371.3369665495555,65.5962372558759L372.5465332158406,67.27992327714452L373.75609988212585,63.733983936150594L374.9656665484111,64.49741861142536L376.1752332146962,61.25376356273773L377.38479988098146,62.95445256051897L378.5943665472666,62.04333606623112L379.80393321355183,62.153294140262005L381.01349987983707,69.37149536004728L382.2230665461222,64.48575030592036L383.43263321240744,66.57497430969232L384.6421998786926,65.73128270167217L385.8517665449778,63.52515937240389L387.061333211263,61.85064939721195L388.27089987754823,66.86678493324433L389.48046654383336,67.4065547727223L390.6900332101186,62.95416419992398L391.89959987640384,65.95213602166768L393.10916654268897,63.1719073449305L394.3187332089742,62.21744407405788L395.52829987525945,63.19138198368603L396.7378665415446,61.88778612241151L397.9474332078298,64.80412099999086L399.156999874115,64.16642184273081L400.3665665404002,68.88243579091937L401.57613320668537,63.72105920233878L402.7856998729706,62.15596147576582L403.99526653925574,68.76793603751725L405.204833205541,64.57233057457051L406.4143998718262,63.199332497234025L407.62396653811135,65.16266650410108L408.8335332043966,67.22134488198787L410.0430998706817,64.78559383176179L411.25266653696696,64.8380033699039L412.4622332032522,64.00955367904822L413.6717998695373,61.55006437269765L414.88136653582256,65.0039754895144L416.09093320210775,63.77850475230076L417.30049986839293,62.52555736982032L418.5100665346781,62.078546954599744L419.71963320096336,67.6485408048946L420.9291998672485,62.116857719364646L422.1387665335337,64.48736718497094L423.34833319981897,62.388184442078625L424.5578998661041,62.28884421709955L425.76746653238934,62.18357200273749L426.9770331986746,64.61584212863818L428.1865998649597,65.34466323391968L429.39616653124494,63.77959640312474L430.6057331975301,66.14099161421035L431.8152998638153,63.46448006434076L433.0248665301005,62.49297262258477L434.23443319638574,64.60942610539934L435.44399986267086,62.44505327085062L436.6535665289561,60.81363260742654L437.86313319524135,61.539106670087506L439.0726998615265,64.86050579490694L440.2822665278117,60.82303522254222L441.49183319409684,61.28420620269611L442.7013998603821,61.288511014435755L443.9109665266673,61.22236315366024L445.12053319295245,54.89872858972814L446.3300998592377,60.414757814386405L447.5396665255229,68.63480612995914L448.74923319180806,63.71540527495819L449.95879985809324,66.77967943636759L451.1683665243785,62.744320075502L452.3779331906636,61.17697725572509L453.58749985694885,64.32284716692811L454.7970665232341,62.559398545362626L456.0066331895192,62.249256426842464L457.21619985580446,61.5749354740168L458.42576652208965,60.49884582360829L459.63533318837483,61.6150793882785L460.84489985466,63.12141334502667L462.05446652094525,62.45893577378155L463.2640331872304,67.5392727365732L464.4735998535156,68.60844173270164L465.68316651980086,62.11603383195035L466.892733186086,65.0657876427722L468.10229985237123,61.18682271032594L469.31186651865636,61.0471531964169L470.5214331849416,62.49829699499969L471.73099985122684,61.78105150788906L472.94056651751197,61.35059093110323L474.1501331837972,62.59180821652262L475.3596998500824,62.31866894149715L476.5692665163676,63.690287007414724L477.77883318265276,61.66671653196971L478.988399848938,62.18708382284092L480.19796651522313,61.61257683025764L481.40753318150837,63.11389537237119L482.6170998477936,61.64408022526186L483.82666651407874,63.743448342822376L485.036233180364,62.60495951937338L486.2457998466492,60.78165547715906L487.45536651293435,66.49107167513864L488.6649331792196,62.51542355462442L489.8744998455048,62.88224912724837L491.08406651178996,62.96565742935343L492.29363317807514,62.58901729790665L493.5031998443604,63.180980405080504L494.7127665106455,59.576349384410435L495.92233317693075,62.66643181907273L497.131899843216,62.63855352869143L498.3414665095011,63.923766402034346L499.55103317578636,61.78038209936494L500.7605998420715,61.16583417844669L501.9701665083567,63.01370036419979L503.17973317464197,62.17206847471533L504.3892998409271,61.7727920365607L505.59886650721234,64.06949148843853L506.8084331734975,71.4401015812764L508.0179998397827,61.4224648094081L509.2275665060679,63.058293270498666L510.43713317235313,62.20249051748834L511.64669983863826,63.26815799210601L512.8562665049235,61.612133990772406L514.0658331712087,62.94309321279434L515.2753998374939,63.82644470122028L516.4849665037791,63.04107402353986L517.6945331700643,63.40379045768498L518.9040998363495,64.18269361916316L520.1136665026347,61.906426575160026L521.32323316892,64.28447461060716L522.5327998352051,63.07284518195377L523.7423665014903,61.29050894141545L524.9519331677756,61.56246387828287L526.1614998340607,63.06397809365734L527.3710665003459,63.40114371936653L528.5806331666311,60.882818553042284L529.7901998329163,64.22042766273808L530.9997664992014,70.79539938099475L532.2093331654867,63.31265821107081L533.4188998317718,61.911853933501675L534.628466498057,61.58742766693615L535.8380331643422,62.067136113911715L537.0475998306274,63.37414080936287L538.2571664969126,63.809977251527016L539.4667331631978,63.468918757785275L540.676299829483,61.25979853804745L541.8858664957683,63.1636478736022L543.0954331620534,64.45846933391442L544.3049998283386,62.37013100911281L545.5145664946239,65.77097347785605L546.724133160909,63.10069257655704L547.9336998271942,62.972310320223926L549.1432664934795,64.92710679376034L550.3528331597646,63.14193844023538L551.5623998260498,64.3725275780103L552.7719664923351,62.2073926476034L553.9815331586202,64.77681943079949L555.1910998249055,62.882362411767815L556.4006664911906,61.096926294833224L557.6102331574758,63.46132869498109L558.819799823761,64.71298875337669L560.0293664900462,63.20149520169656L561.2389331563313,61.8630797985752L562.4484998226166,61.8977963544952L563.6580664889017,63.46790949570277L564.8676331551869,61.49710900914363L566.0771998214722,63.39199856906782L567.2867664877573,62.72163227583076L568.4963331540425,63.99088233052174L569.7058998203278,61.3493859957598L570.9154664866129,64.13838907345928L572.1250331528981,62.3789569030385L573.3345998191834,62.98831433324665L574.5441664854685,63.692305531579734L575.7537331517537,64.28644164180878L576.963299818039,58.810659317339L578.1728664843241,61.80818829959753L579.3824331506094,62.43282884134095L580.5919998168946,64.93163817453899L581.8015664831797,60.939697680406994L583.011133149465,63.86855564668366L584.2206998157502,61.08533007947699L585.4302664820353,62.54520708465134L586.6398331483206,61.21905730541039L587.8493998146057,62.77508197183346L589.058966480891,60.264501347203634L590.2685331471761,62.031976718506485L591.4780998134613,62.51548534618047L592.6876664797464,62.65159154702269L593.8972331460317,62.32264419827112L595.1067998123168,63.252988165090244L596.316366478602,62.66213730592568L597.5259331448873,62.60767834784053L598.7354998111724,61.71080480722742L599.9450664774577,63.864848153319315L601.1546331437429,63.307251449914475L602.364199810028,61.87513945060198L603.5737664763133,63.0671088658317L604.7833331425985,62.29136737230584L605.9928998088836,62.76690488924652L607.2024664751689,62.5552997054765L608.4120331414541,63.22719019042995L609.6215998077392,63.20753017700628L610.8311664740245,64.04020229086018L612.0407331403097,62.528935308218934L613.2502998065949,62.29105841452548L614.4598664728801,62.511808748594206L615.6694331391653,60.02645967602729L616.8789998054505,62.68101462630585L618.0885664717357,63.125017852464225L619.2981331380208,61.64288558851115L620.5076998043061,62.016539128081035L621.7172664705912,61.54928167965409L622.9268331368764,61.715686340157106L624.1363998031616,61.616006261619646L625.3459664694468,62.68992290897296L626.5555331357319,61.41285622243885L627.7650998020172,62.67930505992115L628.9746664683024,63.70544653583784L630.1842331345875,61.66289575408592L631.3937998008728,62.120832976138615L632.603366467158,63.35948591198104L633.8129331334432,64.64928165906605L635.0224997997284,63.74748539115245L636.2320664660136,64.07250897609339L637.4416331322988,63.929966154827014L638.651199798584,65.30319080120245L639.8607664648692,62.053171222239314L641.0703331311544,64.12044892501291L642.2798997974396,64.78350321744801L643.4894664637249,63.78389091627179L644.69903313001,64.51435979638188L645.9085997962952,62.3199047726186L647.1181664625803,61.739187728649995L648.3277331288656,61.797797019584664L649.5372997951507,62.40177858441456L650.746866461436,63.51707497715108L651.9564331277211,62.097681739796826L653.1659997940063,62.60885238740593L654.3755664602915,63.10416320228978L655.5851331265767,63.73030733856433L656.7946997928619,62.849293630676414L658.0042664591471,63.36065995154638L659.2138331254323,62.55695777889781L660.4233997917175,62.42513579260992L661.6329664580027,63.41473786170246L662.8425331242879,62.29258260624192L664.0520997905732,63.62083329838936L665.2616664568583,61.56953901145317L666.4712331231435,61.040294333692884L667.6807997894288,62.4969478793588L668.8903664557139,62.763351874772354L670.0999331219991,62.58482577068645L671.3094997882844,62.61249808921423L672.5190664545695,61.213310690695664L673.7286331208547,61.59227830408781L674.93819978714,62.66835765590366L676.1477664534251,62.23659945644033L677.3573331197103,61.73904354835247L678.5668997859955,63.25981613203618L679.7764664522807,62.646318667571165L680.9860331185658,62.376948677466146L682.1955997848511,63.764817922630755L683.4051664511362,61.28923191592327L684.6147331174215,62.66011878176067L685.8242997837066,61.590434855998296L687.0338664499918,62.92970504231198L688.2434331162771,61.701896524560254L689.4529997825622,61.66167022155713L690.6625664488474,62.156229239175445L691.8721331151327,62.51201472044778L693.0816997814178,63.34284338621217L694.291266447703,61.96282166866877L695.5008331139883,62.5675035378008L696.7103997802734,64.70692288228895L697.9199664465586,63.44744619205011L699.1295331128439,61.93712667993532L700.339099779129,62.80007665626471L701.5486664454143,62.75092147340911L702.7582331116995,62.09911324417914L703.9677997779846,62.5156913180341L705.1773664442699,63.02236148064259L706.3869331105551,64.01456909368278L707.5964997768402,63.76883437377546L708.8060664431255,62.259040089887264L710.0156331094106,62.37923496504078L711.2251997756958,61.76376017078144L712.434766441981,62.62876986564663L713.6443331082662,64.03035683625933L714.8538997745513,62.759922443410346L716.0634664408366,61.985076927447494L717.2730331071217,62.483672993395885L718.482599773407,62.830920941337524L719.6921664396922,63.46510827849414L720.9017331059773,62.16250108211682L722.1112997722626,64.03342581687758L723.3208664385478,63.91173764578559L724.5304331048329,61.30913909557131L725.7399997711182,60.08879705751167L726.9495664374034,61.8940785625382L728.1591331036886,62.15928792120104L729.3686997699737,62.58878043027505L730.5782664362589,61.62081570440057L731.7878331025441,63.73575529409135L732.9973997688294,61.690011948609026L734.2069664351146,62.349266060345656L735.4165331013998,61.86648863275184L736.6260997676849,60.99101556772513L737.8356664339701,61.80116465939062L739.0452331002554,61.590517244739715L740.2547997665405,61.92039146683237L741.4643664328257,63.138416321539296L742.673933099111,60.984156705001055L743.8834997653961,62.469090186162816L745.0930664316812,61.58893126146722L746.3026330979665,60.626929420753754L747.5121997642517,63.65921615330302L748.721766430537,62.79564826141285L749.9313330968222,62.9898488235558L751.1408997631072,61.867920137134206L752.3504664293924,62.32202628271045L753.5600330956777,62.66767794878689L754.7695997619629,62.2310279178011L755.9791664282482,62.57049012967764L757.1887330945332,60.95142777746804L758.3982997608184,61.694944974502164L759.6078664271037,61.176936061354354L760.8174330933889,63.109951011375244L762.0269997596741,62.94461740451078L763.2365664259594,64.20971712635219L764.4461330922444,62.335095196819736L765.6556997585296,62.66909915457654L766.8652664248149,65.78063355778869L768.0748330911001,60.42752806930804L769.2843997573852,61.79816776892113L770.4939664236705,62.00256393781598L771.7035330899556,62.26493088489951L772.9130997562409,62.171100407003564L774.122666422526,62.30236626928672L775.3322330888112,62.97018881013207L776.5417997550965,62.40918327255059L777.7513664213817,61.446491426127636L778.9609330876667,62.8572956371878L780.170499753952,63.23793162259392L781.3800664202372,62.04989626976749L782.5896330865224,62.6104074749004L783.7991997528077,62.49505293830589L785.0087664190929,62.12871139953785L786.2183330853779,61.09634957364324L787.4278997516632,62.631488694113784L788.6374664179484,61.946838252831355L789.8470330842337,62.27218109414531L791.0565997505189,62.48709212616524L792.2661664168039,62.693084576925344L793.4757330830892,62.42279801207184L794.6852997493744,62.323849133614544L795.8948664156596,62.824793278693676L797.1044330819449,62.17563178778221L798.31399974823,61.55880787788192L799.5235664145151,62.25575483882278L800.7331330808004,61.871174492420664L801.9426997470856,62.447277766869206L803.1522664133707,62.391356408623665L804.361833079656,62.689716937119385L805.5713997459412,62.94937535432837L806.7809664122263,61.74768406760995L807.9905330785115,61.584430776466604L809.2000997447967,62.04736281596854L810.409666411082,61.9173636805848L811.6192330773672,62.25867963914351L812.8287997436524,62.45777203280886L814.0383664099375,62.916152094346785L815.2479330762227,62.49570174964464L816.4574997425079,61.84008304112359L817.6670664087932,67.36144693678943L818.8766330750784,61.30793416022789L820.0861997413634,61.52050741170967L821.2957664076487,61.76021745489999L822.5053330739339,62.17723836824007L823.7148997402192,62.437689777085325L824.9244664065044,60.75013148496947L826.1340330727895,62.65626710809886L827.3435997390746,61.916529494577844L828.5531664053599,69.02442248818113L829.7627330716451,61.791998911906546L830.9722997379303,61.79414101918371L832.1818664042155,61.604214373002435L833.3914330705007,61.45391671144898L834.6009997367859,61.731206319323974L835.810566403071,61.77970239224817L837.0201330693562,60.65246993059702L838.2296997356415,61.88112293294836L839.4392664019267,62.7441347008338L840.648833068212,66.87457066930949L841.858399734497,61.646984428397275L843.0679664007822,62.07279004129231L844.2775330670675,62.370594445783354L845.4870997333527,61.592412185792625L846.6966663996379,61.86934134292386L847.906233065923,61.41077590671779L849.1157997322082,62.74485560232131L850.3253663984934,60.93880170284393L851.5349330647787,61.100190948712395L852.7444997310639,61.99385132840979L853.9540663973492,62.126486903519265L855.1636330636342,61.180787735016224L856.3731997299194,61.64612964520495L857.5827663962046,62.02935057737341L858.7923330624899,61.769898132018L860.001899728775,61.481465446864604L861.2114663950603,62.61728693480984L862.4210330613454,61.94239955938684L863.6305997276306,62.69403204745174L864.8401663939158,62.50988291176327L866.049733060201,61.77195785055375L867.2592997264862,60.273656796095L868.4688663927715,62.521087780597725L869.6784330590565,62.6566172602499L870.8879997253417,62.14143016149609L872.097566391627,60.34673560974335L873.3071330579122,62.68854289755399L874.5166997241975,61.892163024299975L875.7262663904827,63.0248022471074L876.9358330567677,62.00968026535702L878.145399723053,61.36490597492667L879.3549663893382,61.76531525827596L880.5645330556234,61.982316904609604L881.7740997219087,62.42053232168257L882.9836663881937,61.320776505298284L884.1932330544789,55.05389748561868L885.4027997207642,62.08753762600827L886.6123663870494,62.015282699774275L887.8219330533346,61.545234332731354L889.0314997196198,61.842565001959144L890.2410663859049,62.1547565404224L891.4506330521901,62.12955588413752L892.6601997184754,62.151728754174826L893.8697663847605,62.10738301410021L895.0793330510458,62.28565165336914L896.288899717331,61.90581895819196L897.4984663836161,62.29718607716933L898.7080330499012,61.648179065147986L899.9175997161865,61.61772612659695L901.1271663824717,62.031976718506485L902.336733048757,61.075082979761646L903.5462997150422,62.07960770964564L904.7558663813272,62.86472092250915L905.9654330476125,61.93549950229209L907.1749997138977,62.31103768432223L908.384566380183,62.40328217894569L909.5941330464682,61.625439772513346L910.8036997127532,62.26368475518541L912.0132663790384,61.59671699753238L913.2228330453237,62.283458053128584L914.4323997116089,62.818511137159646L915.6419663778942,61.03883193353249L916.8515330441793,62.722064816723275L918.0610997104644,61.565780025125434L919.2706663767497,62.02170902160577L920.4802330430349,62.02776459410086L921.68979970932,61.49097104790707L922.8993663756053,62.187969501811324L924.1089330418905,62.16353094138469L925.3184997081756,61.98975248852366L926.5280663744608,62.28699047041738L927.737633040746,62.021214689157205L928.9471997070312,61.39195007930101L930.1567663733165,61.17670949231541L931.3663330396017,61.92736361407589L932.5758997058867,61.388304377492716L933.785466372172,61.33757350995728L934.9950330384572,62.817141424333386L936.2045997047425,62.40080021811008L937.4141663710277,62.10448910955745L938.6237330373127,62.59878036376614L939.833299703598,62.52204554971689L941.0428663698832,62.367031132716534L942.2524330361684,61.721556537983986L943.4619997024537,62.18431350141037L944.6715663687389,62.04378920430901L945.8811330350239,61.31533884836392L947.0906997013092,62.20130617933029L948.3002663675944,62.33266472894758L949.5098330338797,62.21135760578471L950.7193997001648,62.409492230330954L951.92896636645,61.76531525827596L953.1385330327352,62.88908739278702L954.3480996990204,61.89348124416284L955.5576663653055,62.443086239649006L956.7672330315908,61.84486158812649L957.976799697876,62.32319002368314L959.1863663641612,62.90115734340651L960.3959330304463,62.83603934189887L961.6054996967315,61.77541817769378L962.8150663630167,62.7515599861552L964.024633029302,62.576854659953085L965.2341996955872,62.39143879736508L966.4437663618725,62.53264280158328L967.6533330281575,61.04652498226352L968.8628996944427,62.413168827917275L970.072466360728,62.42944060434968L971.2820330270132,62.3256204915553L972.4915996932984,62.336897450538515L973.7011663595835,61.533298263816675L974.9107330258687,61.69501706465087L976.1202996921539,61.016144133861246L977.3298663584392,62.15797999993083L978.5394330247244,62.21429270469815L979.7489996910095,62.56927489574156L980.9585663572947,62.89521505543087L982.1681330235799,61.76752945570189L983.3776996898652,62.19534329416928L984.5872663561503,62.46691718310757L985.7968330224355,62.01859884661678L987.0063996887208,61.599260749923985L988.2159663550059,61.966364384550275L989.425533021291,62.350790252062154L990.6350996875763,62.67950073318207L991.8446663538615,62.12780512338213L993.0542330201467,62.340007625527505L994.263799686432,61.660207821396796L995.473366352717,62.51735969004807L996.6829330190022,61.88419191356661L997.8924996852875,62.617534101034096L999.1020663515727,62.05677572967687L1000.311633017858,62.423735184005636L1001.521199684143,60.68560050324447L1002.7307663504282,62.25893710396048L1003.9403330167135,62.224735477674415L1005.1498996829987,62.15604386450724L1006.3594663492839,67.40071547067345L1007.5690330155691,62.468698839641036L1008.7785996818542,61.12235352015705L1009.9881663481394,61.7028954880501L1011.1977330144247,61.94852722203069L1012.4072996807098,61.59911656962652L1013.616866346995,62.02128677930597L1014.8264330132803,62.052676889790746L1016.0359996795654,62.42012037797542L1017.2455663458505,61.42312391933956L1018.4551330121358,62.646843895797815L1019.664699678421,61.759537747783156L1020.8742663447063,61.4264091704041L1022.0838330109915,62.367422479238314L1023.2933996772765,62.50205598132743L1024.5029663435619,62.06143069356767L1025.712533009847,62.4544558859663L1026.9220996761321,62.087547924600926L1028.1316663424175,62.32765961290568L1029.3412330087026,62.12166716214563L1030.5507996749877,62.0353546569051L1031.7603663412729,62.3775459958415L1032.9699330075582,61.046205725890445L1034.1794996738433,61.98341885402624L1035.3890663401287,62.00485022539067L1036.5986330064136,62.23814424534214L1037.808199672699,62.504960184462846L1039.017766338984,62.257237836168486L1040.2273330052694,62.574156428671245L1041.4368996715546,62.519223735322896L1042.64646633784,62.83701770820335L1043.8560330041248,62.07138943268802L1045.0655996704102,61.658570345160854L1046.2751663366953,62.905997681965516L1047.4847330029806,62.49618578350055L1048.6942996692658,62.16948352795299L1049.9038663355511,61.84555159383598L1051.113433001836,62.35816404442011L1052.3229996681214,57.31196691635847L1053.5325663344065,61.813389088900294L1054.7421330006919,62.559223469287076L1055.951699666977,61.80003181419596L1057.1612663332621,62.25630066423474L1058.3708329995472,61.82286379416473L1059.5803996658326,61.34874748301371L1060.7899663321177,61.7776838680831L1061.9995329984029,61.527603142065345L1063.2090996646882,62.55907928898961L1064.4186663309733,62.27129541517496L1065.6282329972585,61.91030914459992L1066.8377996635436,62.05263569542001L1068.047366329829,62.31713445118805L1069.256932996114,62.44383803691454L1070.4664996623994,61.783481975761276L1071.6760663286843,62.801003529605794L1072.8856329949697,62.03548853860991L1074.0951996612548,62.631385708187L1075.3047663275402,61.34498849668597L1076.5143329938253,62.33158337671631L1077.7238996601106,68.01649922271315L1078.9334663263955,61.302352322996L1080.143032992681,62.481191032560275L1081.352599658966,62.33602207016082L1082.5621663252514,62.39331314123268L1083.7717329915365,61.67342091580355L1084.9812996578216,61.491908219840866L1086.1908663241068,68.87618454516343L1087.4004329903921,61.556542187492596L1088.6099996566772,62.29023452711118L1089.8195663229624,61.699229189056496L1091.0291329892477,61.49415331304482L1092.2386996555329,62.36059451229232L1093.448266321818,61.565646143420565L1094.657832988103,61.88508789112967L1095.8673996543885,62.15609535747063L1097.0769663206736,62.139185068292136L1098.286532986959,61.586655272485245L1099.4960996532438,62.01298611360687L1100.7056663195292,61.92753869015138L1101.9152329858143,62.40096499559297L1103.1247996520997,61.88159666821156L1104.3343663183848,62.13243949008756L1105.5439329846702,62.0793811406067L1106.753499650955,61.42355646023208L1107.9630663172404,61.6570358548517L1109.1726329835255,62.78319726286429L1110.382199649811,62.730540558497864L1111.591766316096,61.926879580219975L1112.8013329823812,62.711240995817946L1114.0108996486663,62.003274540710834L1115.2204663149516,62.29113050467424L1116.4300329812368,62.21998782644954L1117.639599647522,62.27544574802454L1118.8491663138072,61.748229893021914L1120.0587329800924,62.48033624936795L1121.2682996463775,62.63645261578495L1122.4778663126626,62.472231256929774L1123.687432978948,61.030788732650365L1124.896999645233,62.600314854075236L1126.1065663115185,61.900443092813646L1127.3161329778034,61.696685436664836L1128.5256996440887,62.22540488619853L1129.7352663103738,62.089226595207606L1130.9448329766592,62.15969986490819L1132.1543996429443,61.77328636900927L1133.3639663092297,62.03003028449024L1134.5735329755146,61.936035029111395L1135.7830996418,62.73287833903595L1136.992666308085,62.357988968344614L1138.2022329743704,61.79288459087695L1139.4117996406555,61.47451389680646L1140.621366306941,61.908990924737L1141.8309329732258,62.12973096021307L1143.0404996395112,62.536659252727986L1144.2500663057963,62.116116220691765L1145.4596329720816,62.026456672830705L1146.6691996383668,62.371511020531784L1147.878766304652,61.63992989241234L1149.088332970937,62.40725743571966L1150.2978996372224,62.08355207064159L1151.5074663035075,62.49066573782477L1152.7170329697926,61.71804471788056L1153.926599636078,62.48616525282415L1155.136166302363,62.15472564464437L1156.3457329686482,61.56176357398073L1157.5552996349334,61.98334676387748L1158.7648663012187,62.22843267244605L1159.9744329675038,62.29990490563648L1161.1839996337892,61.316430499187845L1162.393566300074,62.12567331469762L1163.6031329663595,61.71012510011059L1164.8126996326446,61.56654212098363L1166.02226629893,62.225868322869076L1167.231832965215,61.48891132937132L1168.4413996315004,62.14910261304175L1169.6509662977853,67.74381308576557L1170.8605329640707,69.37901333270275L1172.0700996303558,62.48712302194326L1173.2796662966412,62.20095602717919L1174.4892329629263,61.984932747150026L1175.6987996292114,70.13999694291999L1176.9083662954965,61.7912986076044L1178.117932961782,61.973521906462L1179.327499628067,62.03983454472035L1180.5370662943521,68.85108687480533L1181.7466329606375,70.19939922549094L1182.9561996269226,62.58997506702582L1184.1657662932078,62.321676130559354L1185.3753329594929,78.56336007515637L1186.5848996257782,62.069659269118006L1187.7944662920634,62.260348011157475L1189.0040329583487,68.33948368630371L1190.2135996246336,61.69430646175607L1191.423166290919,62.16299541456539L1192.632732957204,68.97303251071429L1193.8422996234895,62.38011034541853L1195.0518662897746,67.67355608651127L1196.26143295606,62.04065843213465L1197.4709996223448,61.90972212481722L1198.6805662886302,67.57409227841998L1199.8901329549153,68.76148911850032L1201.0996996212007,83.92470443778001L1202.3092662874858,62.16263496382163L1203.518832953771,69.51371892494063L1204.728399620056,66.11098151514449L1205.9379662863414,67.57667722518238L1207.1475329526265,62.35833912049566L1208.3570996189117,69.14698603965081L1209.566666285197,62.230667467057344L1210.7762329514821,69.29890058025484L1211.9857996177673,61.59973448518724L1213.1953662840524,61.96083404028178L1214.4049329503378,68.49045075638134L1215.6144996166229,68.60780321995554L1216.8240662829082,69.53227698894773L1218.0336329491931,66.7793910757726L1219.2431996154785,69.0711780989426L1220.4527662817636,68.53451843445362L1221.662332948049,62.538523298002815L1222.871899614334,69.8309361766311L1224.0814662806195,62.032368065028265L1225.2910329469044,61.99841360496646L1226.5005996131897,68.74930588336139L1227.7101662794748,69.84305762021393L1228.9197329457602,78.19756436180029L1230.1292996120453,69.47858012672077L1231.3388662783307,62.23409689841935L1232.5484329446156,69.37627390705018L1233.757999610901,67.53135311880322L1234.967566277186,67.88520246465197L1236.1771329434714,68.31230570022456L1237.3866996097565,62.52360063721136L1238.5962662760417,69.67048410269638L1239.8058329423268,70.90417311686758L1241.0153996086121,68.66099545114122L1242.2249662748973,98.724389734093L1243.4345329411824,69.59684916504335L1244.6440996074678,68.70975928747504L1245.8536662737529,89.38031181919217L1247.063232940038,69.63701367649048L1248.2727996063231,76.76821238532574L1249.4823662726085,70.06952367321941L1250.6919329388936,89.65672604668947L1251.901499605179,61.92804332119266L1253.1110662714639,68.38863886915931L1254.3206329377492,87.26122189665188L1255.5301996040344,68.3657039032638L1256.7397662703197,68.89834711660802L1257.9493329366048,68.43598149970347L1259.1588996028902,67.42740942289674L1260.368466269175,69.58761132741057L1261.5780329354604,68.41447803819028L1262.7875996017456,312.5348111543979L1263.997166268031,68.30424190215706L1265.206732934316,99.78736927602148L1266.4162996006012,68.7833324335719L1267.6258662668863,69.24185667540729L1268.8354329331717,67.69488447194891L1270.0449995994568,118.99542381072752L1271.254566265742,69.96676431547093L1272.4641329320273,68.86904762043707L1273.6736995983124,68.59536251999964L1274.8832662645975,69.3336892263236L1276.0928329308827,68.47218105296923L1277.302399597168,68.86456773262182L1278.5119662634531,68.86145755763283L1279.7215329297385,68.87850172851614L1280.9310995960234,67.9233072575633L1282.1406662623087,68.21030843833432L1283.3502329285939,61.14506191701366L1284.5597995948792,68.79650433360803L1285.7693662611644,67.74197993626876L1286.9789329274497,77.20661317706691L1288.1884995937346,68.23815583293765L1289.39806626002,68.17153423689888L1290.607632926305,69.03500944145492L1291.8171995925904,68.91436142822351L1293.0267662588756,68.12496400080562L1294.2363329251607,68.00342001001121L1295.4458995914458,66.68931958420433L1296.6554662577312,68.71852338984462L1297.8650329240163,68.47856618043005L1299.0745995903014,68.91131304479057L1300.2841662565868,68.30643550239762L1301.493732922872,68.23983450354427L1302.703299589157,68.59176831115474L1303.9128662554422,68.11476839405367L1305.1224329217275,68.45488971586167L1306.3319995880126,68.669337311211L1307.541566254298,68.51110973329486L1308.751132920583,67.82159835626805L1309.9606995868683,67.90721055720644L1311.1702662531534,67.51933466114718L1312.3798329194387,68.09900124866255L1313.5893995857239,67.93223613741577L1314.7989662520092,68.02293584313736L1316.0085329182941,67.77500752298948L1317.2180995845795,67.40228085676063L1318.4276662508646,67.7321756760386L1319.63723291715,68.46182066873445L1320.846799583435,67.2162985715753L1322.0563662497204,67.8732149027739L1323.2659329160053,67.86840545999291L1324.4754995822907,67.61485410824247L1325.6850662485758,67.2583168297046L1326.8946329148612,67.29340413496101L1328.1041995811463,66.94383900366665L1329.3137662474314,67.6227325316417L1330.5233329137166,66.57502580265572" fill="none"></path></g></g></g></g></g></g><g transform="translate(51, 377)" clip-path="url(#clip_1)"><clipPath id="clip_1"><rect width="1451" height="22"></rect></clipPath><g><g><line x1="0" y1="0" x2="0" y2="5" style="visibility: inherit;" fill="rgb(0, 0, 0)" stroke="rgb(204, 204, 204)" stroke-width="1px"></line><line x1="120.95666662851968" y1="0" x2="120.95666662851968" y2="5" style="visibility: inherit;" fill="rgb(0, 0, 0)" stroke="rgb(204, 204, 204)" stroke-width="1px"></line><line x1="241.91333325703937" y1="0" x2="241.91333325703937" y2="5" style="visibility: inherit;" fill="rgb(0, 0, 0)" stroke="rgb(204, 204, 204)" stroke-width="1px"></line><line x1="362.8699998855591" y1="0" x2="362.8699998855591" y2="5" style="visibility: inherit;" fill="rgb(0, 0, 0)" stroke="rgb(204, 204, 204)" stroke-width="1px"></line><line x1="483.82666651407874" y1="0" x2="483.82666651407874" y2="5" style="visibility: inherit;" fill="rgb(0, 0, 0)" stroke="rgb(204, 204, 204)" stroke-width="1px"></line><line x1="604.7833331425985" y1="0" x2="604.7833331425985" y2="5" style="visibility: inherit;" fill="rgb(0, 0, 0)" stroke="rgb(204, 204, 204)" stroke-width="1px"></line><line x1="725.7399997711182" y1="0" x2="725.7399997711182" y2="5" style="visibility: inherit;" fill="rgb(0, 0, 0)" stroke="rgb(204, 204, 204)" stroke-width="1px"></line><line x1="846.6966663996379" y1="0" x2="846.6966663996379" y2="5" style="visibility: inherit;" fill="rgb(0, 0, 0)" stroke="rgb(204, 204, 204)" stroke-width="1px"></line><line x1="967.6533330281575" y1="0" x2="967.6533330281575" y2="5" style="visibility: inherit;" fill="rgb(0, 0, 0)" stroke="rgb(204, 204, 204)" stroke-width="1px"></line><line x1="1088.6099996566772" y1="0" x2="1088.6099996566772" y2="5" style="visibility: inherit;" fill="rgb(0, 0, 0)" stroke="rgb(204, 204, 204)" stroke-width="1px"></line><line x1="1209.566666285197" y1="0" x2="1209.566666285197" y2="5" style="visibility: inherit;" fill="rgb(0, 0, 0)" stroke="rgb(204, 204, 204)" stroke-width="1px"></line><line x1="1330.5233329137166" y1="0" x2="1330.5233329137166" y2="5" style="visibility: inherit;" fill="rgb(0, 0, 0)" stroke="rgb(204, 204, 204)" stroke-width="1px"></line><line x1="1451.4799995422363" y1="0" x2="1451.4799995422363" y2="5" style="visibility: inherit;" fill="rgb(0, 0, 0)" stroke="rgb(204, 204, 204)" stroke-width="1px"></line></g><g transform="translate(0, 8)"><text style="text-anchor: middle; visibility: hidden; font-family: &quot;Helvetica Neue&quot;, sans-serif; font-size: 12px; font-weight: 200;" x="0" y="0" dx="0em" dy="0.95em" fill="rgb(50, 49, 63)" stroke="none" stroke-width="1px">-100</text><text style="text-anchor: middle; visibility: inherit; font-family: &quot;Helvetica Neue&quot;, sans-serif; font-size: 12px; font-weight: 200;" x="120.95666662851968" y="0" dx="0em" dy="0.95em" fill="rgb(50, 49, 63)" stroke="none" stroke-width="1px">0</text><text style="text-anchor: middle; visibility: inherit; font-family: &quot;Helvetica Neue&quot;, sans-serif; font-size: 12px; font-weight: 200;" x="241.91333325703937" y="0" dx="0em" dy="0.95em" fill="rgb(50, 49, 63)" stroke="none" stroke-width="1px">100</text><text style="text-anchor: middle; visibility: inherit; font-family: &quot;Helvetica Neue&quot;, sans-serif; font-size: 12px; font-weight: 200;" x="362.8699998855591" y="0" dx="0em" dy="0.95em" fill="rgb(50, 49, 63)" stroke="none" stroke-width="1px">200</text><text style="text-anchor: middle; visibility: inherit; font-family: &quot;Helvetica Neue&quot;, sans-serif; font-size: 12px; font-weight: 200;" x="483.82666651407874" y="0" dx="0em" dy="0.95em" fill="rgb(50, 49, 63)" stroke="none" stroke-width="1px">300</text><text style="text-anchor: middle; visibility: inherit; font-family: &quot;Helvetica Neue&quot;, sans-serif; font-size: 12px; font-weight: 200;" x="604.7833331425985" y="0" dx="0em" dy="0.95em" fill="rgb(50, 49, 63)" stroke="none" stroke-width="1px">400</text><text style="text-anchor: middle; visibility: inherit; font-family: &quot;Helvetica Neue&quot;, sans-serif; font-size: 12px; font-weight: 200;" x="725.7399997711182" y="0" dx="0em" dy="0.95em" fill="rgb(50, 49, 63)" stroke="none" stroke-width="1px">500</text><text style="text-anchor: middle; visibility: inherit; font-family: &quot;Helvetica Neue&quot;, sans-serif; font-size: 12px; font-weight: 200;" x="846.6966663996379" y="0" dx="0em" dy="0.95em" fill="rgb(50, 49, 63)" stroke="none" stroke-width="1px">600</text><text style="text-anchor: middle; visibility: inherit; font-family: &quot;Helvetica Neue&quot;, sans-serif; font-size: 12px; font-weight: 200;" x="967.6533330281575" y="0" dx="0em" dy="0.95em" fill="rgb(50, 49, 63)" stroke="none" stroke-width="1px">700</text><text style="text-anchor: middle; visibility: inherit; font-family: &quot;Helvetica Neue&quot;, sans-serif; font-size: 12px; font-weight: 200;" x="1088.6099996566772" y="0" dx="0em" dy="0.95em" fill="rgb(50, 49, 63)" stroke="none" stroke-width="1px">800</text><text style="text-anchor: middle; visibility: inherit; font-family: &quot;Helvetica Neue&quot;, sans-serif; font-size: 12px; font-weight: 200;" x="1209.566666285197" y="0" dx="0em" dy="0.95em" fill="rgb(50, 49, 63)" stroke="none" stroke-width="1px">900</text><text style="text-anchor: middle; visibility: inherit; font-family: &quot;Helvetica Neue&quot;, sans-serif; font-size: 12px; font-weight: 200;" x="1330.5233329137166" y="0" dx="0em" dy="0.95em" fill="rgb(50, 49, 63)" stroke="none" stroke-width="1px">1k</text><text style="text-anchor: middle; visibility: hidden; font-family: &quot;Helvetica Neue&quot;, sans-serif; font-size: 12px; font-weight: 200;" x="1451.4799995422363" y="0" dx="0em" dy="0.95em" fill="rgb(50, 49, 63)" stroke="none" stroke-width="1px">1.1k</text></g><line x1="0" y1="0" x2="1451.4799995422363" y2="0" fill="rgb(0, 0, 0)" stroke="rgb(204, 204, 204)" stroke-width="1px"></line></g></g></g></g></svg>